<?xml version="1.0" standalone="no"?>
<!DOCTYPE svg PUBLIC "-//W3C//DTD SVG 1.0//EN" "http://www.w3.org/TR/2001/REC-SVG-20010904/DTD/svg10.dtd">
<svg xmlns="http://www.w3.org/2000/svg" xmlns:xlink="http://www.w3.org/1999/xlink" id="body_1" width="200" height="200">

<g transform="matrix(0.19286403 0 0 0.18779343 0 0)">
	<g transform="matrix(1 0 0 1 -104.32312 -107)">
		<g transform="matrix(0.1 0 -0 -0.1 0 1280)">
            <path d="M7046 11699C 6828 11674 6763 11661 6781 11647C 6783 11645 6861 11604 6953 11556C 7053 11505 7139 11467 7163 11464C 7213 11458 7789 11525 7803 11539C 7810 11546 7749 11581 7631 11639L7631 11639L7448 11730L7372 11729C 7329 11728 7183 11715 7046 11699z" stroke="none" fill="#FFC107" fill-rule="nonzero" />
            <path d="M6340 11620C 6090 11592 6050 11585 6050 11571C 6050 11566 6128 11521 6223 11471C 6367 11395 6405 11380 6446 11378C 6518 11376 7069 11442 7088 11456C 7101 11465 7071 11483 6922 11559L6922 11559L6741 11650L6658 11649C 6612 11648 6469 11635 6340 11620z" stroke="none" fill="#FFC107" fill-rule="nonzero" />
            <path d="M5597 11539C 5340 11509 5278 11497 5296 11481C 5301 11476 5375 11433 5460 11385C 5603 11304 5620 11297 5680 11293C 5754 11288 6338 11354 6353 11369C 6364 11380 6358 11384 6170 11486L6170 11486L6025 11564L5940 11566C 5893 11568 5739 11555 5597 11539z" stroke="none" fill="#FFC107" fill-rule="nonzero" />
            <path d="M7495 11485C 7347 11466 7222 11451 7218 11451C 7213 11450 7210 11444 7210 11438C 7210 11431 7292 11383 7393 11332C 7562 11246 7579 11239 7635 11239C 7720 11239 8240 11306 8252 11318C 8260 11326 8207 11357 8076 11422C 7849 11534 7870 11532 7495 11485z" stroke="none" fill="#FFC107" fill-rule="nonzero" />
            <path d="M4843 11455C 4543 11420 4510 11415 4510 11401C 4510 11384 4823 11207 4867 11199C 4896 11193 5008 11203 5239 11230C 5421 11251 5575 11272 5580 11275C 5586 11278 5590 11285 5590 11289C 5590 11294 5515 11339 5424 11390C 5266 11478 5255 11483 5192 11486C 5155 11487 4998 11474 4843 11455z" stroke="none" fill="#FFC107" fill-rule="nonzero" />
            <path d="M6783 11401C 6617 11381 6478 11361 6473 11357C 6469 11352 6473 11342 6483 11335C 6528 11302 6815 11157 6850 11149C 6879 11142 6972 11150 7206 11180C 7381 11201 7527 11223 7532 11228C 7543 11239 7499 11266 7315 11357C 7230 11400 7157 11429 7130 11433C 7105 11436 6954 11422 6783 11401z" stroke="none" fill="#FFC107" fill-rule="nonzero" />
            <path d="M4031 11365C 3715 11328 3697 11324 3703 11307C 3705 11301 3775 11253 3859 11201C 3983 11124 4020 11106 4060 11102C 4113 11097 4741 11166 4778 11181C 4790 11185 4800 11193 4800 11197C 4800 11202 4727 11248 4637 11300L4637 11300L4475 11395L4395 11397C 4351 11398 4187 11383 4031 11365z" stroke="none" fill="#FFC107" fill-rule="nonzero" />
            <path d="M6175 11331C 6098 11321 5966 11304 5883 11295C 5799 11285 5723 11272 5714 11265C 5700 11255 5724 11238 5871 11156C 6027 11068 6051 11057 6105 11053C 6162 11049 6774 11121 6787 11133C 6798 11145 6774 11161 6608 11250C 6406 11359 6400 11360 6175 11331z" stroke="none" fill="#FFC107" fill-rule="nonzero" />
            <path d="M3213 11274C 2918 11240 2860 11230 2860 11211C 2860 11206 2928 11158 3011 11104C 3150 11014 3168 11006 3219 11002C 3273 10999 3927 11072 3963 11085C 3972 11089 3980 11096 3980 11100C 3980 11105 3909 11152 3823 11206L3823 11206L3665 11303L3590 11306C 3548 11308 3381 11294 3213 11274z" stroke="none" fill="#FFC107" fill-rule="nonzero" />
            <path d="M7940 11260C 7783 11239 7654 11222 7653 11221C 7636 11214 7679 11186 7835 11105C 7966 11037 8034 11007 8068 11004C 8096 11000 8227 11013 8390 11034C 8714 11077 8720 11078 8720 11094C 8720 11101 8632 11148 8525 11200C 8366 11276 8320 11294 8277 11296C 8248 11297 8097 11281 7940 11260z" stroke="none" fill="#FFC107" fill-rule="nonzero" />
            <path d="M5237 11221C 5067 11200 4924 11178 4919 11173C 4906 11160 4911 11156 5090 11051C 5174 11001 5260 10957 5280 10953C 5301 10949 5439 10962 5625 10984C 5994 11029 6012 11032 6017 11046C 6019 11051 5941 11100 5845 11154C 5682 11245 5664 11253 5607 11256C 5573 11257 5406 11242 5237 11221z" stroke="none" fill="#FFC107" fill-rule="nonzero" />
            <path d="M2360 11179C 2176 11158 2014 11136 2001 11130C 1970 11116 1969 11117 2127 11007C 2283 10897 2279 10899 2353 10899C 2457 10899 3103 10978 3118 10993C 3129 11005 3106 11023 2980 11105C 2833 11200 2787 11220 2725 11219C 2709 11218 2544 11200 2360 11179z" stroke="none" fill="#FFC107" fill-rule="nonzero" />
            <path d="M7212 11171C 7051 11150 6914 11128 6909 11123C 6901 11115 6917 11102 6962 11077C 7174 10960 7260 10918 7300 10908C 7337 10900 7399 10905 7659 10939C 7831 10962 7979 10984 7987 10988C 8008 11000 7999 11006 7797 11110C 7644 11189 7612 11202 7562 11205C 7531 11207 7373 11192 7212 11171z" stroke="none" fill="#FFC107" fill-rule="nonzero" />
            <path d="M4470 11130C 4113 11087 4087 11083 4093 11067C 4095 11060 4168 11010 4255 10955C 4405 10862 4418 10855 4475 10852C 4557 10847 5191 10926 5208 10944C 5219 10955 5192 10974 5048 11057C 4906 11140 4866 11159 4825 11162C 4798 11164 4638 11150 4470 11130z" stroke="none" fill="#FFC107" fill-rule="nonzero" />
            <path d="M1463 11077C 1117 11037 1059 11025 1086 11001C 1118 10972 1348 10806 1368 10799C 1406 10784 1461 10788 1821 10830C 2193 10873 2225 10879 2225 10900C 2225 10907 2161 10958 2083 11012C 1950 11104 1938 11110 1883 11114C 1850 11117 1672 11101 1463 11077z" stroke="none" fill="#FFC107" fill-rule="nonzero" />
            <path d="M6475 11079C 6143 11037 6127 11034 6132 11019C 6134 11013 6215 10963 6313 10909C 6445 10835 6503 10808 6538 10803C 6581 10798 7186 10872 7226 10887C 7253 10897 7235 10914 7144 10963C 6930 11079 6864 11109 6820 11113C 6795 11115 6640 11100 6475 11079z" stroke="none" fill="#FFC107" fill-rule="nonzero" />
            <path d="M3620 11030C 3262 10987 3240 10983 3240 10966C 3240 10948 3534 10759 3582 10746C 3613 10738 3690 10744 3978 10779C 4334 10823 4380 10831 4380 10849C 4380 10861 4096 11040 4050 11056C 4000 11074 3962 11072 3620 11030z" stroke="none" fill="#FFC107" fill-rule="nonzero" />
            <path d="M8422 11030C 8135 10991 8110 10987 8110 10973C 8110 10969 8201 10918 8313 10861C 8510 10760 8517 10758 8580 10758C 8666 10760 9189 10835 9202 10848C 9215 10861 9220 10858 8992 10970C 8852 11039 8797 11061 8757 11064C 8727 11067 8587 11053 8422 11030z" stroke="none" fill="#FFC107" fill-rule="nonzero" />
            <path d="M5678 10981C 5347 10938 5327 10934 5333 10917C 5335 10911 5416 10859 5514 10801L5514 10801L5691 10697L5758 10698C 5846 10698 6441 10777 6454 10790C 6468 10804 6464 10808 6271 10915C 6112 11005 6093 11013 6036 11016C 6003 11018 5841 11002 5678 10981z" stroke="none" fill="#FFC107" fill-rule="nonzero" />
            <path d="M1050 10985C 1039 10972 1041 10914 1059 10667C 1088 10279 1096 10207 1114 10171C 1123 10155 1189 10093 1261 10034C 1383 9935 1394 9928 1406 9945C 1416 9958 1418 9984 1414 10034C 1411 10073 1398 10247 1386 10420C 1368 10660 1359 10743 1346 10767C 1336 10787 1282 10836 1207 10891C 1140 10942 1080 10987 1074 10992C 1067 10997 1058 10994 1050 10985z" stroke="none" fill="#FFC107" fill-rule="nonzero" />
            <path d="M2724 10925C 2531 10902 2368 10880 2362 10876C 2355 10872 2350 10865 2350 10860C 2350 10849 2629 10654 2665 10640C 2707 10624 2748 10627 3132 10675C 3382 10706 3499 10725 3509 10735C 3521 10747 3503 10762 3374 10846C 3212 10952 3176 10970 3115 10968C 3093 10968 2917 10949 2724 10925z" stroke="none" fill="#FFC107" fill-rule="nonzero" />
            <path d="M7661 10930C 7407 10896 7345 10882 7362 10865C 7384 10843 7749 10659 7781 10654C 7829 10646 8444 10728 8468 10746C 8480 10755 8447 10776 8284 10861C 8092 10961 8083 10965 8015 10967C 7976 10968 7819 10952 7661 10930z" stroke="none" fill="#FFC107" fill-rule="nonzero" />
            <path d="M4835 10875C 4654 10851 4504 10831 4503 10831C 4466 10821 4802 10603 4875 10589C 4918 10581 4942 10583 5345 10636C 5493 10656 5623 10676 5633 10682C 5660 10696 5652 10703 5460 10816C 5303 10908 5292 10913 5230 10916C 5192 10918 5028 10901 4835 10875z" stroke="none" fill="#FFC107" fill-rule="nonzero" />
            <path d="M6885 10829C 6726 10807 6591 10784 6585 10779C 6571 10765 6587 10755 6785 10645C 6902 10580 6970 10548 7000 10544C 7052 10538 7688 10624 7704 10640C 7710 10646 7710 10653 7704 10659C 7699 10664 7614 10712 7515 10766L7515 10766L7335 10863L7255 10866C 7204 10868 7071 10854 6885 10829z" stroke="none" fill="#FFC107" fill-rule="nonzero" />
            <path d="M1820 10820C 1480 10779 1439 10772 1433 10753C 1431 10747 1489 10697 1563 10643C 1713 10530 1721 10525 1770 10516C 1804 10510 2566 10601 2603 10615C 2613 10619 2619 10627 2617 10633C 2615 10639 2547 10691 2464 10749L2464 10749L2315 10855L2230 10857C 2180 10858 2009 10843 1820 10820z" stroke="none" fill="#FFC107" fill-rule="nonzero" />
            <path d="M8915 10789C 8637 10750 8579 10737 8596 10720C 8601 10715 8698 10664 8812 10606C 9057 10480 9023 10485 9350 10534C 9474 10553 9601 10571 9632 10575C 9663 10579 9697 10588 9707 10595C 9723 10607 9699 10621 9510 10714C 9345 10796 9283 10822 9245 10825C 9217 10827 9072 10812 8915 10789z" stroke="none" fill="#FFC107" fill-rule="nonzero" />
            <path d="M4020 10775C 3836 10751 3680 10731 3674 10730C 3669 10730 3655 10724 3645 10716C 3628 10704 3639 10694 3780 10600C 3952 10485 3982 10470 4040 10470C 4102 10470 4771 10560 4792 10571C 4802 10577 4808 10585 4805 10589C 4801 10597 4515 10777 4475 10798C 4428 10821 4347 10817 4020 10775z" stroke="none" fill="#FFC107" fill-rule="nonzero" />
            <path d="M6102 10726C 5930 10702 5784 10678 5777 10671C 5770 10664 5770 10657 5776 10651C 5781 10646 5864 10595 5960 10539C 6121 10444 6140 10436 6195 10432C 6264 10428 6898 10514 6914 10530C 6929 10545 6911 10558 6720 10665C 6502 10787 6527 10784 6102 10726z" stroke="none" fill="#FFC107" fill-rule="nonzero" />
            <path d="M1385 10721C 1380 10703 1422 10048 1435 9956C 1438 9935 1447 9905 1455 9890C 1470 9861 1736 9640 1756 9640C 1762 9640 1770 9649 1773 9661C 1784 9701 1731 10442 1715 10487C 1701 10522 1679 10544 1563 10631C 1488 10687 1419 10735 1409 10737C 1398 10740 1390 10735 1385 10721z" stroke="none" fill="#FFC107" fill-rule="nonzero" />
            <path d="M8174 10684C 7865 10641 7830 10635 7830 10620C 7830 10616 7921 10563 8033 10504C 8228 10399 8238 10395 8305 10392C 8373 10389 8943 10469 8969 10485C 8975 10488 8978 10495 8975 10500C 8972 10505 8881 10554 8772 10610C 8633 10682 8560 10714 8525 10719C 8489 10724 8389 10714 8174 10684z" stroke="none" fill="#FFC107" fill-rule="nonzero" />
            <path d="M3128 10664C 2798 10622 2730 10610 2730 10593C 2730 10588 2801 10536 2888 10475C 3002 10395 3057 10363 3091 10356C 3128 10349 3209 10356 3501 10394C 3863 10441 3930 10453 3930 10471C 3930 10485 3614 10690 3576 10701C 3531 10714 3511 10712 3128 10664z" stroke="none" fill="#FFC107" fill-rule="nonzero" />
            <path d="M5264 10616C 4947 10572 4920 10567 4920 10552C 4920 10547 5002 10493 5101 10431C 5244 10342 5292 10318 5329 10313C 5378 10307 6035 10393 6078 10410C 6090 10415 6100 10424 6100 10429C 6100 10434 6018 10487 5918 10546L5918 10546L5735 10655L5655 10657C 5606 10658 5455 10642 5264 10616z" stroke="none" fill="#FFC107" fill-rule="nonzero" />
            <path d="M7370 10574C 7179 10547 7061 10525 7052 10516C 7041 10505 7069 10485 7238 10391C 7391 10306 7449 10278 7486 10274C 7539 10267 8159 10353 8193 10372C 8221 10387 8211 10394 7992 10510C 7816 10604 7794 10613 7737 10616C 7700 10617 7554 10601 7370 10574z" stroke="none" fill="#FFC107" fill-rule="nonzero" />
            <path d="M2215 10551C 2012 10525 1835 10500 1822 10496C 1809 10492 1800 10482 1802 10475C 1804 10467 1873 10410 1955 10348L1955 10348L2105 10236L2170 10232C 2227 10229 2702 10284 2932 10321C 3037 10338 3036 10347 2923 10428C 2744 10555 2689 10590 2672 10590C 2663 10590 2639 10592 2620 10594C 2601 10597 2419 10577 2215 10551z" stroke="none" fill="#FFC107" fill-rule="nonzero" />
            <path d="M9410 10534C 9248 10509 9111 10484 9105 10479C 9090 10464 9114 10449 9333 10339C 9449 10280 9548 10237 9573 10234C 9599 10230 9723 10245 9907 10274C 10068 10299 10204 10320 10208 10320C 10213 10320 10225 10326 10235 10334C 10253 10347 10236 10357 10030 10459C 9860 10542 9793 10570 9755 10574C 9724 10577 9593 10561 9410 10534z" stroke="none" fill="#FFC107" fill-rule="nonzero" />
            <path d="M4420 10505C 4052 10455 4050 10455 4050 10436C 4050 10428 4128 10371 4223 10309C 4392 10197 4396 10196 4460 10192C 4539 10188 5227 10282 5244 10300C 5258 10314 5257 10315 5050 10443L5050 10443L4885 10545L4815 10547C 4776 10548 4602 10530 4420 10505z" stroke="none" fill="#FFC107" fill-rule="nonzero" />
            <path d="M6563 10462C 6386 10436 6236 10410 6230 10404C 6215 10389 6229 10380 6443 10255C 6587 10171 6620 10156 6665 10152C 6699 10149 6838 10165 7042 10195C 7367 10243 7410 10252 7410 10269C 7410 10274 7319 10328 7209 10390C 7022 10494 7003 10503 6946 10506C 6909 10508 6757 10490 6563 10462z" stroke="none" fill="#FFC107" fill-rule="nonzero" />
            <path d="M1757 10463C 1746 10452 1749 10331 1770 10005C 1792 9652 1795 9634 1819 9594C 1835 9567 2118 9330 2134 9330C 2156 9330 2157 9405 2135 9771C 2116 10103 2110 10172 2094 10208C 2078 10242 2048 10270 1927 10360C 1779 10470 1769 10476 1757 10463z" stroke="none" fill="#FFC107" fill-rule="nonzero" />
            <path d="M8665 10425C 8329 10373 8330 10374 8330 10357C 8330 10342 8719 10133 8778 10117C 8815 10107 8862 10112 9151 10157C 9333 10185 9487 10213 9493 10219C 9508 10234 9498 10241 9266 10357C 9103 10439 9052 10460 9009 10464C 8974 10467 8853 10453 8665 10425z" stroke="none" fill="#FFC107" fill-rule="nonzero" />
            <path d="M3540 10389C 3339 10362 3164 10336 3151 10330C 3133 10322 3131 10316 3139 10306C 3145 10299 3222 10242 3311 10180C 3461 10075 3475 10068 3528 10063C 3588 10058 4294 10151 4338 10170C 4350 10175 4360 10184 4360 10189C 4360 10207 4017 10423 3976 10431C 3923 10441 3958 10445 3540 10389z" stroke="none" fill="#FFC107" fill-rule="nonzero" />
            <path d="M5710 10344C 5506 10314 5390 10294 5381 10285C 5373 10277 5368 10269 5371 10266C 5373 10264 5456 10211 5555 10150C 5682 10070 5749 10035 5785 10028C 5828 10019 5883 10024 6185 10069C 6522 10118 6580 10130 6580 10148C 6580 10152 6493 10207 6388 10270L6388 10270L6195 10384L6110 10386C 6052 10388 5925 10374 5710 10344z" stroke="none" fill="#FFC107" fill-rule="nonzero" />
            <path d="M7851 10304C 7577 10263 7523 10250 7535 10230C 7538 10225 7631 10171 7743 10109C 7941 9998 7946 9995 8015 9992C 8097 9989 8693 10079 8712 10098C 8720 10106 8720 10113 8714 10119C 8709 10124 8615 10177 8505 10236L8505 10236L8305 10344L8225 10347C 8171 10348 8051 10335 7851 10304z" stroke="none" fill="#FFC107" fill-rule="nonzero" />
            <path d="M2630 10270C 2199 10212 2205 10213 2191 10196C 2181 10185 2209 10160 2333 10067C 2418 10004 2497 9947 2508 9941C 2519 9935 2555 9930 2587 9929C 2652 9928 3373 10025 3408 10040C 3420 10045 3430 10055 3430 10062C 3429 10073 3162 10267 3106 10296C 3059 10321 2988 10317 2630 10270z" stroke="none" fill="#FFC107" fill-rule="nonzero" />
            <path d="M9923 10266C 9774 10242 9645 10218 9636 10213C 9628 10209 9624 10200 9628 10194C 9632 10188 9734 10133 9855 10071C 10018 9988 10088 9958 10125 9954C 10160 9950 10265 9964 10479 10000C 10646 10028 10787 10053 10791 10056C 10796 10059 10800 10066 10800 10071C 10800 10076 10698 10131 10573 10193C 10349 10304 10345 10305 10271 10307C 10221 10308 10103 10294 9923 10266z" stroke="none" fill="#FFC107" fill-rule="nonzero" />
            <path d="M4890 10229C 4514 10177 4485 10171 4485 10150C 4485 10143 4567 10083 4667 10018C 4828 9912 4855 9898 4902 9893C 4954 9888 5636 9982 5688 10001C 5700 10006 5710 10015 5710 10022C 5709 10033 5443 10206 5356 10251C 5301 10280 5241 10277 4890 10229z" stroke="none" fill="#FFC107" fill-rule="nonzero" />
            <path d="M7380 10233C 7366 10231 7216 10209 7046 10184C 6755 10142 6700 10130 6700 10112C 6700 10108 6791 10050 6903 9985C 7157 9835 7117 9840 7565 9909C 7905 9962 7945 9974 7899 10003C 7798 10066 7506 10221 7479 10226C 7418 10236 7405 10237 7380 10233z" stroke="none" fill="#FFC107" fill-rule="nonzero" />
            <path d="M9175 10149C 9005 10121 8861 10095 8855 10089C 8849 10083 8851 10075 8860 10066C 8892 10036 9297 9830 9336 9824C 9379 9818 9979 9910 10029 9931C 10050 9940 10051 9943 10039 9955C 10031 9962 9928 10018 9810 10079C 9634 10169 9585 10190 9540 10194C 9502 10198 9390 10184 9175 10149z" stroke="none" fill="#FFC107" fill-rule="nonzero" />
            <path d="M2134 10165C 2127 10148 2167 9370 2177 9341C 2197 9278 2213 9260 2362 9139C 2450 9068 2525 9010 2530 9010C 2558 9010 2559 9059 2539 9446C 2525 9733 2515 9858 2504 9892C 2490 9935 2477 9947 2333 10056C 2247 10120 2168 10175 2158 10178C 2147 10180 2138 10176 2134 10165z" stroke="none" fill="#FFC107" fill-rule="nonzero" />
            <path d="M3950 10099C 3760 10072 3595 10046 3583 10040C 3570 10035 3560 10025 3560 10018C 3560 10011 3638 9951 3732 9886C 3861 9796 3916 9764 3950 9757C 3988 9750 4070 9759 4386 9805C 4600 9836 4783 9866 4793 9871C 4802 9877 4810 9885 4810 9890C 4810 9902 4490 10117 4444 10136C 4394 10157 4326 10152 3950 10099z" stroke="none" fill="#FFC107" fill-rule="nonzero" />
            <path d="M1114 10099C 1104 10083 1108 10010 1134 9665C 1152 9419 1161 9346 1176 9313C 1200 9259 1442 9045 1467 9054C 1485 9061 1486 9016 1450 9542C 1438 9718 1425 9831 1416 9852C 1409 9870 1387 9899 1369 9916C 1320 9961 1134 10110 1127 10110C 1124 10110 1118 10105 1114 10099z" stroke="none" fill="#FFC107" fill-rule="nonzero" />
            <path d="M6195 10060C 6019 10034 5867 10009 5858 10005C 5848 10001 5840 9992 5840 9985C 5840 9973 6178 9758 6236 9734C 6255 9726 6287 9720 6309 9720C 6383 9720 7054 9830 7069 9844C 7085 9861 7090 9857 6835 10006L6835 10006L6665 10105L6590 10107C 6542 10108 6401 10092 6195 10060z" stroke="none" fill="#FFC107" fill-rule="nonzero" />
            <path d="M8390 10026C 8075 9976 8040 9968 8040 9950C 8040 9942 8387 9744 8462 9710C 8486 9699 8527 9690 8555 9690C 8606 9690 9247 9794 9257 9804C 9273 9819 9234 9846 9042 9948C 8905 10021 8813 10064 8779 10070C 8751 10076 8725 10079 8721 10079C 8718 10078 8569 10054 8390 10026z" stroke="none" fill="#FFC107" fill-rule="nonzero" />
            <path d="M10488 9991C 10330 9964 10196 9939 10190 9935C 10185 9932 10180 9923 10180 9917C 10180 9910 10288 9850 10420 9783C 10644 9668 10663 9660 10716 9660C 10768 9660 11327 9752 11365 9767C 11374 9770 11379 9778 11378 9784C 11376 9790 11267 9848 11136 9914C 10922 10020 10891 10033 10836 10036C 10795 10038 10682 10024 10488 9991z" stroke="none" fill="#FFC107" fill-rule="nonzero" />
            <path d="M2991 9966C 2716 9926 2614 9908 2602 9896C 2583 9877 2570 9889 2750 9754C 2921 9626 2950 9610 3010 9610C 3063 9610 3814 9718 3848 9731C 3860 9736 3870 9745 3870 9753C 3870 9760 3790 9822 3693 9890L3693 9890L3516 10014L3440 10016C 3389 10018 3246 10002 2991 9966z" stroke="none" fill="#FFC107" fill-rule="nonzero" />
            <path d="M5680 9982C 5493 9959 4962 9876 4953 9868C 4946 9862 4940 9853 4940 9848C 4940 9843 5026 9783 5130 9714C 5307 9597 5325 9588 5378 9583C 5419 9579 5539 9594 5800 9635C 6151 9690 6200 9700 6200 9720C 6200 9725 6112 9783 6004 9850C 5842 9952 5800 9973 5757 9979C 5728 9982 5694 9984 5680 9982z" stroke="none" fill="#FFC107" fill-rule="nonzero" />
            <path d="M7552 9896C 7368 9866 7213 9837 7207 9831C 7191 9815 7201 9808 7437 9671C 7613 9568 7639 9556 7689 9552C 7761 9547 8419 9654 8439 9674C 8456 9691 8445 9699 8191 9840C 8022 9934 8003 9943 7946 9946C 7906 9948 7773 9931 7552 9896z" stroke="none" fill="#FFC107" fill-rule="nonzero" />
            <path d="M9738 9864C 9566 9835 9417 9809 9407 9805C 9397 9801 9391 9792 9393 9786C 9395 9780 9501 9719 9628 9652C 9830 9544 9866 9528 9917 9523C 9960 9520 10058 9533 10290 9575C 10463 9605 10609 9635 10613 9639C 10618 9644 10619 9653 10616 9658C 10613 9664 10508 9721 10383 9785C 10216 9871 10142 9904 10104 9909C 10063 9915 9983 9905 9738 9864z" stroke="none" fill="#FFC107" fill-rule="nonzero" />
            <path d="M2543 9868C 2534 9852 2535 9790 2555 9375C 2573 9014 2580 8973 2633 8923C 2702 8858 2942 8670 2956 8670C 2981 8670 2983 8718 2971 9028C 2953 9461 2946 9553 2924 9595C 2911 9618 2850 9670 2738 9755C 2646 9824 2566 9880 2561 9880C 2556 9880 2548 9874 2543 9868z" stroke="none" fill="#FFC107" fill-rule="nonzero" />
            <path d="M4385 9794C 4016 9739 3977 9728 4010 9696C 4018 9688 4103 9627 4198 9561C 4338 9465 4381 9440 4418 9434C 4453 9429 4564 9442 4858 9488C 5074 9522 5259 9554 5270 9560C 5281 9566 5287 9576 5284 9583C 5281 9589 5193 9651 5087 9720L5087 9720L4895 9845L4820 9847C 4771 9848 4620 9830 4385 9794z" stroke="none" fill="#FFC107" fill-rule="nonzero" />
            <path d="M1450 9763C 1450 9683 1487 9133 1496 9075C 1500 9053 1509 9023 1516 9008C 1533 8975 1800 8738 1815 8743C 1833 8749 1832 8852 1810 9183C 1788 9518 1786 9538 1764 9582C 1749 9612 1485 9830 1463 9830C 1454 9830 1450 9812 1450 9763z" stroke="none" fill="#FFC107" fill-rule="nonzero" />
            <path d="M6700 9763C 6352 9707 6309 9696 6340 9666C 6348 9659 6440 9600 6545 9535C 6679 9452 6749 9415 6785 9408C 6829 9398 6878 9404 7204 9459C 7408 9493 7580 9526 7587 9532C 7597 9540 7597 9546 7590 9555C 7570 9579 7179 9802 7142 9811C 7087 9824 7074 9822 6700 9763z" stroke="none" fill="#FFC107" fill-rule="nonzero" />
            <path d="M8898 9727C 8730 9698 8588 9672 8585 9668C 8567 9651 8601 9628 8811 9510C 9093 9353 9054 9357 9485 9434C 9656 9464 9803 9492 9813 9495C 9854 9512 9837 9524 9570 9666L9570 9666L9365 9775L9285 9777C 9226 9779 9123 9765 8898 9727z" stroke="none" fill="#FFC107" fill-rule="nonzero" />
            <path d="M11055 9699C 10907 9672 10773 9645 10758 9639C 10697 9614 10691 9592 10648 9182C 10606 8776 10606 8756 10655 8744C 10691 8735 11238 8846 11270 8869C 11322 8907 11328 8930 11370 9284C 11416 9671 11418 9710 11392 9733C 11368 9755 11368 9755 11055 9699z" stroke="none" fill="#FFC107" fill-rule="nonzero" />
            <path d="M3440 9655C 3044 9595 3025 9591 3025 9568C 3025 9550 3341 9307 3386 9290C 3400 9284 3436 9280 3466 9280C 3534 9280 4283 9396 4311 9410C 4321 9416 4330 9426 4330 9433C 4330 9445 4009 9675 3961 9697C 3915 9718 3803 9709 3440 9655z" stroke="none" fill="#FFC107" fill-rule="nonzero" />
            <path d="M6045 9660C 5985 9650 5829 9626 5700 9606C 5454 9568 5420 9559 5420 9536C 5420 9529 5510 9464 5621 9392C 5778 9289 5832 9259 5868 9254C 5904 9248 6004 9261 6298 9310C 6508 9345 6688 9378 6697 9385C 6706 9392 6710 9402 6707 9407C 6696 9425 6311 9661 6277 9671C 6232 9684 6172 9681 6045 9660z" stroke="none" fill="#FFC107" fill-rule="nonzero" />
            <path d="M8095 9594C 7767 9539 7725 9529 7733 9507C 7735 9501 7835 9437 7956 9365C 8233 9201 8191 9206 8635 9285C 8811 9316 8965 9344 8978 9347C 9032 9360 9001 9386 8788 9505C 8672 9570 8561 9629 8541 9636C 8485 9656 8438 9652 8095 9594z" stroke="none" fill="#FFC107" fill-rule="nonzero" />
            <path d="M10335 9574C 9984 9511 9984 9511 9954 9488C 9940 9476 9922 9452 9914 9435C 9899 9399 9837 8737 9842 8664C 9844 8627 9850 8613 9870 8599C 9894 8582 9902 8583 10200 8642C 10394 8681 10514 8709 10531 8721C 10578 8754 10587 8797 10625 9165C 10644 9358 10660 9528 10660 9543C 10660 9572 10621 9621 10598 9619C 10591 9618 10473 9598 10335 9574z" stroke="none" fill="#FFC107" fill-rule="nonzero" />
            <path d="M2979 9544C 2964 9526 2965 9448 2984 8998C 2996 8724 3001 8676 3018 8637C 3034 8600 3068 8568 3211 8451C 3307 8374 3393 8310 3402 8310C 3413 8310 3422 8320 3426 8337C 3430 8351 3426 8552 3418 8784C 3405 9160 3401 9209 3384 9245C 3369 9276 3328 9313 3195 9413C 2991 9567 2996 9564 2979 9544z" stroke="none" fill="#FFC107" fill-rule="nonzero" />
            <path d="M1811 9522C 1796 9495 1845 8767 1865 8715C 1876 8684 1912 8647 2017 8555C 2194 8400 2187 8405 2199 8429C 2216 8460 2173 9191 2151 9250C 2137 9289 2114 9312 1985 9418C 1903 9485 1832 9540 1828 9540C 1824 9540 1816 9532 1811 9522z" stroke="none" fill="#FFC107" fill-rule="nonzero" />
            <path d="M4885 9479C 4517 9421 4456 9407 4463 9386C 4469 9367 4843 9110 4880 9100C 4899 9095 4927 9090 4942 9090C 4975 9090 5738 9216 5763 9225C 5804 9241 5776 9268 5589 9390C 5394 9518 5352 9539 5290 9538C 5271 9538 5089 9512 4885 9479z" stroke="none" fill="#FFC107" fill-rule="nonzero" />
            <path d="M7215 9449C 7023 9416 6860 9384 6853 9377C 6846 9370 6844 9360 6848 9354C 6858 9339 7239 9103 7283 9085C 7339 9062 7390 9066 7728 9125C 8108 9191 8137 9198 8144 9216C 8150 9232 8148 9234 7884 9389C 7704 9494 7689 9501 7629 9505C 7581 9508 7476 9494 7215 9449z" stroke="none" fill="#FFC107" fill-rule="nonzero" />
            <path d="M9475 9423C 9258 9384 9157 9362 9139 9349C 9088 9313 9083 9287 9055 8908C 9025 8493 9025 8465 9060 8438C 9085 8420 9089 8421 9409 8485C 9587 8520 9740 8555 9749 8562C 9779 8586 9799 8615 9806 8644C 9809 8660 9827 8837 9845 9039C 9879 9419 9878 9450 9840 9470C 9815 9483 9826 9485 9475 9423z" stroke="none" fill="#FFC107" fill-rule="nonzero" />
            <path d="M3897 9326C 3679 9291 3493 9257 3485 9250C 3477 9243 3470 9232 3470 9226C 3470 9220 3514 9184 3566 9145C 3619 9107 3664 9071 3668 9065C 3674 9055 3664 9062 3536 9158C 3498 9187 3461 9210 3453 9210C 3422 9210 3420 9160 3435 8739C 3449 8338 3451 8316 3472 8270C 3492 8228 3523 8199 3683 8070C 3796 7978 3877 7920 3885 7924C 3893 7927 3902 7941 3906 7956C 3910 7970 3908 8173 3902 8405C 3892 8803 3890 8831 3870 8877C 3859 8903 3837 8935 3822 8948L3822 8948L3795 8970L3832 8950C 3858 8935 3887 8929 3932 8928C 4004 8928 4766 9052 4799 9070C 4811 9076 4819 9087 4817 9093C 4813 9105 4488 9338 4438 9366C 4380 9397 4309 9391 3897 9326zM3701 9043C 3714 9027 3713 9026 3698 9039C 3688 9046 3680 9054 3680 9056C 3680 9064 3688 9059 3701 9043zM3741 9013C 3754 8997 3753 8996 3738 9009C 3728 9016 3720 9024 3720 9026C 3720 9034 3728 9029 3741 9013zM3781 8983C 3794 8967 3793 8966 3778 8979C 3761 8992 3756 9000 3764 9000C 3766 9000 3774 8992 3781 8983z" stroke="none" fill="#FFC107" fill-rule="nonzero" />
            <path d="M6315 9300C 6123 9268 5956 9237 5943 9231C 5930 9225 5920 9215 5920 9208C 5920 9195 6311 8933 6354 8917C 6391 8902 6492 8907 6613 8930C 6678 8942 6736 8950 6742 8948C 6748 8946 6692 8933 6617 8921C 6541 8908 6468 8890 6451 8879C 6387 8840 6386 8838 6377 8377C 6369 8007 6370 7957 6383 7936C 6415 7887 6429 7888 6819 7966C 7022 8007 7193 8046 7207 8055C 7261 8091 7267 8128 7280 8480C 7298 8996 7299 8964 7271 8994C 7239 9028 7223 9028 6979 8984C 6869 8965 6774 8950 6768 8952C 6762 8954 6858 8973 6981 8994C 7187 9030 7250 9047 7250 9069C 7250 9079 6856 9325 6806 9345C 6751 9368 6692 9363 6315 9300z" stroke="none" fill="#FFC107" fill-rule="nonzero" />
            <path d="M8685 9284C 8553 9260 8414 9236 8377 9229C 8296 9216 8246 9179 8230 9122C 8225 9101 8211 8912 8199 8701C 8179 8326 8179 8316 8197 8292C 8207 8278 8224 8264 8235 8260C 8261 8251 8910 8381 8942 8402C 8992 8435 8998 8466 9025 8828C 9056 9252 9056 9284 9030 9310C 9002 9338 8967 9335 8685 9284z" stroke="none" fill="#FFC107" fill-rule="nonzero" />
            <path d="M1175 9227C 1164 9185 1219 8523 1236 8479C 1257 8428 1503 8195 1526 8204C 1541 8210 1542 8223 1536 8303C 1532 8353 1521 8519 1510 8672C 1495 8903 1488 8954 1472 8987C 1455 9019 1220 9237 1189 9248C 1185 9250 1178 9240 1175 9227z" stroke="none" fill="#FFC107" fill-rule="nonzero" />
            <path d="M2187 9208C 2177 9171 2220 8459 2236 8403C 2249 8354 2259 8344 2398 8223C 2479 8153 2553 8089 2563 8081C 2602 8050 2604 8073 2591 8392C 2572 8824 2566 8899 2544 8943C 2531 8968 2473 9022 2370 9105C 2285 9174 2210 9230 2204 9230C 2198 9230 2190 9220 2187 9208z" stroke="none" fill="#FFC107" fill-rule="nonzero" />
            <path d="M5470 9160C 5313 9133 5139 9104 5082 9094C 4966 9074 4938 9061 4959 9036C 4967 9027 5060 8959 5166 8885C 5374 8740 5408 8725 5503 8735C 5544 8738 5548 8738 5523 8731C 5477 8719 5442 8694 5420 8657C 5401 8627 5400 8604 5400 8195C 5400 7816 5402 7762 5416 7742C 5449 7694 5458 7695 5868 7776C 6197 7842 6257 7857 6282 7878C 6339 7927 6339 7923 6346 8378L6346 8378L6353 8798L6321 8830C 6292 8860 6286 8861 6237 8856L6237 8856L6185 8850L6235 8863C 6296 8879 6312 8888 6308 8905C 6302 8929 5909 9183 5855 9197C 5789 9214 5797 9215 5470 9160zM6173 8843C 6166 8841 6152 8841 6143 8843C 6133 8846 6139 8848 6155 8848C 6172 8848 6179 8846 6173 8843zM6095 8830C 6079 8826 6054 8822 6040 8822C 6018 8822 6018 8823 6045 8830C 6062 8834 6086 8838 6100 8838C 6122 8838 6122 8837 6095 8830zM6003 8813C 5996 8811 5982 8811 5973 8813C 5963 8816 5969 8818 5985 8818C 6002 8818 6009 8816 6003 8813zM5890 8794C 5854 8787 5816 8781 5805 8782C 5778 8783 5898 8808 5930 8808C 5944 8808 5926 8802 5890 8794zM5773 8773C 5766 8771 5752 8771 5743 8773C 5733 8776 5739 8778 5755 8778C 5772 8778 5779 8776 5773 8773zM5695 8760C 5679 8756 5654 8752 5640 8752C 5618 8752 5618 8753 5645 8760C 5662 8764 5686 8768 5700 8768C 5722 8768 5722 8767 5695 8760zM5603 8743C 5596 8741 5582 8741 5573 8743C 5563 8746 5569 8748 5585 8748C 5602 8748 5609 8746 5603 8743z" stroke="none" fill="#FFC107" fill-rule="nonzero" />
            <path d="M7745 9120C 7403 9059 7389 9054 7346 8997C 7327 8971 7325 8943 7311 8567C 7303 8346 7300 8153 7303 8138C 7307 8123 7322 8103 7337 8093C 7362 8076 7374 8078 7709 8144C 7899 8182 8067 8219 8082 8226C 8096 8234 8118 8255 8130 8275C 8150 8307 8153 8337 8171 8638C 8199 9128 8199 9124 8170 9155C 8153 9173 8137 9180 8111 9179C 8091 9179 7927 9152 7745 9120z" stroke="none" fill="#FFC107" fill-rule="nonzero" />
            <path d="M4384 8979C 4163 8942 3973 8907 3961 8901C 3950 8894 3940 8884 3940 8877C 3941 8870 4020 8807 4116 8735C 4213 8664 4294 8601 4298 8595C 4301 8590 4297 8590 4289 8596C 4176 8684 3947 8850 3939 8850C 3910 8850 3908 8798 3919 8374C 3925 8138 3934 7929 3940 7909C 3956 7853 3977 7832 4168 7677C 4380 7505 4384 7502 4402 7518C 4411 7525 4421 7526 4430 7520C 4438 7514 4461 7510 4480 7510C 4540 7510 5260 7658 5293 7677C 5309 7687 5331 7711 5341 7730C 5359 7762 5360 7794 5360 8183C 5360 8640 5359 8645 5302 8669C 5278 8679 5215 8671 4871 8611C 4481 8542 4444 8534 4408 8503C 4393 8490 4390 8491 4380 8512C 4373 8525 4354 8547 4336 8562L4336 8562L4305 8590L4339 8573C 4361 8563 4397 8557 4439 8558C 4514 8559 5275 8691 5308 8709C 5320 8715 5330 8726 5330 8733C 5330 8740 5238 8809 5125 8888C 4950 9010 4913 9032 4868 9039C 4800 9051 4847 9057 4384 8979z" stroke="none" fill="#FFC107" fill-rule="nonzero" />
            <path d="M1513 8933C 1502 8905 1550 8235 1566 8181C 1578 8139 1597 8117 1722 8002C 1800 7929 1867 7870 1871 7870C 1890 7870 1890 7931 1869 8255C 1854 8498 1842 8620 1831 8655C 1817 8699 1800 8718 1676 8827C 1599 8895 1532 8950 1528 8950C 1523 8950 1516 8942 1513 8933z" stroke="none" fill="#FFC107" fill-rule="nonzero" />
            <path d="M2586 8884C 2580 8869 2598 8442 2615 8171C 2625 8027 2629 8021 2818 7855C 2910 7775 2990 7710 2997 7710C 3020 7710 3022 7757 3010 8052C 2994 8463 2986 8563 2964 8604C 2943 8643 2635 8899 2609 8900C 2600 8900 2589 8893 2586 8884z" stroke="none" fill="#FFC107" fill-rule="nonzero" />
            <path d="M10990 8774C 10872 8750 10751 8725 10722 8719C 10665 8708 10614 8671 10599 8631C 10588 8602 10520 7983 10520 7910C 10520 7875 10525 7858 10540 7845C 10560 7827 10567 7828 10852 7891C 11154 7957 11182 7967 11212 8023C 11230 8057 11309 8751 11298 8780C 11279 8831 11269 8831 10990 8774z" stroke="none" fill="#FFC107" fill-rule="nonzero" />
            <path d="M10175 8610C 9900 8553 9884 8549 9858 8521C 9843 8504 9826 8474 9821 8453C 9815 8432 9797 8258 9780 8066C 9753 7747 9752 7714 9766 7693C 9774 7680 9788 7666 9796 7663C 9805 7660 9947 7688 10113 7725C 10374 7783 10419 7796 10444 7819C 10459 7833 10476 7856 10482 7870C 10492 7898 10560 8519 10560 8591C 10560 8645 10539 8670 10494 8669C 10478 8669 10335 8642 10175 8610z" stroke="none" fill="#FFC107" fill-rule="nonzero" />
            <path d="M1864 8616C 1859 8594 1894 7979 1906 7895C 1909 7873 1919 7841 1928 7824C 1946 7791 2221 7530 2238 7530C 2243 7530 2251 7537 2254 7546C 2266 7576 2221 8281 2204 8332C 2191 8372 2170 8395 2040 8509C 1958 8581 1886 8640 1881 8640C 1875 8640 1868 8629 1864 8616z" stroke="none" fill="#FFC107" fill-rule="nonzero" />
            <path d="M3014 8533C 3010 8518 3012 8341 3019 8140C 3031 7781 3042 7684 3073 7641C 3079 7631 3163 7555 3258 7471C 3398 7349 3435 7321 3446 7331C 3464 7345 3464 7472 3449 7875C 3441 8094 3434 8177 3422 8215C 3406 8262 3393 8275 3225 8412C 3126 8493 3039 8559 3033 8560C 3026 8560 3017 8548 3014 8533z" stroke="none" fill="#FFC107" fill-rule="nonzero" />
            <path d="M9401 8454C 9067 8386 9058 8383 9025 8319C 9010 8291 8956 7636 8962 7559C 8964 7528 8972 7512 8991 7498C 9016 7479 9016 7479 9331 7549C 9521 7592 9655 7627 9670 7638C 9720 7675 9727 7705 9759 8070C 9776 8260 9790 8428 9790 8443C 9790 8472 9751 8521 9728 8519C 9721 8518 9574 8489 9401 8454z" stroke="none" fill="#FFC107" fill-rule="nonzero" />
            <path d="M1236 8395C 1229 8374 1278 7735 1291 7685C 1300 7653 1330 7616 1438 7508C 1513 7432 1577 7370 1581 7370C 1598 7370 1599 7415 1585 7608C 1577 7722 1568 7849 1565 7890C 1554 8044 1547 8096 1533 8132C 1523 8156 1475 8209 1389 8289C 1318 8356 1256 8410 1251 8410C 1246 8410 1240 8403 1236 8395z" stroke="none" fill="#FFC107" fill-rule="nonzero" />
            <path d="M8560 8286C 8392 8252 8245 8217 8232 8209C 8219 8201 8200 8180 8188 8162C 8170 8132 8166 8093 8147 7746C 8124 7328 8125 7317 8177 7304C 8215 7294 8835 7433 8870 7459C 8927 7500 8929 7511 8958 7914C 8989 8350 8990 8344 8910 8347C 8885 8348 8728 8320 8560 8286z" stroke="none" fill="#FFC107" fill-rule="nonzero" />
            <path d="M2237 8291C 2228 8255 2271 7567 2286 7514C 2299 7466 2312 7451 2457 7316C 2544 7236 2620 7170 2626 7170C 2649 7170 2651 7209 2640 7407C 2634 7516 2625 7684 2621 7780C 2615 7903 2607 7967 2595 7996C 2582 8029 2544 8068 2423 8174C 2337 8249 2261 8310 2255 8310C 2248 8310 2240 8301 2237 8291z" stroke="none" fill="#FFC107" fill-rule="nonzero" />
            <path d="M3464 8164C 3457 8135 3467 7640 3479 7440C 3484 7356 3493 7303 3504 7279C 3523 7238 3879 6920 3905 6920C 3914 6920 3924 6930 3929 6943C 3936 6962 3928 7495 3917 7720C 3911 7849 3900 7864 3685 8038C 3582 8122 3492 8190 3484 8190C 3477 8190 3467 8178 3464 8164z" stroke="none" fill="#FFC107" fill-rule="nonzero" />
            <path d="M7694 8112C 7506 8073 7363 8038 7347 8027C 7290 7990 7288 7977 7272 7558C 7260 7263 7259 7164 7268 7145C 7292 7093 7306 7094 7668 7176C 7853 7217 8018 7259 8034 7268C 8094 7303 8097 7320 8121 7739C 8142 8120 8142 8123 8123 8149C 8107 8169 8094 8175 8059 8177C 8035 8178 7871 8149 7694 8112z" stroke="none" fill="#FFC107" fill-rule="nonzero" />
            <path d="M1577 8093C 1573 8090 1570 8059 1570 8026C 1570 7917 1609 7400 1621 7357C 1630 7323 1658 7288 1776 7170C 1891 7054 1922 7028 1932 7038C 1952 7058 1907 7746 1882 7803C 1869 7832 1820 7885 1728 7973C 1653 8043 1590 8100 1588 8100C 1585 8100 1580 8097 1577 8093z" stroke="none" fill="#FFC107" fill-rule="nonzero" />
            <path d="M6813 7934C 6609 7893 6440 7854 6426 7845C 6412 7836 6392 7810 6381 7787C 6363 7748 6361 7713 6355 7348L6355 7348L6348 6951L6374 6925C 6388 6911 6409 6900 6422 6900C 6477 6901 7143 7058 7168 7077C 7225 7118 7228 7134 7244 7547C 7253 7773 7256 7939 7251 7953C 7241 7980 7223 7995 7195 8002C 7184 8004 7012 7974 6813 7934z" stroke="none" fill="#FFC107" fill-rule="nonzero" />
            <path d="M2640 7955C 2621 7933 2654 7218 2676 7148C 2689 7107 2714 7079 2846 6953C 2932 6871 3011 6801 3022 6796C 3056 6780 3061 6805 3055 6955C 3036 7456 3028 7578 3014 7622C 3000 7664 2981 7685 2842 7806C 2756 7882 2678 7949 2669 7957C 2655 7968 2651 7968 2640 7955z" stroke="none" fill="#FFC107" fill-rule="nonzero" />
            <path d="M10845 7864C 10573 7802 10564 7799 10533 7766C 10516 7747 10499 7717 10495 7698C 10492 7680 10474 7519 10456 7340C 10418 6982 10419 6968 10474 6962C 10512 6957 11038 7088 11067 7109C 11113 7143 11119 7170 11160 7512C 11182 7695 11200 7855 11200 7868C 11200 7895 11167 7930 11143 7929C 11133 7929 10999 7899 10845 7864z" stroke="none" fill="#FFC107" fill-rule="nonzero" />
            <path d="M5869 7746C 5673 7706 5498 7668 5481 7660C 5463 7653 5438 7631 5424 7611L5424 7611L5400 7575L5400 7157L5400 6739L5425 6715C 5439 6700 5461 6690 5478 6690C 5525 6690 6222 6850 6251 6867C 6266 6876 6287 6900 6299 6920C 6319 6955 6320 6977 6326 7347C 6330 7561 6330 7748 6326 7763C 6319 7791 6275 7821 6243 7819C 6233 7818 6065 7785 5869 7746z" stroke="none" fill="#FFC107" fill-rule="nonzero" />
            <path d="M3943 7783C 3934 7759 3934 7742 3944 7310C 3951 6978 3954 6929 3971 6884C 3989 6838 4010 6816 4190 6659C 4303 6560 4399 6484 4412 6482C 4425 6481 4455 6477 4480 6474C 4514 6470 4614 6489 4905 6555C 5318 6648 5323 6650 5356 6727C 5377 6777 5376 7529 5355 7570C 5337 7604 5312 7620 5275 7620C 5255 7620 4587 7490 4484 7465C 4473 7463 4452 7450 4437 7436L4437 7436L4411 7412L4393 7445C 4373 7482 3988 7800 3964 7800C 3956 7800 3946 7792 3943 7783z" stroke="none" fill="#FFC107" fill-rule="nonzero" />
            <path d="M1918 7748C 1916 7735 1924 7570 1936 7380C 1952 7120 1962 7025 1974 6995C 1993 6950 2027 6913 2182 6769C 2279 6678 2290 6671 2299 6688C 2311 6711 2276 7357 2259 7434C 2248 7478 2236 7494 2146 7580C 1932 7785 1926 7789 1918 7748z" stroke="none" fill="#FFC107" fill-rule="nonzero" />
            <path d="M10097 7695C 9944 7660 9808 7625 9795 7616C 9740 7580 9738 7569 9703 7191C 9669 6816 9669 6788 9711 6775C 9740 6765 10315 6908 10345 6932C 10359 6943 10377 6964 10385 6980C 10394 6997 10413 7139 10436 7359C 10470 7689 10472 7711 10456 7735C 10444 7754 10431 7760 10407 7759C 10390 7759 10250 7730 10097 7695z" stroke="none" fill="#FFC107" fill-rule="nonzero" />
            <path d="M1297 7586C 1294 7578 1303 7424 1316 7243C 1335 7001 1346 6905 1358 6878C 1382 6825 1630 6566 1643 6579C 1656 6592 1616 7234 1598 7295C 1589 7326 1557 7365 1454 7468C 1381 7540 1317 7600 1312 7600C 1306 7600 1300 7594 1297 7586z" stroke="none" fill="#FFC107" fill-rule="nonzero" />
            <path d="M3054 7589C 3045 7574 3048 7409 3064 7065C 3075 6830 3080 6778 3096 6743C 3109 6713 3165 6654 3287 6540C 3382 6452 3465 6380 3470 6380C 3493 6380 3496 6438 3488 6705C 3477 7097 3467 7217 3444 7262C 3426 7297 3090 7600 3070 7600C 3065 7600 3058 7595 3054 7589z" stroke="none" fill="#FFC107" fill-rule="nonzero" />
            <path d="M9316 7520C 9002 7448 8987 7442 8955 7380C 8946 7363 8932 7224 8915 6992C 8890 6656 8889 6628 8904 6605C 8916 6588 8930 6580 8950 6580C 8988 6580 9533 6715 9577 6735C 9639 6763 9645 6790 9680 7177C 9712 7538 9712 7558 9676 7582C 9656 7595 9620 7589 9316 7520z" stroke="none" fill="#FFC107" fill-rule="nonzero" />
            <path d="M2292 7413C 2280 7391 2315 6718 2331 6655C 2340 6623 2373 6584 2503 6453C 2636 6318 2666 6293 2678 6303C 2694 6316 2693 6342 2669 6815C 2654 7114 2660 7099 2488 7261C 2290 7446 2304 7436 2292 7413z" stroke="none" fill="#FFC107" fill-rule="nonzero" />
            <path d="M8675 7375C 8598 7357 8459 7325 8365 7304C 8205 7269 8193 7264 8158 7230C 8135 7208 8120 7181 8116 7160C 8113 7141 8102 6972 8091 6785C 8070 6394 8071 6381 8141 6380C 8182 6380 8780 6529 8806 6546C 8857 6580 8866 6623 8890 6961C 8919 7375 8919 7369 8891 7392C 8861 7416 8841 7414 8675 7375z" stroke="none" fill="#FFC107" fill-rule="nonzero" />
            <path d="M1625 7258C 1614 7230 1668 6574 1684 6537C 1699 6499 1952 6228 1976 6222C 1995 6217 1994 6296 1971 6645C 1958 6849 1948 6936 1936 6965C 1918 7008 1666 7270 1642 7270C 1635 7270 1627 7264 1625 7258z" stroke="none" fill="#FFC107" fill-rule="nonzero" />
            <path d="M7651 7144C 7308 7066 7297 7062 7264 6998C 7244 6959 7214 6249 7231 6209C 7253 6154 7269 6155 7630 6245C 7830 6295 7973 6336 7989 6347C 8042 6386 8047 6412 8065 6740C 8088 7180 8088 7174 8066 7199C 8053 7213 8036 7220 8011 7219C 7991 7218 7829 7185 7651 7144z" stroke="none" fill="#FFC107" fill-rule="nonzero" />
            <path d="M3494 7184C 3490 7169 3493 6988 3499 6782C 3513 6387 3519 6333 3563 6286C 3614 6231 3920 5950 3929 5950C 3959 5950 3961 5994 3951 6383C 3945 6598 3936 6789 3931 6807C 3926 6825 3914 6852 3905 6867C 3885 6900 3539 7203 3516 7208C 3506 7210 3498 7201 3494 7184z" stroke="none" fill="#FFC107" fill-rule="nonzero" />
            <path d="M10753 6997C 10447 6919 10429 6910 10410 6841C 10398 6799 10340 6256 10340 6188C 10340 6141 10358 6110 10384 6110C 10419 6110 10958 6264 10974 6278C 11014 6315 11023 6356 11061 6675C 11082 6851 11100 7003 11100 7013C 11100 7033 11066 7070 11048 7069C 11041 7069 10908 7036 10753 6997z" stroke="none" fill="#FFC107" fill-rule="nonzero" />
            <path d="M2681 7047C 2673 7036 2674 6944 2688 6664C 2705 6339 2710 6289 2727 6250C 2741 6219 2798 6155 2910 6045C 3065 5892 3072 5886 3086 5905C 3098 5921 3100 5943 3096 6010C 3092 6057 3085 6217 3080 6365C 3068 6659 3066 6678 3039 6730C 3024 6759 2725 7049 2701 7058C 2696 7059 2688 7054 2681 7047z" stroke="none" fill="#FFC107" fill-rule="nonzero" />
            <path d="M6785 6949C 6573 6901 6425 6862 6411 6852C 6397 6842 6377 6821 6366 6806C 6346 6780 6345 6760 6337 6393C 6330 6094 6331 6002 6341 5984C 6367 5934 6383 5936 6759 6030C 6952 6078 7121 6125 7135 6134C 7189 6170 7192 6186 7208 6589C 7223 6991 7223 6996 7173 7019C 7160 7025 7146 7030 7142 7029C 7138 7029 6978 6993 6785 6949z" stroke="none" fill="#FFC107" fill-rule="nonzero" />
            <path d="M1973 6913C 1970 6904 1976 6745 1988 6559C 2005 6277 2012 6213 2028 6178C 2040 6151 2103 6077 2193 5985C 2318 5855 2339 5838 2346 5855C 2358 5884 2321 6534 2304 6589C 2293 6626 2265 6660 2143 6782C 2062 6863 1992 6930 1987 6930C 1983 6930 1977 6923 1973 6913z" stroke="none" fill="#FFC107" fill-rule="nonzero" />
            <path d="M10020 6814C 9739 6743 9724 6738 9693 6706C 9676 6687 9659 6657 9656 6638C 9647 6582 9600 6038 9600 5989C 9600 5944 9620 5910 9647 5910C 9653 5910 9790 5946 9952 5990C 10217 6061 10248 6072 10272 6099C 10287 6116 10303 6146 10308 6167C 10314 6188 10332 6349 10350 6524L10350 6524L10383 6844L10356 6867C 10341 6880 10326 6890 10322 6889C 10318 6889 10182 6855 10020 6814z" stroke="none" fill="#FFC107" fill-rule="nonzero" />
            <path d="M1356 6805C 1345 6776 1398 6155 1414 6115C 1423 6095 1478 6026 1536 5962C 1699 5784 1689 5793 1700 5810C 1705 5818 1710 5839 1711 5855C 1712 5873 1716 5861 1721 5828C 1725 5796 1735 5759 1742 5746C 1763 5706 2021 5429 2031 5435C 2044 5444 2042 5550 2021 5856C 2005 6087 1999 6132 1982 6166C 1970 6187 1901 6268 1827 6345C 1711 6465 1691 6482 1684 6466C 1680 6455 1685 6324 1695 6173C 1705 6023 1711 5898 1708 5895C 1706 5893 1696 6013 1686 6163C 1676 6314 1662 6459 1654 6488C 1641 6535 1623 6558 1509 6678C 1437 6754 1375 6816 1371 6818C 1366 6820 1360 6814 1356 6805z" stroke="none" fill="#FFC107" fill-rule="nonzero" />
            <path d="M5845 6737C 5647 6692 5474 6647 5461 6638C 5448 6629 5429 6608 5419 6593C 5401 6567 5400 6537 5400 6167C 5400 5926 5404 5761 5410 5750C 5415 5740 5433 5727 5450 5722C 5476 5713 5533 5724 5840 5800C 6039 5850 6213 5896 6229 5904C 6283 5933 6294 5962 6301 6115C 6305 6192 6309 6372 6310 6515L6310 6515L6312 6775L6285 6797C 6271 6810 6247 6820 6232 6819C 6217 6819 6043 6782 5845 6737z" stroke="none" fill="#FFC107" fill-rule="nonzero" />
            <path d="M3970 6785C 3960 6773 3959 6691 3965 6398C 3972 6013 3978 5939 4008 5884C 4030 5843 4399 5500 4420 5500C 4429 5500 4451 5493 4469 5484C 4501 5468 4511 5470 4892 5565C 5312 5670 5327 5676 5356 5747C 5377 5796 5376 6519 5355 6559C 5326 6617 5316 6616 4903 6524C 4500 6434 4481 6429 4454 6399C 4431 6373 4426 6375 4412 6413C 4404 6436 4342 6496 4200 6620C 4090 6716 3996 6796 3991 6798C 3987 6799 3977 6794 3970 6785z" stroke="none" fill="#FFC107" fill-rule="nonzero" />
            <path d="M9256 6623C 9092 6582 8947 6542 8934 6534C 8882 6499 8874 6458 8849 6105C 8837 5924 8830 5762 8834 5747C 8847 5693 8864 5694 9195 5785C 9381 5835 9509 5875 9522 5887C 9565 5926 9571 5956 9600 6283C 9617 6460 9630 6617 9630 6633C 9630 6664 9598 6701 9573 6699C 9563 6698 9421 6664 9256 6623z" stroke="none" fill="#FFC107" fill-rule="nonzero" />
            <path d="M3086 6645C 3083 6632 3082 6590 3085 6553C 3088 6516 3095 6355 3101 6195C 3110 5956 3116 5896 3131 5855C 3147 5813 3177 5779 3326 5636C 3493 5475 3503 5467 3517 5486C 3527 5500 3530 5521 3526 5565C 3523 5598 3518 5740 3514 5880C 3507 6184 3499 6278 3474 6324C 3451 6365 3128 6670 3107 6670C 3099 6670 3089 6659 3086 6645z" stroke="none" fill="#FFC107" fill-rule="nonzero" />
            <path d="M2336 6554C 2327 6531 2368 5861 2381 5816C 2389 5787 2430 5736 2547 5613C 2633 5523 2708 5451 2714 5453C 2720 5455 2726 5477 2728 5503C 2733 5581 2701 6163 2689 6205C 2680 6237 2645 6279 2517 6408C 2428 6497 2353 6570 2349 6570C 2345 6570 2339 6563 2336 6554z" stroke="none" fill="#FFC107" fill-rule="nonzero" />
            <path d="M8455 6425C 8296 6384 8150 6344 8132 6336C 8068 6305 8062 6276 8041 5890C 8022 5546 8023 5518 8054 5498C 8060 5494 8074 5490 8085 5490C 8123 5489 8715 5654 8743 5672C 8795 5709 8799 5728 8826 6100C 8850 6425 8851 6452 8836 6475C 8823 6495 8811 6500 8782 6499C 8762 6499 8615 6465 8455 6425z" stroke="none" fill="#FFC107" fill-rule="nonzero" />
            <path d="M7617 6215C 7267 6127 7253 6121 7224 6054C 7215 6033 7207 5914 7199 5672C 7185 5295 7187 5276 7233 5265C 7248 5261 7384 5293 7591 5349C 7908 5435 7927 5442 7957 5474C 7974 5493 7991 5523 7994 5542C 8008 5622 8036 6226 8027 6253C 8017 6283 7992 6301 7963 6299C 7953 6299 7797 6261 7617 6215z" stroke="none" fill="#FFC107" fill-rule="nonzero" />
            <path d="M3523 6244C 3520 6236 3523 6064 3529 5862C 3538 5585 3545 5482 3556 5444C 3570 5398 3592 5373 3761 5204C 3935 5031 3952 5017 3966 5032C 3981 5047 3982 5085 3973 5437C 3964 5819 3964 5826 3940 5877C 3920 5917 3876 5964 3737 6094C 3640 6185 3553 6260 3545 6260C 3536 6260 3527 6253 3523 6244z" stroke="none" fill="#FFC107" fill-rule="nonzero" />
            <path d="M10655 6156C 10512 6116 10385 6079 10373 6072C 10326 6046 10314 5992 10280 5659C 10245 5312 10245 5300 10300 5300C 10343 5300 10840 5448 10870 5469C 10920 5505 10926 5532 10965 5863C 11007 6219 11006 6231 10948 6229C 10930 6229 10798 6196 10655 6156z" stroke="none" fill="#FFC107" fill-rule="nonzero" />
            <path d="M2718 6163C 2712 6139 2737 5584 2748 5495C 2753 5456 2765 5409 2774 5390C 2799 5338 3104 5025 3120 5035C 3130 5041 3131 5088 3126 5249C 3112 5658 3103 5784 3086 5825C 3066 5872 2765 6180 2739 6180C 2730 6180 2720 6172 2718 6163z" stroke="none" fill="#FFC107" fill-rule="nonzero" />
            <path d="M2023 6104C 2020 6095 2026 5939 2038 5759C 2055 5487 2062 5422 2078 5387C 2096 5349 2357 5050 2380 5042C 2385 5040 2392 5049 2395 5062C 2404 5098 2363 5730 2349 5773C 2340 5799 2293 5857 2196 5958C 2119 6039 2050 6109 2043 6113C 2034 6118 2027 6115 2023 6104z" stroke="none" fill="#FFC107" fill-rule="nonzero" />
            <path d="M6758 6001C 6568 5953 6400 5905 6385 5896C 6327 5858 6323 5829 6316 5442C 6309 5037 6310 5030 6385 5030C 6432 5030 7072 5207 7100 5228C 7152 5266 7158 5294 7169 5590C 7186 6015 7186 6039 7164 6060C 7153 6070 7136 6080 7125 6083C 7114 6086 6949 6049 6758 6001z" stroke="none" fill="#FFC107" fill-rule="nonzero" />
            <path d="M1414 6047C 1406 6024 1446 5474 1462 5406C 1471 5364 1492 5334 1598 5211C 1667 5131 1727 5061 1732 5055C 1737 5050 1744 5050 1751 5057C 1764 5070 1726 5650 1708 5720C 1696 5764 1645 5828 1478 6005C 1430 6056 1420 6062 1414 6047z" stroke="none" fill="#FFC107" fill-rule="nonzero" />
            <path d="M9932 5960C 9764 5914 9640 5874 9628 5863C 9585 5825 9579 5794 9549 5462C 9533 5283 9523 5128 9526 5118C 9540 5073 9559 5075 9853 5161C 10008 5206 10148 5249 10163 5257C 10215 5283 10227 5330 10260 5652C 10276 5815 10290 5962 10290 5978C 10290 6011 10263 6040 10234 6039C 10224 6039 10088 6003 9932 5960z" stroke="none" fill="#FFC107" fill-rule="nonzero" />
            <path d="M5825 5770L5475 5681L5438 5641L5400 5601L5400 5212L5400 4823L5423 4802C 5436 4790 5456 4780 5468 4780C 5509 4780 6195 4971 6220 4989C 6281 5033 6281 5038 6290 5433C 6294 5632 6294 5805 6289 5817C 6279 5845 6250 5860 6208 5859C 6190 5859 6018 5818 5825 5770z" stroke="none" fill="#FFC107" fill-rule="nonzero" />
            <path d="M9177 5755C 8857 5667 8839 5658 8820 5591C 8814 5571 8799 5413 8786 5240C 8761 4913 8762 4891 8801 4867C 8823 4853 9414 5026 9451 5058C 9466 5070 9483 5095 9489 5113C 9500 5147 9550 5678 9550 5760C 9550 5799 9546 5812 9528 5824C 9516 5833 9499 5840 9490 5839C 9482 5838 9341 5801 9177 5755z" stroke="none" fill="#FFC107" fill-rule="nonzero" />
            <path d="M3991 5816C 3982 5805 3982 5706 3989 5412C 3998 5044 3999 5020 4020 4972C 4038 4930 4080 4884 4232 4735C 4343 4626 4428 4550 4440 4550C 4450 4550 4461 4546 4465 4541C 4483 4512 4537 4522 4905 4622C 5309 4731 5328 4739 5356 4807C 5367 4832 5370 4919 5370 5205L5370 5205L5370 5572L5341 5601C 5325 5617 5302 5630 5291 5630C 5279 5630 5098 5587 4887 5534C 4558 5452 4501 5435 4476 5412C 4460 5397 4446 5390 4444 5395C 4426 5442 4380 5493 4213 5650C 4107 5749 4016 5830 4011 5830C 4006 5830 3997 5824 3991 5816z" stroke="none" fill="#FFC107" fill-rule="nonzero" />
            <path d="M3125 5757C 3121 5744 3125 5576 3133 5382C 3147 5035 3148 5030 3174 4978C 3211 4904 3524 4580 3542 4598C 3555 4611 3555 4715 3540 5101C 3533 5275 3525 5361 3515 5391C 3503 5425 3462 5473 3327 5608C 3233 5702 3150 5780 3143 5780C 3136 5780 3128 5770 3125 5757z" stroke="none" fill="#FFC107" fill-rule="nonzero" />
            <path d="M2384 5725C 2377 5708 2406 5114 2416 5050C 2425 4995 2447 4961 2548 4850C 2710 4671 2751 4630 2762 4637C 2773 4643 2770 4793 2750 5163C 2743 5303 2736 5350 2721 5385C 2709 5413 2648 5485 2555 5582C 2475 5666 2405 5736 2399 5738C 2394 5740 2387 5734 2384 5725z" stroke="none" fill="#FFC107" fill-rule="nonzero" />
            <path d="M1735 5690C 1726 5676 1768 5083 1782 5031C 1791 4997 1824 4952 1928 4831C 2002 4745 2069 4674 2076 4672C 2095 4667 2094 4709 2071 5055C 2059 5244 2048 5347 2038 5371C 2023 5405 1764 5700 1749 5700C 1745 5700 1738 5696 1735 5690z" stroke="none" fill="#FFC107" fill-rule="nonzero" />
            <path d="M8400 5544C 8232 5498 8084 5452 8070 5442C 8017 5404 8013 5378 7992 5025C 7982 4843 7977 4685 7982 4672C 8000 4620 8015 4622 8346 4719C 8516 4769 8666 4818 8680 4828C 8734 4868 8738 4887 8760 5187C 8790 5595 8790 5588 8761 5611C 8748 5621 8730 5630 8721 5629C 8712 5628 8568 5590 8400 5544z" stroke="none" fill="#FFC107" fill-rule="nonzero" />
            <path d="M10580 5351C 10440 5309 10315 5271 10302 5266C 10290 5262 10268 5242 10255 5222C 10233 5189 10228 5156 10201 4893C 10166 4567 10165 4539 10182 4522C 10205 4499 10193 4496 10622 4631C 10840 4700 10824 4674 10866 5028C 10909 5381 10910 5398 10885 5416C 10875 5424 10859 5429 10851 5429C 10842 5428 10720 5393 10580 5351z" stroke="none" fill="#FFC107" fill-rule="nonzero" />
            <path d="M7579 5321C 7405 5273 7251 5226 7237 5217C 7182 5181 7179 5164 7164 4792C 7149 4419 7150 4411 7199 4395C 7229 4386 7869 4576 7898 4603C 7944 4646 7948 4666 7964 4956C 7989 5389 7989 5369 7961 5391C 7948 5401 7928 5410 7916 5409C 7905 5408 7753 5369 7579 5321z" stroke="none" fill="#FFC107" fill-rule="nonzero" />
            <path d="M3553 5334C 3550 5325 3552 5159 3559 4965C 3567 4708 3574 4599 3585 4562C 3599 4517 3623 4487 3782 4320C 3890 4207 3971 4131 3980 4132C 3993 4135 3995 4179 3992 4500C 3990 4790 3986 4876 3974 4920C 3959 4971 3946 4988 3772 5163C 3670 5266 3580 5350 3573 5350C 3565 5350 3557 5343 3553 5334z" stroke="none" fill="#FFC107" fill-rule="nonzero" />
            <path d="M2767 5333C 2750 5316 2780 4670 2801 4600C 2811 4567 2851 4517 2972 4384C 3059 4289 3134 4209 3139 4205C 3164 4190 3168 4243 3159 4470C 3145 4825 3135 4941 3115 4979C 3099 5011 2793 5340 2780 5340C 2776 5340 2770 5337 2767 5333z" stroke="none" fill="#FFC107" fill-rule="nonzero" />
            <path d="M2074 5315C 2070 5306 2076 5156 2087 4982C 2102 4750 2112 4655 2124 4627C 2142 4582 2408 4270 2427 4270C 2444 4270 2444 4317 2424 4658C 2412 4860 2404 4946 2392 4977C 2381 5004 2325 5074 2236 5172C 2159 5256 2093 5326 2088 5328C 2084 5330 2077 5324 2074 5315z" stroke="none" fill="#FFC107" fill-rule="nonzero" />
            <path d="M1470 5258C 1470 5138 1510 4689 1524 4657C 1542 4613 1789 4318 1802 4326C 1808 4330 1809 4381 1806 4459L1806 4459L1801 4585L1810 4475C 1826 4278 1824 4283 1975 4099C 2049 4009 2114 3934 2120 3932C 2125 3930 2133 3935 2136 3943C 2145 3968 2102 4562 2088 4603C 2075 4639 1817 4950 1800 4950C 1785 4950 1782 4925 1786 4825L1786 4825L1789 4725L1779 4835C 1774 4896 1763 4963 1755 4986C 1741 5024 1504 5310 1480 5318C 1474 5320 1470 5296 1470 5258zM1797 4623C 1795 4602 1793 4617 1793 4655C 1793 4694 1795 4710 1797 4693C 1799 4675 1799 4643 1797 4623z" stroke="none" fill="#FFC107" fill-rule="nonzero" />
            <path d="M9845 5135C 9586 5058 9563 5050 9538 5019C 9504 4979 9506 4991 9474 4631C 9448 4325 9449 4298 9487 4286C 9497 4283 9633 4320 9790 4370C 10051 4451 10078 4462 10107 4494C 10145 4535 10142 4521 10180 4885C 10207 5145 10208 5176 10195 5197C 10185 5212 10170 5220 10152 5219C 10137 5219 9999 5181 9845 5135z" stroke="none" fill="#FFC107" fill-rule="nonzero" />
            <path d="M6718 5086C 6499 5026 6374 4987 6360 4975C 6309 4929 6307 4918 6299 4545C 6291 4167 6292 4157 6343 4145C 6365 4139 7000 4319 7052 4346C 7066 4354 7089 4374 7101 4392C 7123 4423 7125 4438 7137 4715C 7154 5130 7154 5136 7130 5160C 7119 5171 7098 5180 7083 5179C 7067 5179 6903 5137 6718 5086z" stroke="none" fill="#FFC107" fill-rule="nonzero" />
            <path d="M9112 4920C 8810 4830 8784 4818 8761 4762C 8746 4725 8701 4111 8711 4083C 8716 4071 8730 4058 8743 4055C 8772 4047 9332 4220 9370 4248C 9420 4285 9427 4317 9456 4654L9456 4654L9484 4973L9461 4991C 9448 5002 9430 5010 9421 5009C 9412 5008 9273 4968 9112 4920z" stroke="none" fill="#FFC107" fill-rule="nonzero" />
            <path d="M2431 4926C 2422 4915 2420 4890 2424 4838C 2428 4798 2437 4651 2445 4512C 2456 4307 2463 4252 2478 4217C 2489 4194 2548 4117 2610 4045C 2757 3875 2791 3840 2803 3847C 2813 3853 2808 4039 2789 4360C 2781 4491 2774 4545 2760 4575C 2750 4597 2683 4680 2610 4760C 2429 4960 2446 4944 2431 4926z" stroke="none" fill="#FFC107" fill-rule="nonzero" />
            <path d="M5830 4846C 5646 4795 5485 4748 5474 4742C 5462 4736 5440 4717 5426 4699L5426 4699L5400 4668L5400 4295C 5400 3891 5399 3898 5454 3884C 5468 3881 5618 3920 5834 3984C 6223 4098 6241 4106 6259 4180C 6264 4199 6271 4366 6274 4551C 6280 4880 6279 4888 6259 4914C 6243 4934 6230 4940 6202 4939C 6182 4938 6014 4896 5830 4846z" stroke="none" fill="#FFC107" fill-rule="nonzero" />
            <path d="M3164 4908C 3147 4881 3176 4233 3197 4167C 3209 4129 3245 4083 3378 3937C 3469 3837 3551 3755 3560 3755C 3573 3755 3575 3787 3572 4025C 3568 4355 3558 4495 3535 4539C 3518 4573 3193 4920 3179 4920C 3175 4920 3168 4915 3164 4908z" stroke="none" fill="#FFC107" fill-rule="nonzero" />
            <path d="M4011 4886C 4003 4876 4003 4777 4010 4509C 4020 4132 4023 4104 4047 4056C 4068 4015 4430 3640 4449 3640C 4458 3640 4474 3633 4484 3625C 4495 3617 4516 3610 4532 3610C 4574 3610 5271 3817 5299 3838C 5313 3848 5333 3869 5344 3884C 5364 3911 5365 3923 5365 4280C 5365 4628 5364 4649 5346 4669C 5334 4682 5315 4690 5294 4690C 5277 4690 5114 4650 4934 4601C 4753 4552 4586 4507 4563 4501C 4540 4495 4508 4476 4492 4460L4492 4460L4463 4431L4441 4480C 4425 4516 4372 4574 4230 4714C 4125 4816 4036 4900 4031 4900C 4026 4900 4017 4894 4011 4886z" stroke="none" fill="#FFC107" fill-rule="nonzero" />
            <path d="M8346 4695C 8192 4650 8052 4605 8035 4597C 7971 4566 7964 4533 7944 4172C 7928 3862 7928 3849 7945 3830C 7955 3819 7973 3810 7984 3810C 8024 3810 8595 3993 8626 4016C 8643 4029 8662 4051 8669 4067C 8687 4113 8730 4720 8716 4750C 8697 4793 8651 4786 8346 4695z" stroke="none" fill="#FFC107" fill-rule="nonzero" />
            <path d="M10481 4565C 10223 4483 10185 4465 10159 4418C 10148 4397 10088 3840 10092 3797C 10094 3781 10104 3761 10115 3754C 10134 3742 10166 3750 10405 3830C 10644 3910 10679 3924 10707 3955C 10725 3974 10742 3999 10744 4012C 10754 4054 10810 4550 10810 4588C 10810 4631 10796 4650 10766 4649C 10754 4649 10626 4611 10481 4565z" stroke="none" fill="#FFC107" fill-rule="nonzero" />
            <path d="M2123 4553C 2119 4544 2124 4401 2134 4235C 2148 4009 2156 3924 2170 3889C 2187 3842 2440 3528 2465 3522C 2472 3520 2480 3525 2482 3532C 2485 3539 2479 3685 2469 3856C 2456 4082 2447 4177 2436 4204C 2423 4235 2146 4570 2133 4570C 2131 4570 2126 4562 2123 4553z" stroke="none" fill="#FFC107" fill-rule="nonzero" />
            <path d="M7532 4456C 7197 4356 7172 4345 7151 4276C 7146 4259 7136 4100 7130 3922C 7119 3618 7119 3598 7135 3579C 7145 3569 7166 3560 7182 3560C 7198 3560 7350 3603 7518 3656C 7807 3746 7827 3754 7862 3789C 7905 3834 7903 3820 7925 4229C 7939 4475 7939 4505 7925 4526C 7914 4543 7901 4550 7877 4549C 7860 4549 7704 4507 7532 4456z" stroke="none" fill="#FFC107" fill-rule="nonzero" />
            <path d="M2804 4333C 2818 3950 2827 3835 2847 3792C 2869 3742 3167 3397 3183 3403C 3201 3409 3202 3470 3187 3795C 3175 4048 3170 4102 3154 4137C 3131 4188 2835 4520 2812 4520C 2799 4520 2798 4499 2804 4333z" stroke="none" fill="#FFC107" fill-rule="nonzero" />
            <path d="M3584 4459C 3576 4445 3589 3916 3600 3798C 3605 3751 3616 3697 3626 3679C 3652 3628 3982 3269 4000 3272C 4019 3276 4024 3468 4012 3795C 4005 4001 4001 4029 3982 4066C 3958 4113 3623 4470 3604 4470C 3597 4470 3588 4465 3584 4459z" stroke="none" fill="#FFC107" fill-rule="nonzero" />
            <path d="M9780 4344C 9634 4298 9504 4252 9490 4242C 9441 4206 9433 4172 9405 3852C 9380 3564 9379 3547 9396 3529C 9405 3519 9420 3510 9429 3510C 9454 3510 9979 3687 10006 3705C 10057 3738 10062 3757 10096 4078C 10124 4348 10126 4388 10114 4408C 10104 4422 10090 4430 10072 4429C 10057 4429 9926 4390 9780 4344z" stroke="none" fill="#FFC107" fill-rule="nonzero" />
            <path d="M6700 4212C 6521 4158 6365 4109 6353 4102C 6342 4096 6322 4074 6310 4055C 6288 4020 6288 4011 6286 3668L6286 3668L6285 3316L6312 3301C 6337 3287 6356 3291 6670 3390C 6852 3447 7015 3502 7030 3512C 7088 3547 7092 3565 7106 3925C 7119 4239 7118 4256 7101 4280C 7090 4295 7072 4306 7054 4307C 7038 4308 6879 4265 6700 4212z" stroke="none" fill="#FFC107" fill-rule="nonzero" />
            <path d="M9052 4115C 8891 4064 8750 4014 8739 4004C 8696 3965 8691 3939 8668 3617C 8644 3274 8644 3270 8699 3270C 8738 3270 9289 3456 9313 3477C 9324 3487 9339 3509 9346 3525C 9353 3542 9371 3695 9386 3864L9386 3864L9413 4173L9391 4192C 9378 4202 9363 4210 9356 4209C 9350 4209 9213 4167 9052 4115z" stroke="none" fill="#FFC107" fill-rule="nonzero" />
            <path d="M2470 4104C 2470 4073 2477 3925 2486 3776C 2498 3560 2505 3497 2520 3463C 2538 3421 2816 3080 2832 3080C 2837 3080 2843 3086 2846 3093C 2854 3115 2821 3721 2810 3761C 2804 3781 2787 3815 2771 3836C 2722 3901 2496 4153 2483 4158C 2473 4161 2470 4146 2470 4104z" stroke="none" fill="#FFC107" fill-rule="nonzero" />
            <path d="M3194 4075C 3185 4053 3209 3453 3221 3395C 3226 3368 3236 3335 3243 3324C 3268 3279 3582 2929 3593 2933C 3602 2936 3604 2993 3602 3156C 3597 3502 3586 3649 3564 3692C 3543 3732 3224 4090 3209 4090C 3204 4090 3197 4083 3194 4075z" stroke="none" fill="#FFC107" fill-rule="nonzero" />
            <path d="M5828 3956C 5637 3899 5469 3845 5455 3836C 5404 3803 5402 3791 5399 3414C 5395 3079 5396 3061 5414 3041C 5426 3028 5445 3020 5464 3020C 5508 3020 6176 3233 6199 3254C 6245 3296 6248 3318 6255 3676L6255 3676L6263 4016L6235 4038C 6220 4050 6200 4060 6191 4059C 6182 4059 6019 4012 5828 3956z" stroke="none" fill="#FFC107" fill-rule="nonzero" />
            <path d="M4027 3988C 4018 3962 4040 3266 4051 3231C 4067 3182 4084 3160 4276 2949C 4368 2848 4453 2763 4464 2762C 4475 2760 4493 2752 4504 2744C 4515 2736 4534 2730 4546 2730C 4557 2730 4730 2781 4929 2844C 5188 2925 5298 2964 5317 2981C 5368 3029 5370 3044 5370 3403C 5370 3726 5369 3738 5349 3764C 5335 3782 5319 3790 5297 3790C 5279 3790 5101 3742 4901 3683C 4568 3585 4533 3573 4503 3543C 4477 3516 4470 3513 4470 3527C 4469 3565 4428 3617 4250 3805C 4077 3987 4039 4019 4027 3988z" stroke="none" fill="#FFC107" fill-rule="nonzero" />
            <path d="M8294 3876C 8133 3825 7990 3776 7976 3767C 7923 3732 7919 3709 7899 3371C 7887 3163 7884 3050 7891 3038C 7896 3028 7911 3018 7923 3015C 7947 3009 8525 3198 8566 3225C 8615 3257 8621 3286 8646 3615C 8666 3888 8667 3928 8654 3948C 8645 3962 8630 3970 8612 3969C 8597 3969 8454 3927 8294 3876z" stroke="none" fill="#FFC107" fill-rule="nonzero" />
            <path d="M10401 3810C 10256 3761 10128 3713 10118 3703C 10077 3666 10069 3630 10038 3335C 10005 3021 10006 3010 10054 3010C 10074 3010 10562 3180 10600 3200C 10646 3225 10657 3266 10689 3535C 10706 3678 10721 3812 10722 3832C 10723 3873 10707 3900 10681 3899C 10672 3899 10546 3858 10401 3810z" stroke="none" fill="#FFC107" fill-rule="nonzero" />
            <path d="M2838 3718C 2827 3689 2861 3105 2876 3052C 2889 3008 2919 2966 3043 2817C 3126 2717 3198 2632 3204 2628C 3210 2624 3219 2625 3224 2630C 3238 2644 3212 3261 3194 3319C 3183 3356 3147 3405 3025 3545C 2940 3644 2864 3726 2856 3728C 2849 3730 2840 3725 2838 3718z" stroke="none" fill="#FFC107" fill-rule="nonzero" />
            <path d="M7510 3630C 7337 3575 7184 3522 7170 3512C 7114 3470 7112 3459 7099 3124C 7093 2952 7090 2801 7094 2786C 7107 2735 7132 2739 7476 2854C 7805 2963 7827 2974 7849 3031C 7854 3046 7867 3201 7876 3375L7876 3375L7894 3693L7871 3711C 7858 3722 7843 3730 7836 3730C 7830 3729 7683 3684 7510 3630z" stroke="none" fill="#FFC107" fill-rule="nonzero" />
            <path d="M9740 3589C 9417 3480 9423 3483 9393 3443C 9367 3410 9366 3398 9339 3107C 9323 2926 9316 2798 9321 2789C 9326 2780 9337 2769 9347 2766C 9370 2757 9904 2947 9940 2977C 9955 2989 9972 3012 9978 3027C 9985 3043 10003 3183 10019 3340C 10046 3593 10047 3627 10034 3648C 10026 3660 10010 3670 9997 3669C 9985 3669 9869 3633 9740 3589z" stroke="none" fill="#FFC107" fill-rule="nonzero" />
            <path d="M3612 3608C 3607 3595 3609 3434 3615 3250C 3625 2945 3628 2911 3647 2870C 3666 2830 3965 2474 4007 2443C 4016 2436 4027 2433 4033 2437C 4040 2441 4041 2560 4036 2784C 4031 3056 4026 3136 4013 3178C 3999 3224 3972 3258 3818 3428C 3720 3536 3635 3626 3630 3628C 3624 3630 3616 3621 3612 3608z" stroke="none" fill="#FFC107" fill-rule="nonzero" />
            <path d="M6681 3369C 6508 3314 6352 3261 6334 3250C 6275 3213 6273 3198 6265 2839C 6258 2515 6258 2512 6279 2491C 6290 2480 6307 2470 6315 2470C 6339 2470 6981 2688 7007 2705C 7057 2738 7061 2762 7074 3099C 7088 3457 7086 3471 7020 3469C 7006 3469 6854 3424 6681 3369z" stroke="none" fill="#FFC107" fill-rule="nonzero" />
            <path d="M8990 3336C 8839 3285 8705 3237 8693 3229C 8641 3197 8632 3155 8610 2844C 8599 2684 8592 2545 8596 2536C 8610 2498 8647 2506 8937 2608C 9094 2664 9232 2717 9242 2727C 9285 2766 9291 2797 9318 3100C 9346 3424 9346 3431 9291 3429C 9277 3429 9141 3387 8990 3336z" stroke="none" fill="#FFC107" fill-rule="nonzero" />
            <path d="M3225 3271C 3222 3265 3224 3149 3229 3012C 3246 2616 3246 2616 3268 2567C 3288 2521 3583 2157 3609 2146C 3617 2142 3626 2142 3629 2146C 3636 2152 3632 2380 3621 2650C 3615 2795 3610 2833 3593 2870C 3571 2918 3269 3273 3246 3278C 3238 3280 3229 3276 3225 3271z" stroke="none" fill="#FFC107" fill-rule="nonzero" />
            <path d="M6165 3205C 6160 3203 6009 3156 5830 3101C 5651 3045 5490 2992 5472 2983C 5454 2974 5430 2950 5417 2931C 5396 2896 5395 2886 5392 2570C 5390 2321 5393 2239 5403 2220C 5427 2173 5463 2179 5824 2300C 6228 2434 6221 2430 6232 2568C 6244 2733 6241 3177 6228 3188C 6212 3200 6178 3209 6165 3205z" stroke="none" fill="#FFC107" fill-rule="nonzero" />
            <path d="M8243 3087C 7922 2978 7898 2966 7880 2901C 7872 2870 7840 2396 7840 2302C 7840 2279 7847 2266 7865 2254C 7889 2239 7900 2242 8192 2345C 8503 2454 8536 2471 8559 2529C 8567 2549 8611 3070 8610 3138C 8610 3154 8573 3190 8558 3189C 8551 3189 8409 3143 8243 3087z" stroke="none" fill="#FFC107" fill-rule="nonzero" />
            <path d="M4047 3121C 4041 3097 4057 2481 4065 2425C 4074 2363 4092 2338 4285 2116C 4406 1977 4470 1910 4481 1913C 4489 1915 4505 1911 4515 1904C 4525 1896 4548 1890 4564 1890C 4606 1890 5283 2116 5313 2140C 5368 2183 5370 2200 5370 2554L5370 2554L5370 2881L5345 2905C 5332 2919 5313 2930 5304 2930C 5295 2930 5123 2878 4921 2815C 4587 2710 4552 2697 4524 2667L4524 2667L4493 2634L4469 2686C 4452 2723 4390 2800 4262 2939C 4162 3050 4073 3140 4066 3140C 4058 3140 4050 3131 4047 3121z" stroke="none" fill="#FFC107" fill-rule="nonzero" />
            <path d="M7474 2830C 7313 2776 7169 2725 7152 2716C 7088 2683 7083 2661 7071 2382C 7056 2040 7057 2005 7076 1986C 7084 1977 7101 1970 7112 1970C 7138 1970 7727 2178 7758 2198C 7808 2230 7813 2256 7831 2580C 7847 2849 7847 2888 7834 2907C 7825 2922 7810 2930 7792 2929C 7777 2929 7634 2884 7474 2830z" stroke="none" fill="#FFC107" fill-rule="nonzero" />
            <path d="M3636 2794C 3624 2763 3650 2158 3665 2104C 3677 2061 3711 2015 3855 1841C 3952 1724 4036 1631 4043 1633C 4062 1639 4054 2278 4035 2346C 4023 2389 3992 2429 3848 2596C 3648 2828 3649 2827 3636 2794z" stroke="none" fill="#FFC107" fill-rule="nonzero" />
            <path d="M6648 2552C 6310 2438 6282 2424 6262 2357C 6256 2340 6250 2188 6247 2021C 6243 1735 6244 1716 6261 1699C 6272 1688 6287 1680 6295 1680C 6324 1680 6964 1911 6983 1928C 7029 1970 7033 1991 7043 2313C 7051 2527 7051 2627 7043 2638C 7022 2672 6969 2660 6648 2552z" stroke="none" fill="#FFC107" fill-rule="nonzero" />
            <path d="M5822 2275C 5634 2213 5468 2153 5452 2141C 5394 2100 5390 2072 5390 1736C 5390 1456 5391 1430 5408 1409C 5420 1395 5438 1387 5456 1387C 5472 1387 5634 1440 5815 1504C 6161 1627 6190 1641 6209 1704C 6214 1721 6221 1873 6224 2041C 6230 2326 6229 2347 6213 2362C 6203 2370 6188 2380 6179 2383C 6169 2386 6009 2338 5822 2275z" stroke="none" fill="#FFC107" fill-rule="nonzero" />
            <path d="M4068 2293C 4065 2283 4067 2130 4071 1953C 4077 1698 4082 1621 4094 1582C 4107 1545 4156 1479 4295 1312C 4397 1190 4484 1090 4490 1090C 4495 1090 4502 1095 4506 1101C 4511 1109 4515 1108 4521 1097C 4543 1058 4577 1066 4940 1195C 5157 1272 5304 1329 5318 1343C 5369 1390 5370 1397 5370 1730C 5370 1930 5366 2048 5359 2061C 5333 2111 5318 2108 4951 1984C 4761 1920 4593 1862 4578 1854C 4564 1847 4541 1828 4529 1812L4529 1812L4505 1784L4484 1835C 4470 1872 4410 1948 4280 2098C 4179 2215 4091 2310 4084 2310C 4078 2310 4070 2302 4068 2293z" stroke="none" fill="#FFC107" fill-rule="nonzero" />
		</g>
	</g>
</g>
</svg>