<?xml version="1.0" standalone="no"?>
<!DOCTYPE svg PUBLIC "-//W3C//DTD SVG 1.0//EN" "http://www.w3.org/TR/2001/REC-SVG-20010904/DTD/svg10.dtd">
<svg xmlns="http://www.w3.org/2000/svg" xmlns:xlink="http://www.w3.org/1999/xlink" id="body_1" width="200" height="200">

<g transform="matrix(0.2666667 0 0 0.2232143 0 0)">
	<g transform="matrix(1 0 0 1 -391.28262 -276.38132)">
		<g transform="matrix(0.1 0 -0 -0.1 0 1280)">
            <path d="M10488 9991C 10330 9964 10196 9939 10190 9935C 10185 9932 10180 9923 10180 9917C 10180 9910 10288 9850 10420 9783C 10644 9668 10663 9660 10716 9660C 10768 9660 11327 9752 11365 9767C 11374 9770 11379 9778 11378 9784C 11376 9790 11267 9848 11136 9914C 10922 10020 10891 10033 10836 10036C 10795 10038 10682 10024 10488 9991z" stroke="none" fill="#FFC107" fill-rule="nonzero" />
            <path d="M9738 9864C 9566 9835 9417 9809 9407 9805C 9397 9801 9391 9792 9393 9786C 9395 9780 9501 9719 9628 9652C 9830 9544 9866 9528 9917 9523C 9960 9520 10058 9533 10290 9575C 10463 9605 10609 9635 10613 9639C 10618 9644 10619 9653 10616 9658C 10613 9664 10508 9721 10383 9785C 10216 9871 10142 9904 10104 9909C 10063 9915 9983 9905 9738 9864z" stroke="none" fill="#FFC107" fill-rule="nonzero" />
            <path d="M8898 9727C 8730 9698 8588 9672 8585 9668C 8567 9651 8601 9628 8811 9510C 9093 9353 9054 9357 9485 9434C 9656 9464 9803 9492 9813 9495C 9854 9512 9837 9524 9570 9666L9570 9666L9365 9775L9285 9777C 9226 9779 9123 9765 8898 9727z" stroke="none" fill="#FFC107" fill-rule="nonzero" />
            <path d="M11055 9699C 10907 9672 10773 9645 10758 9639C 10697 9614 10691 9592 10648 9182C 10606 8776 10606 8756 10655 8744C 10691 8735 11238 8846 11270 8869C 11322 8907 11328 8930 11370 9284C 11416 9671 11418 9710 11392 9733C 11368 9755 11368 9755 11055 9699z" stroke="none" fill="#FFC107" fill-rule="nonzero" />
            <path d="M8095 9594C 7767 9539 7725 9529 7733 9507C 7735 9501 7835 9437 7956 9365C 8233 9201 8191 9206 8635 9285C 8811 9316 8965 9344 8978 9347C 9032 9360 9001 9386 8788 9505C 8672 9570 8561 9629 8541 9636C 8485 9656 8438 9652 8095 9594z" stroke="none" fill="#FFC107" fill-rule="nonzero" />
            <path d="M10335 9574C 9984 9511 9984 9511 9954 9488C 9940 9476 9922 9452 9914 9435C 9899 9399 9837 8737 9842 8664C 9844 8627 9850 8613 9870 8599C 9894 8582 9902 8583 10200 8642C 10394 8681 10514 8709 10531 8721C 10578 8754 10587 8797 10625 9165C 10644 9358 10660 9528 10660 9543C 10660 9572 10621 9621 10598 9619C 10591 9618 10473 9598 10335 9574z" stroke="none" fill="#FFC107" fill-rule="nonzero" />
            <path d="M7215 9449C 7023 9416 6860 9384 6853 9377C 6846 9370 6844 9360 6848 9354C 6858 9339 7239 9103 7283 9085C 7339 9062 7390 9066 7728 9125C 8108 9191 8137 9198 8144 9216C 8150 9232 8148 9234 7884 9389C 7704 9494 7689 9501 7629 9505C 7581 9508 7476 9494 7215 9449z" stroke="none" fill="#FFC107" fill-rule="nonzero" />
            <path d="M9475 9423C 9258 9384 9157 9362 9139 9349C 9088 9313 9083 9287 9055 8908C 9025 8493 9025 8465 9060 8438C 9085 8420 9089 8421 9409 8485C 9587 8520 9740 8555 9749 8562C 9779 8586 9799 8615 9806 8644C 9809 8660 9827 8837 9845 9039C 9879 9419 9878 9450 9840 9470C 9815 9483 9826 9485 9475 9423z" stroke="none" fill="#FFC107" fill-rule="nonzero" />
            <path d="M6315 9300C 6123 9268 5956 9237 5943 9231C 5930 9225 5920 9215 5920 9208C 5920 9195 6311 8933 6354 8917C 6391 8902 6492 8907 6613 8930C 6678 8942 6736 8950 6742 8948C 6748 8946 6692 8933 6617 8921C 6541 8908 6468 8890 6451 8879C 6387 8840 6386 8838 6377 8377C 6369 8007 6370 7957 6383 7936C 6415 7887 6429 7888 6819 7966C 7022 8007 7193 8046 7207 8055C 7261 8091 7267 8128 7280 8480C 7298 8996 7299 8964 7271 8994C 7239 9028 7223 9028 6979 8984C 6869 8965 6774 8950 6768 8952C 6762 8954 6858 8973 6981 8994C 7187 9030 7250 9047 7250 9069C 7250 9079 6856 9325 6806 9345C 6751 9368 6692 9363 6315 9300z" stroke="none" fill="#FFC107" fill-rule="nonzero" />
            <path d="M8685 9284C 8553 9260 8414 9236 8377 9229C 8296 9216 8246 9179 8230 9122C 8225 9101 8211 8912 8199 8701C 8179 8326 8179 8316 8197 8292C 8207 8278 8224 8264 8235 8260C 8261 8251 8910 8381 8942 8402C 8992 8435 8998 8466 9025 8828C 9056 9252 9056 9284 9030 9310C 9002 9338 8967 9335 8685 9284z" stroke="none" fill="#FFC107" fill-rule="nonzero" />
            <path d="M5470 9160C 5313 9133 5139 9104 5082 9094C 4966 9074 4938 9061 4959 9036C 4967 9027 5060 8959 5166 8885C 5374 8740 5408 8725 5503 8735C 5544 8738 5548 8738 5523 8731C 5477 8719 5442 8694 5420 8657C 5401 8627 5400 8604 5400 8195C 5400 7816 5402 7762 5416 7742C 5449 7694 5458 7695 5868 7776C 6197 7842 6257 7857 6282 7878C 6339 7927 6339 7923 6346 8378L6346 8378L6353 8798L6321 8830C 6292 8860 6286 8861 6237 8856L6237 8856L6185 8850L6235 8863C 6296 8879 6312 8888 6308 8905C 6302 8929 5909 9183 5855 9197C 5789 9214 5797 9215 5470 9160zM6173 8843C 6166 8841 6152 8841 6143 8843C 6133 8846 6139 8848 6155 8848C 6172 8848 6179 8846 6173 8843zM6095 8830C 6079 8826 6054 8822 6040 8822C 6018 8822 6018 8823 6045 8830C 6062 8834 6086 8838 6100 8838C 6122 8838 6122 8837 6095 8830zM6003 8813C 5996 8811 5982 8811 5973 8813C 5963 8816 5969 8818 5985 8818C 6002 8818 6009 8816 6003 8813zM5890 8794C 5854 8787 5816 8781 5805 8782C 5778 8783 5898 8808 5930 8808C 5944 8808 5926 8802 5890 8794zM5773 8773C 5766 8771 5752 8771 5743 8773C 5733 8776 5739 8778 5755 8778C 5772 8778 5779 8776 5773 8773zM5695 8760C 5679 8756 5654 8752 5640 8752C 5618 8752 5618 8753 5645 8760C 5662 8764 5686 8768 5700 8768C 5722 8768 5722 8767 5695 8760zM5603 8743C 5596 8741 5582 8741 5573 8743C 5563 8746 5569 8748 5585 8748C 5602 8748 5609 8746 5603 8743z" stroke="none" fill="#FFC107" fill-rule="nonzero" />
            <path d="M7745 9120C 7403 9059 7389 9054 7346 8997C 7327 8971 7325 8943 7311 8567C 7303 8346 7300 8153 7303 8138C 7307 8123 7322 8103 7337 8093C 7362 8076 7374 8078 7709 8144C 7899 8182 8067 8219 8082 8226C 8096 8234 8118 8255 8130 8275C 8150 8307 8153 8337 8171 8638C 8199 9128 8199 9124 8170 9155C 8153 9173 8137 9180 8111 9179C 8091 9179 7927 9152 7745 9120z" stroke="none" fill="#FFC107" fill-rule="nonzero" />
            <path d="M4384 8979C 4163 8942 3973 8907 3961 8901C 3950 8894 3940 8884 3940 8877C 3941 8870 4020 8807 4116 8735C 4213 8664 4294 8601 4298 8595C 4301 8590 4297 8590 4289 8596C 4176 8684 3947 8850 3939 8850C 3910 8850 3908 8798 3919 8374C 3925 8138 3934 7929 3940 7909C 3956 7853 3977 7832 4168 7677C 4380 7505 4384 7502 4402 7518C 4411 7525 4421 7526 4430 7520C 4438 7514 4461 7510 4480 7510C 4540 7510 5260 7658 5293 7677C 5309 7687 5331 7711 5341 7730C 5359 7762 5360 7794 5360 8183C 5360 8640 5359 8645 5302 8669C 5278 8679 5215 8671 4871 8611C 4481 8542 4444 8534 4408 8503C 4393 8490 4390 8491 4380 8512C 4373 8525 4354 8547 4336 8562L4336 8562L4305 8590L4339 8573C 4361 8563 4397 8557 4439 8558C 4514 8559 5275 8691 5308 8709C 5320 8715 5330 8726 5330 8733C 5330 8740 5238 8809 5125 8888C 4950 9010 4913 9032 4868 9039C 4800 9051 4847 9057 4384 8979z" stroke="none" fill="#FFC107" fill-rule="nonzero" />
            <path d="M10990 8774C 10872 8750 10751 8725 10722 8719C 10665 8708 10614 8671 10599 8631C 10588 8602 10520 7983 10520 7910C 10520 7875 10525 7858 10540 7845C 10560 7827 10567 7828 10852 7891C 11154 7957 11182 7967 11212 8023C 11230 8057 11309 8751 11298 8780C 11279 8831 11269 8831 10990 8774z" stroke="none" fill="#FFC107" fill-rule="nonzero" />
            <path d="M10175 8610C 9900 8553 9884 8549 9858 8521C 9843 8504 9826 8474 9821 8453C 9815 8432 9797 8258 9780 8066C 9753 7747 9752 7714 9766 7693C 9774 7680 9788 7666 9796 7663C 9805 7660 9947 7688 10113 7725C 10374 7783 10419 7796 10444 7819C 10459 7833 10476 7856 10482 7870C 10492 7898 10560 8519 10560 8591C 10560 8645 10539 8670 10494 8669C 10478 8669 10335 8642 10175 8610z" stroke="none" fill="#FFC107" fill-rule="nonzero" />
            <path d="M9401 8454C 9067 8386 9058 8383 9025 8319C 9010 8291 8956 7636 8962 7559C 8964 7528 8972 7512 8991 7498C 9016 7479 9016 7479 9331 7549C 9521 7592 9655 7627 9670 7638C 9720 7675 9727 7705 9759 8070C 9776 8260 9790 8428 9790 8443C 9790 8472 9751 8521 9728 8519C 9721 8518 9574 8489 9401 8454z" stroke="none" fill="#FFC107" fill-rule="nonzero" />
            <path d="M8560 8286C 8392 8252 8245 8217 8232 8209C 8219 8201 8200 8180 8188 8162C 8170 8132 8166 8093 8147 7746C 8124 7328 8125 7317 8177 7304C 8215 7294 8835 7433 8870 7459C 8927 7500 8929 7511 8958 7914C 8989 8350 8990 8344 8910 8347C 8885 8348 8728 8320 8560 8286z" stroke="none" fill="#FFC107" fill-rule="nonzero" />
            <path d="M7694 8112C 7506 8073 7363 8038 7347 8027C 7290 7990 7288 7977 7272 7558C 7260 7263 7259 7164 7268 7145C 7292 7093 7306 7094 7668 7176C 7853 7217 8018 7259 8034 7268C 8094 7303 8097 7320 8121 7739C 8142 8120 8142 8123 8123 8149C 8107 8169 8094 8175 8059 8177C 8035 8178 7871 8149 7694 8112z" stroke="none" fill="#FFC107" fill-rule="nonzero" />
            <path d="M6813 7934C 6609 7893 6440 7854 6426 7845C 6412 7836 6392 7810 6381 7787C 6363 7748 6361 7713 6355 7348L6355 7348L6348 6951L6374 6925C 6388 6911 6409 6900 6422 6900C 6477 6901 7143 7058 7168 7077C 7225 7118 7228 7134 7244 7547C 7253 7773 7256 7939 7251 7953C 7241 7980 7223 7995 7195 8002C 7184 8004 7012 7974 6813 7934z" stroke="none" fill="#FFC107" fill-rule="nonzero" />
            <path d="M10845 7864C 10573 7802 10564 7799 10533 7766C 10516 7747 10499 7717 10495 7698C 10492 7680 10474 7519 10456 7340C 10418 6982 10419 6968 10474 6962C 10512 6957 11038 7088 11067 7109C 11113 7143 11119 7170 11160 7512C 11182 7695 11200 7855 11200 7868C 11200 7895 11167 7930 11143 7929C 11133 7929 10999 7899 10845 7864z" stroke="none" fill="#FFC107" fill-rule="nonzero" />
            <path d="M5869 7746C 5673 7706 5498 7668 5481 7660C 5463 7653 5438 7631 5424 7611L5424 7611L5400 7575L5400 7157L5400 6739L5425 6715C 5439 6700 5461 6690 5478 6690C 5525 6690 6222 6850 6251 6867C 6266 6876 6287 6900 6299 6920C 6319 6955 6320 6977 6326 7347C 6330 7561 6330 7748 6326 7763C 6319 7791 6275 7821 6243 7819C 6233 7818 6065 7785 5869 7746z" stroke="none" fill="#FFC107" fill-rule="nonzero" />
            <path d="M3943 7783C 3934 7759 3934 7742 3944 7310C 3951 6978 3954 6929 3971 6884C 3989 6838 4010 6816 4190 6659C 4303 6560 4399 6484 4412 6482C 4425 6481 4455 6477 4480 6474C 4514 6470 4614 6489 4905 6555C 5318 6648 5323 6650 5356 6727C 5377 6777 5376 7529 5355 7570C 5337 7604 5312 7620 5275 7620C 5255 7620 4587 7490 4484 7465C 4473 7463 4452 7450 4437 7436L4437 7436L4411 7412L4393 7445C 4373 7482 3988 7800 3964 7800C 3956 7800 3946 7792 3943 7783z" stroke="none" fill="#FFC107" fill-rule="nonzero" />
            <path d="M10097 7695C 9944 7660 9808 7625 9795 7616C 9740 7580 9738 7569 9703 7191C 9669 6816 9669 6788 9711 6775C 9740 6765 10315 6908 10345 6932C 10359 6943 10377 6964 10385 6980C 10394 6997 10413 7139 10436 7359C 10470 7689 10472 7711 10456 7735C 10444 7754 10431 7760 10407 7759C 10390 7759 10250 7730 10097 7695z" stroke="none" fill="#FFC107" fill-rule="nonzero" />
            <path d="M9316 7520C 9002 7448 8987 7442 8955 7380C 8946 7363 8932 7224 8915 6992C 8890 6656 8889 6628 8904 6605C 8916 6588 8930 6580 8950 6580C 8988 6580 9533 6715 9577 6735C 9639 6763 9645 6790 9680 7177C 9712 7538 9712 7558 9676 7582C 9656 7595 9620 7589 9316 7520z" stroke="none" fill="#FFC107" fill-rule="nonzero" />
            <path d="M8675 7375C 8598 7357 8459 7325 8365 7304C 8205 7269 8193 7264 8158 7230C 8135 7208 8120 7181 8116 7160C 8113 7141 8102 6972 8091 6785C 8070 6394 8071 6381 8141 6380C 8182 6380 8780 6529 8806 6546C 8857 6580 8866 6623 8890 6961C 8919 7375 8919 7369 8891 7392C 8861 7416 8841 7414 8675 7375z" stroke="none" fill="#FFC107" fill-rule="nonzero" />
            <path d="M7651 7144C 7308 7066 7297 7062 7264 6998C 7244 6959 7214 6249 7231 6209C 7253 6154 7269 6155 7630 6245C 7830 6295 7973 6336 7989 6347C 8042 6386 8047 6412 8065 6740C 8088 7180 8088 7174 8066 7199C 8053 7213 8036 7220 8011 7219C 7991 7218 7829 7185 7651 7144z" stroke="none" fill="#FFC107" fill-rule="nonzero" />
            <path d="M10753 6997C 10447 6919 10429 6910 10410 6841C 10398 6799 10340 6256 10340 6188C 10340 6141 10358 6110 10384 6110C 10419 6110 10958 6264 10974 6278C 11014 6315 11023 6356 11061 6675C 11082 6851 11100 7003 11100 7013C 11100 7033 11066 7070 11048 7069C 11041 7069 10908 7036 10753 6997z" stroke="none" fill="#FFC107" fill-rule="nonzero" />
            <path d="M6785 6949C 6573 6901 6425 6862 6411 6852C 6397 6842 6377 6821 6366 6806C 6346 6780 6345 6760 6337 6393C 6330 6094 6331 6002 6341 5984C 6367 5934 6383 5936 6759 6030C 6952 6078 7121 6125 7135 6134C 7189 6170 7192 6186 7208 6589C 7223 6991 7223 6996 7173 7019C 7160 7025 7146 7030 7142 7029C 7138 7029 6978 6993 6785 6949z" stroke="none" fill="#FFC107" fill-rule="nonzero" />
            <path d="M10020 6814C 9739 6743 9724 6738 9693 6706C 9676 6687 9659 6657 9656 6638C 9647 6582 9600 6038 9600 5989C 9600 5944 9620 5910 9647 5910C 9653 5910 9790 5946 9952 5990C 10217 6061 10248 6072 10272 6099C 10287 6116 10303 6146 10308 6167C 10314 6188 10332 6349 10350 6524L10350 6524L10383 6844L10356 6867C 10341 6880 10326 6890 10322 6889C 10318 6889 10182 6855 10020 6814z" stroke="none" fill="#FFC107" fill-rule="nonzero" />
            <path d="M5845 6737C 5647 6692 5474 6647 5461 6638C 5448 6629 5429 6608 5419 6593C 5401 6567 5400 6537 5400 6167C 5400 5926 5404 5761 5410 5750C 5415 5740 5433 5727 5450 5722C 5476 5713 5533 5724 5840 5800C 6039 5850 6213 5896 6229 5904C 6283 5933 6294 5962 6301 6115C 6305 6192 6309 6372 6310 6515L6310 6515L6312 6775L6285 6797C 6271 6810 6247 6820 6232 6819C 6217 6819 6043 6782 5845 6737z" stroke="none" fill="#FFC107" fill-rule="nonzero" />
            <path d="M3970 6785C 3960 6773 3959 6691 3965 6398C 3972 6013 3978 5939 4008 5884C 4030 5843 4399 5500 4420 5500C 4429 5500 4451 5493 4469 5484C 4501 5468 4511 5470 4892 5565C 5312 5670 5327 5676 5356 5747C 5377 5796 5376 6519 5355 6559C 5326 6617 5316 6616 4903 6524C 4500 6434 4481 6429 4454 6399C 4431 6373 4426 6375 4412 6413C 4404 6436 4342 6496 4200 6620C 4090 6716 3996 6796 3991 6798C 3987 6799 3977 6794 3970 6785z" stroke="none" fill="#FFC107" fill-rule="nonzero" />
            <path d="M9256 6623C 9092 6582 8947 6542 8934 6534C 8882 6499 8874 6458 8849 6105C 8837 5924 8830 5762 8834 5747C 8847 5693 8864 5694 9195 5785C 9381 5835 9509 5875 9522 5887C 9565 5926 9571 5956 9600 6283C 9617 6460 9630 6617 9630 6633C 9630 6664 9598 6701 9573 6699C 9563 6698 9421 6664 9256 6623z" stroke="none" fill="#FFC107" fill-rule="nonzero" />
            <path d="M8455 6425C 8296 6384 8150 6344 8132 6336C 8068 6305 8062 6276 8041 5890C 8022 5546 8023 5518 8054 5498C 8060 5494 8074 5490 8085 5490C 8123 5489 8715 5654 8743 5672C 8795 5709 8799 5728 8826 6100C 8850 6425 8851 6452 8836 6475C 8823 6495 8811 6500 8782 6499C 8762 6499 8615 6465 8455 6425z" stroke="none" fill="#FFC107" fill-rule="nonzero" />
            <path d="M7617 6215C 7267 6127 7253 6121 7224 6054C 7215 6033 7207 5914 7199 5672C 7185 5295 7187 5276 7233 5265C 7248 5261 7384 5293 7591 5349C 7908 5435 7927 5442 7957 5474C 7974 5493 7991 5523 7994 5542C 8008 5622 8036 6226 8027 6253C 8017 6283 7992 6301 7963 6299C 7953 6299 7797 6261 7617 6215z" stroke="none" fill="#FFC107" fill-rule="nonzero" />
            <path d="M10655 6156C 10512 6116 10385 6079 10373 6072C 10326 6046 10314 5992 10280 5659C 10245 5312 10245 5300 10300 5300C 10343 5300 10840 5448 10870 5469C 10920 5505 10926 5532 10965 5863C 11007 6219 11006 6231 10948 6229C 10930 6229 10798 6196 10655 6156z" stroke="none" fill="#FFC107" fill-rule="nonzero" />
            <path d="M6758 6001C 6568 5953 6400 5905 6385 5896C 6327 5858 6323 5829 6316 5442C 6309 5037 6310 5030 6385 5030C 6432 5030 7072 5207 7100 5228C 7152 5266 7158 5294 7169 5590C 7186 6015 7186 6039 7164 6060C 7153 6070 7136 6080 7125 6083C 7114 6086 6949 6049 6758 6001z" stroke="none" fill="#FFC107" fill-rule="nonzero" />
            <path d="M9932 5960C 9764 5914 9640 5874 9628 5863C 9585 5825 9579 5794 9549 5462C 9533 5283 9523 5128 9526 5118C 9540 5073 9559 5075 9853 5161C 10008 5206 10148 5249 10163 5257C 10215 5283 10227 5330 10260 5652C 10276 5815 10290 5962 10290 5978C 10290 6011 10263 6040 10234 6039C 10224 6039 10088 6003 9932 5960z" stroke="none" fill="#FFC107" fill-rule="nonzero" />
            <path d="M5825 5770L5475 5681L5438 5641L5400 5601L5400 5212L5400 4823L5423 4802C 5436 4790 5456 4780 5468 4780C 5509 4780 6195 4971 6220 4989C 6281 5033 6281 5038 6290 5433C 6294 5632 6294 5805 6289 5817C 6279 5845 6250 5860 6208 5859C 6190 5859 6018 5818 5825 5770z" stroke="none" fill="#FFC107" fill-rule="nonzero" />
            <path d="M9177 5755C 8857 5667 8839 5658 8820 5591C 8814 5571 8799 5413 8786 5240C 8761 4913 8762 4891 8801 4867C 8823 4853 9414 5026 9451 5058C 9466 5070 9483 5095 9489 5113C 9500 5147 9550 5678 9550 5760C 9550 5799 9546 5812 9528 5824C 9516 5833 9499 5840 9490 5839C 9482 5838 9341 5801 9177 5755z" stroke="none" fill="#FFC107" fill-rule="nonzero" />
            <path d="M3991 5816C 3982 5805 3982 5706 3989 5412C 3998 5044 3999 5020 4020 4972C 4038 4930 4080 4884 4232 4735C 4343 4626 4428 4550 4440 4550C 4450 4550 4461 4546 4465 4541C 4483 4512 4537 4522 4905 4622C 5309 4731 5328 4739 5356 4807C 5367 4832 5370 4919 5370 5205L5370 5205L5370 5572L5341 5601C 5325 5617 5302 5630 5291 5630C 5279 5630 5098 5587 4887 5534C 4558 5452 4501 5435 4476 5412C 4460 5397 4446 5390 4444 5395C 4426 5442 4380 5493 4213 5650C 4107 5749 4016 5830 4011 5830C 4006 5830 3997 5824 3991 5816z" stroke="none" fill="#FFC107" fill-rule="nonzero" />
            <path d="M8400 5544C 8232 5498 8084 5452 8070 5442C 8017 5404 8013 5378 7992 5025C 7982 4843 7977 4685 7982 4672C 8000 4620 8015 4622 8346 4719C 8516 4769 8666 4818 8680 4828C 8734 4868 8738 4887 8760 5187C 8790 5595 8790 5588 8761 5611C 8748 5621 8730 5630 8721 5629C 8712 5628 8568 5590 8400 5544z" stroke="none" fill="#FFC107" fill-rule="nonzero" />
            <path d="M10580 5351C 10440 5309 10315 5271 10302 5266C 10290 5262 10268 5242 10255 5222C 10233 5189 10228 5156 10201 4893C 10166 4567 10165 4539 10182 4522C 10205 4499 10193 4496 10622 4631C 10840 4700 10824 4674 10866 5028C 10909 5381 10910 5398 10885 5416C 10875 5424 10859 5429 10851 5429C 10842 5428 10720 5393 10580 5351z" stroke="none" fill="#FFC107" fill-rule="nonzero" />
            <path d="M7579 5321C 7405 5273 7251 5226 7237 5217C 7182 5181 7179 5164 7164 4792C 7149 4419 7150 4411 7199 4395C 7229 4386 7869 4576 7898 4603C 7944 4646 7948 4666 7964 4956C 7989 5389 7989 5369 7961 5391C 7948 5401 7928 5410 7916 5409C 7905 5408 7753 5369 7579 5321z" stroke="none" fill="#FFC107" fill-rule="nonzero" />
            <path d="M9845 5135C 9586 5058 9563 5050 9538 5019C 9504 4979 9506 4991 9474 4631C 9448 4325 9449 4298 9487 4286C 9497 4283 9633 4320 9790 4370C 10051 4451 10078 4462 10107 4494C 10145 4535 10142 4521 10180 4885C 10207 5145 10208 5176 10195 5197C 10185 5212 10170 5220 10152 5219C 10137 5219 9999 5181 9845 5135z" stroke="none" fill="#FFC107" fill-rule="nonzero" />
            <path d="M6718 5086C 6499 5026 6374 4987 6360 4975C 6309 4929 6307 4918 6299 4545C 6291 4167 6292 4157 6343 4145C 6365 4139 7000 4319 7052 4346C 7066 4354 7089 4374 7101 4392C 7123 4423 7125 4438 7137 4715C 7154 5130 7154 5136 7130 5160C 7119 5171 7098 5180 7083 5179C 7067 5179 6903 5137 6718 5086z" stroke="none" fill="#FFC107" fill-rule="nonzero" />
            <path d="M9112 4920C 8810 4830 8784 4818 8761 4762C 8746 4725 8701 4111 8711 4083C 8716 4071 8730 4058 8743 4055C 8772 4047 9332 4220 9370 4248C 9420 4285 9427 4317 9456 4654L9456 4654L9484 4973L9461 4991C 9448 5002 9430 5010 9421 5009C 9412 5008 9273 4968 9112 4920z" stroke="none" fill="#FFC107" fill-rule="nonzero" />
            <path d="M5830 4846C 5646 4795 5485 4748 5474 4742C 5462 4736 5440 4717 5426 4699L5426 4699L5400 4668L5400 4295C 5400 3891 5399 3898 5454 3884C 5468 3881 5618 3920 5834 3984C 6223 4098 6241 4106 6259 4180C 6264 4199 6271 4366 6274 4551C 6280 4880 6279 4888 6259 4914C 6243 4934 6230 4940 6202 4939C 6182 4938 6014 4896 5830 4846z" stroke="none" fill="#FFC107" fill-rule="nonzero" />
            <path d="M4011 4886C 4003 4876 4003 4777 4010 4509C 4020 4132 4023 4104 4047 4056C 4068 4015 4430 3640 4449 3640C 4458 3640 4474 3633 4484 3625C 4495 3617 4516 3610 4532 3610C 4574 3610 5271 3817 5299 3838C 5313 3848 5333 3869 5344 3884C 5364 3911 5365 3923 5365 4280C 5365 4628 5364 4649 5346 4669C 5334 4682 5315 4690 5294 4690C 5277 4690 5114 4650 4934 4601C 4753 4552 4586 4507 4563 4501C 4540 4495 4508 4476 4492 4460L4492 4460L4463 4431L4441 4480C 4425 4516 4372 4574 4230 4714C 4125 4816 4036 4900 4031 4900C 4026 4900 4017 4894 4011 4886z" stroke="none" fill="#FFC107" fill-rule="nonzero" />
            <path d="M8346 4695C 8192 4650 8052 4605 8035 4597C 7971 4566 7964 4533 7944 4172C 7928 3862 7928 3849 7945 3830C 7955 3819 7973 3810 7984 3810C 8024 3810 8595 3993 8626 4016C 8643 4029 8662 4051 8669 4067C 8687 4113 8730 4720 8716 4750C 8697 4793 8651 4786 8346 4695z" stroke="none" fill="#FFC107" fill-rule="nonzero" />
            <path d="M10481 4565C 10223 4483 10185 4465 10159 4418C 10148 4397 10088 3840 10092 3797C 10094 3781 10104 3761 10115 3754C 10134 3742 10166 3750 10405 3830C 10644 3910 10679 3924 10707 3955C 10725 3974 10742 3999 10744 4012C 10754 4054 10810 4550 10810 4588C 10810 4631 10796 4650 10766 4649C 10754 4649 10626 4611 10481 4565z" stroke="none" fill="#FFC107" fill-rule="nonzero" />
            <path d="M7532 4456C 7197 4356 7172 4345 7151 4276C 7146 4259 7136 4100 7130 3922C 7119 3618 7119 3598 7135 3579C 7145 3569 7166 3560 7182 3560C 7198 3560 7350 3603 7518 3656C 7807 3746 7827 3754 7862 3789C 7905 3834 7903 3820 7925 4229C 7939 4475 7939 4505 7925 4526C 7914 4543 7901 4550 7877 4549C 7860 4549 7704 4507 7532 4456z" stroke="none" fill="#FFC107" fill-rule="nonzero" />
            <path d="M9780 4344C 9634 4298 9504 4252 9490 4242C 9441 4206 9433 4172 9405 3852C 9380 3564 9379 3547 9396 3529C 9405 3519 9420 3510 9429 3510C 9454 3510 9979 3687 10006 3705C 10057 3738 10062 3757 10096 4078C 10124 4348 10126 4388 10114 4408C 10104 4422 10090 4430 10072 4429C 10057 4429 9926 4390 9780 4344z" stroke="none" fill="#FFC107" fill-rule="nonzero" />
            <path d="M6700 4212C 6521 4158 6365 4109 6353 4102C 6342 4096 6322 4074 6310 4055C 6288 4020 6288 4011 6286 3668L6286 3668L6285 3316L6312 3301C 6337 3287 6356 3291 6670 3390C 6852 3447 7015 3502 7030 3512C 7088 3547 7092 3565 7106 3925C 7119 4239 7118 4256 7101 4280C 7090 4295 7072 4306 7054 4307C 7038 4308 6879 4265 6700 4212z" stroke="none" fill="#FFC107" fill-rule="nonzero" />
            <path d="M9052 4115C 8891 4064 8750 4014 8739 4004C 8696 3965 8691 3939 8668 3617C 8644 3274 8644 3270 8699 3270C 8738 3270 9289 3456 9313 3477C 9324 3487 9339 3509 9346 3525C 9353 3542 9371 3695 9386 3864L9386 3864L9413 4173L9391 4192C 9378 4202 9363 4210 9356 4209C 9350 4209 9213 4167 9052 4115z" stroke="none" fill="#FFC107" fill-rule="nonzero" />
            <path d="M5828 3956C 5637 3899 5469 3845 5455 3836C 5404 3803 5402 3791 5399 3414C 5395 3079 5396 3061 5414 3041C 5426 3028 5445 3020 5464 3020C 5508 3020 6176 3233 6199 3254C 6245 3296 6248 3318 6255 3676L6255 3676L6263 4016L6235 4038C 6220 4050 6200 4060 6191 4059C 6182 4059 6019 4012 5828 3956z" stroke="none" fill="#FFC107" fill-rule="nonzero" />
            <path d="M4027 3988C 4018 3962 4040 3266 4051 3231C 4067 3182 4084 3160 4276 2949C 4368 2848 4453 2763 4464 2762C 4475 2760 4493 2752 4504 2744C 4515 2736 4534 2730 4546 2730C 4557 2730 4730 2781 4929 2844C 5188 2925 5298 2964 5317 2981C 5368 3029 5370 3044 5370 3403C 5370 3726 5369 3738 5349 3764C 5335 3782 5319 3790 5297 3790C 5279 3790 5101 3742 4901 3683C 4568 3585 4533 3573 4503 3543C 4477 3516 4470 3513 4470 3527C 4469 3565 4428 3617 4250 3805C 4077 3987 4039 4019 4027 3988z" stroke="none" fill="#FFC107" fill-rule="nonzero" />
            <path d="M8294 3876C 8133 3825 7990 3776 7976 3767C 7923 3732 7919 3709 7899 3371C 7887 3163 7884 3050 7891 3038C 7896 3028 7911 3018 7923 3015C 7947 3009 8525 3198 8566 3225C 8615 3257 8621 3286 8646 3615C 8666 3888 8667 3928 8654 3948C 8645 3962 8630 3970 8612 3969C 8597 3969 8454 3927 8294 3876z" stroke="none" fill="#FFC107" fill-rule="nonzero" />
            <path d="M10401 3810C 10256 3761 10128 3713 10118 3703C 10077 3666 10069 3630 10038 3335C 10005 3021 10006 3010 10054 3010C 10074 3010 10562 3180 10600 3200C 10646 3225 10657 3266 10689 3535C 10706 3678 10721 3812 10722 3832C 10723 3873 10707 3900 10681 3899C 10672 3899 10546 3858 10401 3810z" stroke="none" fill="#FFC107" fill-rule="nonzero" />
            <path d="M7510 3630C 7337 3575 7184 3522 7170 3512C 7114 3470 7112 3459 7099 3124C 7093 2952 7090 2801 7094 2786C 7107 2735 7132 2739 7476 2854C 7805 2963 7827 2974 7849 3031C 7854 3046 7867 3201 7876 3375L7876 3375L7894 3693L7871 3711C 7858 3722 7843 3730 7836 3730C 7830 3729 7683 3684 7510 3630z" stroke="none" fill="#FFC107" fill-rule="nonzero" />
            <path d="M9740 3589C 9417 3480 9423 3483 9393 3443C 9367 3410 9366 3398 9339 3107C 9323 2926 9316 2798 9321 2789C 9326 2780 9337 2769 9347 2766C 9370 2757 9904 2947 9940 2977C 9955 2989 9972 3012 9978 3027C 9985 3043 10003 3183 10019 3340C 10046 3593 10047 3627 10034 3648C 10026 3660 10010 3670 9997 3669C 9985 3669 9869 3633 9740 3589z" stroke="none" fill="#FFC107" fill-rule="nonzero" />
            <path d="M6681 3369C 6508 3314 6352 3261 6334 3250C 6275 3213 6273 3198 6265 2839C 6258 2515 6258 2512 6279 2491C 6290 2480 6307 2470 6315 2470C 6339 2470 6981 2688 7007 2705C 7057 2738 7061 2762 7074 3099C 7088 3457 7086 3471 7020 3469C 7006 3469 6854 3424 6681 3369z" stroke="none" fill="#FFC107" fill-rule="nonzero" />
            <path d="M8990 3336C 8839 3285 8705 3237 8693 3229C 8641 3197 8632 3155 8610 2844C 8599 2684 8592 2545 8596 2536C 8610 2498 8647 2506 8937 2608C 9094 2664 9232 2717 9242 2727C 9285 2766 9291 2797 9318 3100C 9346 3424 9346 3431 9291 3429C 9277 3429 9141 3387 8990 3336z" stroke="none" fill="#FFC107" fill-rule="nonzero" />
            <path d="M6165 3205C 6160 3203 6009 3156 5830 3101C 5651 3045 5490 2992 5472 2983C 5454 2974 5430 2950 5417 2931C 5396 2896 5395 2886 5392 2570C 5390 2321 5393 2239 5403 2220C 5427 2173 5463 2179 5824 2300C 6228 2434 6221 2430 6232 2568C 6244 2733 6241 3177 6228 3188C 6212 3200 6178 3209 6165 3205z" stroke="none" fill="#FFC107" fill-rule="nonzero" />
            <path d="M8243 3087C 7922 2978 7898 2966 7880 2901C 7872 2870 7840 2396 7840 2302C 7840 2279 7847 2266 7865 2254C 7889 2239 7900 2242 8192 2345C 8503 2454 8536 2471 8559 2529C 8567 2549 8611 3070 8610 3138C 8610 3154 8573 3190 8558 3189C 8551 3189 8409 3143 8243 3087z" stroke="none" fill="#FFC107" fill-rule="nonzero" />
            <path d="M4047 3121C 4041 3097 4057 2481 4065 2425C 4074 2363 4092 2338 4285 2116C 4406 1977 4470 1910 4481 1913C 4489 1915 4505 1911 4515 1904C 4525 1896 4548 1890 4564 1890C 4606 1890 5283 2116 5313 2140C 5368 2183 5370 2200 5370 2554L5370 2554L5370 2881L5345 2905C 5332 2919 5313 2930 5304 2930C 5295 2930 5123 2878 4921 2815C 4587 2710 4552 2697 4524 2667L4524 2667L4493 2634L4469 2686C 4452 2723 4390 2800 4262 2939C 4162 3050 4073 3140 4066 3140C 4058 3140 4050 3131 4047 3121z" stroke="none" fill="#FFC107" fill-rule="nonzero" />
            <path d="M7474 2830C 7313 2776 7169 2725 7152 2716C 7088 2683 7083 2661 7071 2382C 7056 2040 7057 2005 7076 1986C 7084 1977 7101 1970 7112 1970C 7138 1970 7727 2178 7758 2198C 7808 2230 7813 2256 7831 2580C 7847 2849 7847 2888 7834 2907C 7825 2922 7810 2930 7792 2929C 7777 2929 7634 2884 7474 2830z" stroke="none" fill="#FFC107" fill-rule="nonzero" />
            <path d="M6648 2552C 6310 2438 6282 2424 6262 2357C 6256 2340 6250 2188 6247 2021C 6243 1735 6244 1716 6261 1699C 6272 1688 6287 1680 6295 1680C 6324 1680 6964 1911 6983 1928C 7029 1970 7033 1991 7043 2313C 7051 2527 7051 2627 7043 2638C 7022 2672 6969 2660 6648 2552z" stroke="none" fill="#FFC107" fill-rule="nonzero" />
            <path d="M5822 2275C 5634 2213 5468 2153 5452 2141C 5394 2100 5390 2072 5390 1736C 5390 1456 5391 1430 5408 1409C 5420 1395 5438 1387 5456 1387C 5472 1387 5634 1440 5815 1504C 6161 1627 6190 1641 6209 1704C 6214 1721 6221 1873 6224 2041C 6230 2326 6229 2347 6213 2362C 6203 2370 6188 2380 6179 2383C 6169 2386 6009 2338 5822 2275z" stroke="none" fill="#FFC107" fill-rule="nonzero" />
            <path d="M4068 2293C 4065 2283 4067 2130 4071 1953C 4077 1698 4082 1621 4094 1582C 4107 1545 4156 1479 4295 1312C 4397 1190 4484 1090 4490 1090C 4495 1090 4502 1095 4506 1101C 4511 1109 4515 1108 4521 1097C 4543 1058 4577 1066 4940 1195C 5157 1272 5304 1329 5318 1343C 5369 1390 5370 1397 5370 1730C 5370 1930 5366 2048 5359 2061C 5333 2111 5318 2108 4951 1984C 4761 1920 4593 1862 4578 1854C 4564 1847 4541 1828 4529 1812L4529 1812L4505 1784L4484 1835C 4470 1872 4410 1948 4280 2098C 4179 2215 4091 2310 4084 2310C 4078 2310 4070 2302 4068 2293z" stroke="none" fill="#FFC107" fill-rule="nonzero" />
		</g>
	</g>
</g>
</svg>