<?xml version="1.0" standalone="no"?>
<!DOCTYPE svg PUBLIC "-//W3C//DTD SVG 1.0//EN" "http://www.w3.org/TR/2001/REC-SVG-20010904/DTD/svg10.dtd">
<svg xmlns="http://www.w3.org/2000/svg" xmlns:xlink="http://www.w3.org/1999/xlink" id="body_1" width="200" height="200">

<g transform="matrix(1.369863 0 0 0.25094104 0 0)">
	<g transform="matrix(1.0010747 0 0 1.0000354 0 0)">
		<g transform="matrix(1 0 0 1 -391.28262 -375.38785)">
			<g transform="matrix(0.1 0 -0 -0.1 0 1280)">
                <path d="M4384 8979C 4163 8942 3973 8907 3961 8901C 3950 8894 3940 8884 3940 8877C 3941 8870 4020 8807 4116 8735C 4213 8664 4294 8601 4298 8595C 4301 8590 4297 8590 4289 8596C 4176 8684 3947 8850 3939 8850C 3910 8850 3908 8798 3919 8374C 3925 8138 3934 7929 3940 7909C 3956 7853 3977 7832 4168 7677C 4380 7505 4384 7502 4402 7518C 4411 7525 4421 7526 4430 7520C 4438 7514 4461 7510 4480 7510C 4540 7510 5260 7658 5293 7677C 5309 7687 5331 7711 5341 7730C 5359 7762 5360 7794 5360 8183C 5360 8640 5359 8645 5302 8669C 5278 8679 5215 8671 4871 8611C 4481 8542 4444 8534 4408 8503C 4393 8490 4390 8491 4380 8512C 4373 8525 4354 8547 4336 8562L4336 8562L4305 8590L4339 8573C 4361 8563 4397 8557 4439 8558C 4514 8559 5275 8691 5308 8709C 5320 8715 5330 8726 5330 8733C 5330 8740 5238 8809 5125 8888C 4950 9010 4913 9032 4868 9039C 4800 9051 4847 9057 4384 8979z" stroke="none" fill="#FFC107" fill-rule="nonzero" />
                <path d="M3943 7783C 3934 7759 3934 7742 3944 7310C 3951 6978 3954 6929 3971 6884C 3989 6838 4010 6816 4190 6659C 4303 6560 4399 6484 4412 6482C 4425 6481 4455 6477 4480 6474C 4514 6470 4614 6489 4905 6555C 5318 6648 5323 6650 5356 6727C 5377 6777 5376 7529 5355 7570C 5337 7604 5312 7620 5275 7620C 5255 7620 4587 7490 4484 7465C 4473 7463 4452 7450 4437 7436L4437 7436L4411 7412L4393 7445C 4373 7482 3988 7800 3964 7800C 3956 7800 3946 7792 3943 7783z" stroke="none" fill="#FFC107" fill-rule="nonzero" />
                <path d="M3970 6785C 3960 6773 3959 6691 3965 6398C 3972 6013 3978 5939 4008 5884C 4030 5843 4399 5500 4420 5500C 4429 5500 4451 5493 4469 5484C 4501 5468 4511 5470 4892 5565C 5312 5670 5327 5676 5356 5747C 5377 5796 5376 6519 5355 6559C 5326 6617 5316 6616 4903 6524C 4500 6434 4481 6429 4454 6399C 4431 6373 4426 6375 4412 6413C 4404 6436 4342 6496 4200 6620C 4090 6716 3996 6796 3991 6798C 3987 6799 3977 6794 3970 6785z" stroke="none" fill="#FFC107" fill-rule="nonzero" />
                <path d="M3991 5816C 3982 5805 3982 5706 3989 5412C 3998 5044 3999 5020 4020 4972C 4038 4930 4080 4884 4232 4735C 4343 4626 4428 4550 4440 4550C 4450 4550 4461 4546 4465 4541C 4483 4512 4537 4522 4905 4622C 5309 4731 5328 4739 5356 4807C 5367 4832 5370 4919 5370 5205L5370 5205L5370 5572L5341 5601C 5325 5617 5302 5630 5291 5630C 5279 5630 5098 5587 4887 5534C 4558 5452 4501 5435 4476 5412C 4460 5397 4446 5390 4444 5395C 4426 5442 4380 5493 4213 5650C 4107 5749 4016 5830 4011 5830C 4006 5830 3997 5824 3991 5816z" stroke="none" fill="#FFC107" fill-rule="nonzero" />
                <path d="M4011 4886C 4003 4876 4003 4777 4010 4509C 4020 4132 4023 4104 4047 4056C 4068 4015 4430 3640 4449 3640C 4458 3640 4474 3633 4484 3625C 4495 3617 4516 3610 4532 3610C 4574 3610 5271 3817 5299 3838C 5313 3848 5333 3869 5344 3884C 5364 3911 5365 3923 5365 4280C 5365 4628 5364 4649 5346 4669C 5334 4682 5315 4690 5294 4690C 5277 4690 5114 4650 4934 4601C 4753 4552 4586 4507 4563 4501C 4540 4495 4508 4476 4492 4460L4492 4460L4463 4431L4441 4480C 4425 4516 4372 4574 4230 4714C 4125 4816 4036 4900 4031 4900C 4026 4900 4017 4894 4011 4886z" stroke="none" fill="#FFC107" fill-rule="nonzero" />
                <path d="M4027 3988C 4018 3962 4040 3266 4051 3231C 4067 3182 4084 3160 4276 2949C 4368 2848 4453 2763 4464 2762C 4475 2760 4493 2752 4504 2744C 4515 2736 4534 2730 4546 2730C 4557 2730 4730 2781 4929 2844C 5188 2925 5298 2964 5317 2981C 5368 3029 5370 3044 5370 3403C 5370 3726 5369 3738 5349 3764C 5335 3782 5319 3790 5297 3790C 5279 3790 5101 3742 4901 3683C 4568 3585 4533 3573 4503 3543C 4477 3516 4470 3513 4470 3527C 4469 3565 4428 3617 4250 3805C 4077 3987 4039 4019 4027 3988z" stroke="none" fill="#FFC107" fill-rule="nonzero" />
                <path d="M4047 3121C 4041 3097 4057 2481 4065 2425C 4074 2363 4092 2338 4285 2116C 4406 1977 4470 1910 4481 1913C 4489 1915 4505 1911 4515 1904C 4525 1896 4548 1890 4564 1890C 4606 1890 5283 2116 5313 2140C 5368 2183 5370 2200 5370 2554L5370 2554L5370 2881L5345 2905C 5332 2919 5313 2930 5304 2930C 5295 2930 5123 2878 4921 2815C 4587 2710 4552 2697 4524 2667L4524 2667L4493 2634L4469 2686C 4452 2723 4390 2800 4262 2939C 4162 3050 4073 3140 4066 3140C 4058 3140 4050 3131 4047 3121z" stroke="none" fill="#FFC107" fill-rule="nonzero" />
                <path d="M4068 2293C 4065 2283 4067 2130 4071 1953C 4077 1698 4082 1621 4094 1582C 4107 1545 4156 1479 4295 1312C 4397 1190 4484 1090 4490 1090C 4495 1090 4502 1095 4506 1101C 4511 1109 4515 1108 4521 1097C 4543 1058 4577 1066 4940 1195C 5157 1272 5304 1329 5318 1343C 5369 1390 5370 1397 5370 1730C 5370 1930 5366 2048 5359 2061C 5333 2111 5318 2108 4951 1984C 4761 1920 4593 1862 4578 1854C 4564 1847 4541 1828 4529 1812L4529 1812L4505 1784L4484 1835C 4470 1872 4410 1948 4280 2098C 4179 2215 4091 2310 4084 2310C 4078 2310 4070 2302 4068 2293z" stroke="none" fill="#FFC107" fill-rule="nonzero" />
			</g>
		</g>
	</g>
</g>
</svg>