<?xml version="1.0" standalone="no"?>
<!DOCTYPE svg PUBLIC "-//W3C//DTD SVG 1.0//EN" "http://www.w3.org/TR/2001/REC-SVG-20010904/DTD/svg10.dtd">
<svg xmlns="http://www.w3.org/2000/svg" xmlns:xlink="http://www.w3.org/1999/xlink" id="body_1" width="145" height="154">

<g transform="matrix(1.001953 0 0 1.0025249 0 0)">
	<g transform="matrix(1 0 0 1 -2.895542 -2.162038)">
		<g transform="matrix(0.1 0 -0 -0.1 -388.3871 906.7742)">
            <path d="M4384 8979C 4163 8942 3973 8907 3961 8901C 3950 8894 3940 8884 3940 8877C 3941 8870 4020 8807 4116 8735C 4213 8664 4294 8601 4298 8595C 4301 8590 4297 8590 4289 8596C 4176 8684 3947 8850 3939 8850C 3910 8850 3908 8798 3919 8374C 3925 8138 3934 7929 3940 7909C 3956 7853 3977 7832 4168 7677C 4380 7505 4384 7502 4402 7518C 4411 7525 4421 7526 4430 7520C 4438 7514 4461 7510 4480 7510C 4540 7510 5260 7658 5293 7677C 5309 7687 5331 7711 5341 7730C 5359 7762 5360 7794 5360 8183C 5360 8640 5359 8645 5302 8669C 5278 8679 5215 8671 4871 8611C 4481 8542 4444 8534 4408 8503C 4393 8490 4390 8491 4380 8512C 4373 8525 4354 8547 4336 8562L4336 8562L4305 8590L4339 8573C 4361 8563 4397 8557 4439 8558C 4514 8559 5275 8691 5308 8709C 5320 8715 5330 8726 5330 8733C 5330 8740 5238 8809 5125 8888C 4950 9010 4913 9032 4868 9039C 4800 9051 4847 9057 4384 8979z" stroke="none" fill="#FFC107" fill-rule="nonzero" />
		</g>
	</g>
</g>
</svg>