<?xml version="1.0" encoding="UTF-8" standalone="no"?>
<svg
   width="749.59332"
   height="895.97827"
   preserveAspectRatio="xMidYMid meet"
   version="1.1"
   id="svg507"
   sodipodi:docname="centena.svg"
   inkscape:version="1.1.2 (b8e25be833, 2022-02-05)"
   xmlns:inkscape="http://www.inkscape.org/namespaces/inkscape"
   xmlns:sodipodi="http://sodipodi.sourceforge.net/DTD/sodipodi-0.dtd"
   xmlns="http://www.w3.org/2000/svg"
   xmlns:svg="http://www.w3.org/2000/svg">
  <defs
     id="defs511" />
  <sodipodi:namedview
     id="namedview509"
     pagecolor="#ffffff"
     bordercolor="#111111"
     borderopacity="1"
     inkscape:pageshadow="0"
     inkscape:pageopacity="0"
     inkscape:pagecheckerboard="1"
     showgrid="false"
     inkscape:zoom="0.40546875"
     inkscape:cx="230.5973"
     inkscape:cy="365.00963"
     inkscape:window-width="1366"
     inkscape:window-height="705"
     inkscape:window-x="-8"
     inkscape:window-y="-8"
     inkscape:window-maximized="1"
     inkscape:current-layer="svg507" />
  <metadata
     id="metadata431">Created by potrace 1.15, written by Peter Selinger 2001-2017</metadata>
  <g
     class="layer"
     id="g505"
     transform="translate(-391.28263,-276.38132)">
    <title
       id="title433">Layer 1</title>
    <g
       fill="#ffc107"
       id="svg_1"
       transform="matrix(0.1,0,0,-0.1,0,1280)">
      <path
         d="m 10488,9991 c -158,-27 -292,-52 -298,-56 -5,-3 -10,-12 -10,-18 0,-7 108,-67 240,-134 224,-115 243,-123 296,-123 52,0 611,92 649,107 9,3 14,11 13,17 -2,6 -111,64 -242,130 -214,106 -245,119 -300,122 -41,2 -154,-12 -348,-45 z"
         id="svg_54" />
      <path
         d="m 9738,9864 c -172,-29 -321,-55 -331,-59 -10,-4 -16,-13 -14,-19 2,-6 108,-67 235,-134 202,-108 238,-124 289,-129 43,-3 141,10 373,52 173,30 319,60 323,64 5,5 6,14 3,19 -3,6 -108,63 -233,127 -167,86 -241,119 -279,124 -41,6 -121,-4 -366,-45 z"
         id="svg_58" />
      <path
         d="m 8898,9727 c -168,-29 -310,-55 -313,-59 -18,-17 16,-40 226,-158 282,-157 243,-153 674,-76 171,30 318,58 328,61 41,17 24,29 -243,171 l -205,109 -80,2 c -59,2 -162,-12 -387,-50 z"
         id="svg_63" />
      <path
         d="m 11055,9699 c -148,-27 -282,-54 -297,-60 -61,-25 -67,-47 -110,-457 -42,-406 -42,-426 7,-438 36,-9 583,102 615,125 52,38 58,61 100,415 46,387 48,426 22,449 -24,22 -24,22 -337,-34 z"
         id="svg_64" />
      <path
         d="m 8095,9594 c -328,-55 -370,-65 -362,-87 2,-6 102,-70 223,-142 277,-164 235,-159 679,-80 176,31 330,59 343,62 54,13 23,39 -190,158 -116,65 -227,124 -247,131 -56,20 -103,16 -446,-42 z"
         id="svg_67" />
      <path
         d="m 10335,9574 c -351,-63 -351,-63 -381,-86 -14,-12 -32,-36 -40,-53 -15,-36 -77,-698 -72,-771 2,-37 8,-51 28,-65 24,-17 32,-16 330,43 194,39 314,67 331,79 47,33 56,76 94,444 19,193 35,363 35,378 0,29 -39,78 -62,76 -7,-1 -125,-21 -263,-45 z"
         id="svg_68" />
      <path
         d="m 7215,9449 c -192,-33 -355,-65 -362,-72 -7,-7 -9,-17 -5,-23 10,-15 391,-251 435,-269 56,-23 107,-19 445,40 380,66 409,73 416,91 6,16 4,18 -260,173 -180,105 -195,112 -255,116 -48,3 -153,-11 -414,-56 z"
         id="svg_72" />
      <path
         d="m 9475,9423 c -217,-39 -318,-61 -336,-74 -51,-36 -56,-62 -84,-441 -30,-415 -30,-443 5,-470 25,-18 29,-17 349,47 178,35 331,70 340,77 30,24 50,53 57,82 3,16 21,193 39,395 34,380 33,411 -5,431 -25,13 -14,15 -365,-47 z"
         id="svg_73" />
      <path
         d="m 6315,9300 c -192,-32 -359,-63 -372,-69 -13,-6 -23,-16 -23,-23 0,-13 391,-275 434,-291 37,-15 138,-10 259,13 65,12 123,20 129,18 6,-2 -50,-15 -125,-27 -76,-13 -149,-31 -166,-42 -64,-39 -65,-41 -74,-502 -8,-370 -7,-420 6,-441 32,-49 46,-48 436,30 203,41 374,80 388,89 54,36 60,73 73,425 18,516 19,484 -9,514 -32,34 -48,34 -292,-10 -110,-19 -205,-34 -211,-32 -6,2 90,21 213,42 206,36 269,53 269,75 0,10 -394,256 -444,276 -55,23 -114,18 -491,-45 z"
         id="svg_75" />
      <path
         d="m 8685,9284 c -132,-24 -271,-48 -308,-55 -81,-13 -131,-50 -147,-107 -5,-21 -19,-210 -31,-421 -20,-375 -20,-385 -2,-409 10,-14 27,-28 38,-32 26,-9 675,121 707,142 50,33 56,64 83,426 31,424 31,456 5,482 -28,28 -63,25 -345,-26 z"
         id="svg_76" />
      <path
         d="m 5470,9160 c -157,-27 -331,-56 -388,-66 -116,-20 -144,-33 -123,-58 8,-9 101,-77 207,-151 208,-145 242,-160 337,-150 41,3 45,3 20,-4 -46,-12 -81,-37 -103,-74 -19,-30 -20,-53 -20,-462 0,-379 2,-433 16,-453 33,-48 42,-47 452,34 329,66 389,81 414,102 57,49 57,45 64,500 l 7,420 -32,32 c -29,30 -35,31 -84,26 l -52,-6 50,13 c 61,16 77,25 73,42 -6,24 -399,278 -453,292 -66,17 -58,18 -385,-37 z m 703,-317 c -7,-2 -21,-2 -30,0 -10,3 -4,5 12,5 17,0 24,-2 18,-5 z m -78,-13 c -16,-4 -41,-8 -55,-8 -22,0 -22,1 5,8 17,4 41,8 55,8 22,0 22,-1 -5,-8 z m -92,-17 c -7,-2 -21,-2 -30,0 -10,3 -4,5 12,5 17,0 24,-2 18,-5 z m -113,-19 c -36,-7 -74,-13 -85,-12 -27,1 93,26 125,26 14,0 -4,-6 -40,-14 z m -117,-21 c -7,-2 -21,-2 -30,0 -10,3 -4,5 12,5 17,0 24,-2 18,-5 z m -78,-13 c -16,-4 -41,-8 -55,-8 -22,0 -22,1 5,8 17,4 41,8 55,8 22,0 22,-1 -5,-8 z m -92,-17 c -7,-2 -21,-2 -30,0 -10,3 -4,5 12,5 17,0 24,-2 18,-5 z"
         id="svg_79" />
      <path
         d="m 7745,9120 c -342,-61 -356,-66 -399,-123 -19,-26 -21,-54 -35,-430 -8,-221 -11,-414 -8,-429 4,-15 19,-35 34,-45 25,-17 37,-15 372,51 190,38 358,75 373,82 14,8 36,29 48,49 20,32 23,62 41,363 28,490 28,486 -1,517 -17,18 -33,25 -59,24 -20,0 -184,-27 -366,-59 z"
         id="svg_80" />
      <path
         d="m 4384,8979 c -221,-37 -411,-72 -423,-78 -11,-7 -21,-17 -21,-24 1,-7 80,-70 176,-142 97,-71 178,-134 182,-140 3,-5 -1,-5 -9,1 -113,88 -342,254 -350,254 -29,0 -31,-52 -20,-476 6,-236 15,-445 21,-465 16,-56 37,-77 228,-232 212,-172 216,-175 234,-159 9,7 19,8 28,2 8,-6 31,-10 50,-10 60,0 780,148 813,167 16,10 38,34 48,53 18,32 19,64 19,453 0,457 -1,462 -58,486 -24,10 -87,2 -431,-58 -390,-69 -427,-77 -463,-108 -15,-13 -18,-12 -28,9 -7,13 -26,35 -44,50 l -31,28 34,-17 c 22,-10 58,-16 100,-15 75,1 836,133 869,151 12,6 22,17 22,24 0,7 -92,76 -205,155 -175,122 -212,144 -257,151 -68,12 -21,18 -484,-60 z"
         id="svg_81" />
      <path
         d="m 10990,8774 c -118,-24 -239,-49 -268,-55 -57,-11 -108,-48 -123,-88 -11,-29 -79,-648 -79,-721 0,-35 5,-52 20,-65 20,-18 27,-17 312,46 302,66 330,76 360,132 18,34 97,728 86,757 -19,51 -29,51 -308,-6 z"
         id="svg_84" />
      <path
         d="m 10175,8610 c -275,-57 -291,-61 -317,-89 -15,-17 -32,-47 -37,-68 -6,-21 -24,-195 -41,-387 -27,-319 -28,-352 -14,-373 8,-13 22,-27 30,-30 9,-3 151,25 317,62 261,58 306,71 331,94 15,14 32,37 38,51 10,28 78,649 78,721 0,54 -21,79 -66,78 -16,0 -159,-27 -319,-59 z"
         id="svg_85" />
      <path
         d="m 9401,8454 c -334,-68 -343,-71 -376,-135 -15,-28 -69,-683 -63,-760 2,-31 10,-47 29,-61 25,-19 25,-19 340,51 190,43 324,78 339,89 50,37 57,67 89,432 17,190 31,358 31,373 0,29 -39,78 -62,76 -7,-1 -154,-30 -327,-65 z"
         id="svg_88" />
      <path
         d="m 8560,8286 c -168,-34 -315,-69 -328,-77 -13,-8 -32,-29 -44,-47 -18,-30 -22,-69 -41,-416 -23,-418 -22,-429 30,-442 38,-10 658,129 693,155 57,41 59,52 88,455 31,436 32,430 -48,433 -25,1 -182,-27 -350,-61 z"
         id="svg_90" />
      <path
         d="m 7694,8112 c -188,-39 -331,-74 -347,-85 -57,-37 -59,-50 -75,-469 -12,-295 -13,-394 -4,-413 24,-52 38,-51 400,31 185,41 350,83 366,92 60,35 63,52 87,471 21,381 21,384 2,410 -16,20 -29,26 -64,28 -24,1 -188,-28 -365,-65 z"
         id="svg_93" />
      <path
         d="m 6813,7934 c -204,-41 -373,-80 -387,-89 -14,-9 -34,-35 -45,-58 -18,-39 -20,-74 -26,-439 l -7,-397 26,-26 c 14,-14 35,-25 48,-25 55,1 721,158 746,177 57,41 60,57 76,470 9,226 12,392 7,406 -10,27 -28,42 -56,49 -11,2 -183,-28 -382,-68 z"
         id="svg_95" />
      <path
         d="m 10845,7864 c -272,-62 -281,-65 -312,-98 -17,-19 -34,-49 -38,-68 -3,-18 -21,-179 -39,-358 -38,-358 -37,-372 18,-378 38,-5 564,126 593,147 46,34 52,61 93,403 22,183 40,343 40,356 0,27 -33,62 -57,61 -10,0 -144,-30 -298,-65 z"
         id="svg_97" />
      <path
         d="m 5869,7746 c -196,-40 -371,-78 -388,-86 -18,-7 -43,-29 -57,-49 l -24,-36 v -418 -418 l 25,-24 c 14,-15 36,-25 53,-25 47,0 744,160 773,177 15,9 36,33 48,53 20,35 21,57 27,427 4,214 4,401 0,416 -7,28 -51,58 -83,56 -10,-1 -178,-34 -374,-73 z"
         id="svg_98" />
      <path
         d="m 3943,7783 c -9,-24 -9,-41 1,-473 7,-332 10,-381 27,-426 18,-46 39,-68 219,-225 113,-99 209,-175 222,-177 13,-1 43,-5 68,-8 34,-4 134,15 425,81 413,93 418,95 451,172 21,50 20,802 -1,843 -18,34 -43,50 -80,50 -20,0 -688,-130 -791,-155 -11,-2 -32,-15 -47,-29 l -26,-24 -18,33 c -20,37 -405,355 -429,355 -8,0 -18,-8 -21,-17 z"
         id="svg_99" />
      <path
         d="m 10097,7695 c -153,-35 -289,-70 -302,-79 -55,-36 -57,-47 -92,-425 -34,-375 -34,-403 8,-416 29,-10 604,133 634,157 14,11 32,32 40,48 9,17 28,159 51,379 34,330 36,352 20,376 -12,19 -25,25 -49,24 -17,0 -157,-29 -310,-64 z"
         id="svg_101" />
      <path
         d="m 9316,7520 c -314,-72 -329,-78 -361,-140 -9,-17 -23,-156 -40,-388 -25,-336 -26,-364 -11,-387 12,-17 26,-25 46,-25 38,0 583,135 627,155 62,28 68,55 103,442 32,361 32,381 -4,405 -20,13 -56,7 -360,-62 z"
         id="svg_104" />
      <path
         d="m 8675,7375 c -77,-18 -216,-50 -310,-71 -160,-35 -172,-40 -207,-74 -23,-22 -38,-49 -42,-70 -3,-19 -14,-188 -25,-375 -21,-391 -20,-404 50,-405 41,0 639,149 665,166 51,34 60,77 84,415 29,414 29,408 1,431 -30,24 -50,22 -216,-17 z"
         id="svg_106" />
      <path
         d="m 7651,7144 c -343,-78 -354,-82 -387,-146 -20,-39 -50,-749 -33,-789 22,-55 38,-54 399,36 200,50 343,91 359,102 53,39 58,65 76,393 23,440 23,434 1,459 -13,14 -30,21 -55,20 -20,-1 -182,-34 -360,-75 z"
         id="svg_108" />
      <path
         d="m 10753,6997 c -306,-78 -324,-87 -343,-156 -12,-42 -70,-585 -70,-653 0,-47 18,-78 44,-78 35,0 574,154 590,168 40,37 49,78 87,397 21,176 39,328 39,338 0,20 -34,57 -52,56 -7,0 -140,-33 -295,-72 z"
         id="svg_110" />
      <path
         d="m 6785,6949 c -212,-48 -360,-87 -374,-97 -14,-10 -34,-31 -45,-46 -20,-26 -21,-46 -29,-413 -7,-299 -6,-391 4,-409 26,-50 42,-48 418,46 193,48 362,95 376,104 54,36 57,52 73,455 15,402 15,407 -35,430 -13,6 -27,11 -31,10 -4,0 -164,-36 -357,-80 z"
         id="svg_112" />
      <path
         d="m 10020,6814 c -281,-71 -296,-76 -327,-108 -17,-19 -34,-49 -37,-68 -9,-56 -56,-600 -56,-649 0,-45 20,-79 47,-79 6,0 143,36 305,80 265,71 296,82 320,109 15,17 31,47 36,68 6,21 24,182 42,357 l 33,320 -27,23 c -15,13 -30,23 -34,22 -4,0 -140,-34 -302,-75 z"
         id="svg_114" />
      <path
         d="m 5845,6737 c -198,-45 -371,-90 -384,-99 -13,-9 -32,-30 -42,-45 -18,-26 -19,-56 -19,-426 0,-241 4,-406 10,-417 5,-10 23,-23 40,-28 26,-9 83,2 390,78 199,50 373,96 389,104 54,29 65,58 72,211 4,77 8,257 9,400 l 2,260 -27,22 c -14,13 -38,23 -53,22 -15,0 -189,-37 -387,-82 z"
         id="svg_116" />
      <path
         d="m 3970,6785 c -10,-12 -11,-94 -5,-387 7,-385 13,-459 43,-514 22,-41 391,-384 412,-384 9,0 31,-7 49,-16 32,-16 42,-14 423,81 420,105 435,111 464,182 21,49 20,772 -1,812 -29,58 -39,57 -452,-35 -403,-90 -422,-95 -449,-125 -23,-26 -28,-24 -42,14 -8,23 -70,83 -212,207 -110,96 -204,176 -209,178 -4,1 -14,-4 -21,-13 z"
         id="svg_117" />
      <path
         d="m 9256,6623 c -164,-41 -309,-81 -322,-89 -52,-35 -60,-76 -85,-429 -12,-181 -19,-343 -15,-358 13,-54 30,-53 361,38 186,50 314,90 327,102 43,39 49,69 78,396 17,177 30,334 30,350 0,31 -32,68 -57,66 -10,-1 -152,-35 -317,-76 z"
         id="svg_118" />
      <path
         d="m 8455,6425 c -159,-41 -305,-81 -323,-89 -64,-31 -70,-60 -91,-446 -19,-344 -18,-372 13,-392 6,-4 20,-8 31,-8 38,-1 630,164 658,182 52,37 56,56 83,428 24,325 25,352 10,375 -13,20 -25,25 -54,24 -20,0 -167,-34 -327,-74 z"
         id="svg_121" />
      <path
         d="m 7617,6215 c -350,-88 -364,-94 -393,-161 -9,-21 -17,-140 -25,-382 -14,-377 -12,-396 34,-407 15,-4 151,28 358,84 317,86 336,93 366,125 17,19 34,49 37,68 14,80 42,684 33,711 -10,30 -35,48 -64,46 -10,0 -166,-38 -346,-84 z"
         id="svg_122" />
      <path
         d="m 10655,6156 c -143,-40 -270,-77 -282,-84 -47,-26 -59,-80 -93,-413 -35,-347 -35,-359 20,-359 43,0 540,148 570,169 50,36 56,63 95,394 42,356 41,368 -17,366 -18,0 -150,-33 -293,-73 z"
         id="svg_124" />
      <path
         d="m 6758,6001 c -190,-48 -358,-96 -373,-105 -58,-38 -62,-67 -69,-454 -7,-405 -6,-412 69,-412 47,0 687,177 715,198 52,38 58,66 69,362 17,425 17,449 -5,470 -11,10 -28,20 -39,23 -11,3 -176,-34 -367,-82 z"
         id="svg_127" />
      <path
         d="m 9932,5960 c -168,-46 -292,-86 -304,-97 -43,-38 -49,-69 -79,-401 -16,-179 -26,-334 -23,-344 14,-45 33,-43 327,43 155,45 295,88 310,96 52,26 64,73 97,395 16,163 30,310 30,326 0,33 -27,62 -56,61 -10,0 -146,-36 -302,-79 z"
         id="svg_129" />
      <path
         d="m 5825,5770 -350,-89 -37,-40 -38,-40 v -389 -389 l 23,-21 c 13,-12 33,-22 45,-22 41,0 727,191 752,209 61,44 61,49 70,444 4,199 4,372 -1,384 -10,28 -39,43 -81,42 -18,0 -190,-41 -383,-89 z"
         id="svg_130" />
      <path
         d="m 9177,5755 c -320,-88 -338,-97 -357,-164 -6,-20 -21,-178 -34,-351 -25,-327 -24,-349 15,-373 22,-14 613,159 650,191 15,12 32,37 38,55 11,34 61,565 61,647 0,39 -4,52 -22,64 -12,9 -29,16 -38,15 -8,-1 -149,-38 -313,-84 z"
         id="svg_131" />
      <path
         d="m 3991,5816 c -9,-11 -9,-110 -2,-404 9,-368 10,-392 31,-440 18,-42 60,-88 212,-237 111,-109 196,-185 208,-185 10,0 21,-4 25,-9 18,-29 72,-19 440,81 404,109 423,117 451,185 11,25 14,112 14,398 v 367 l -29,29 c -16,16 -39,29 -50,29 -12,0 -193,-43 -404,-96 -329,-82 -386,-99 -411,-122 -16,-15 -30,-22 -32,-17 -18,47 -64,98 -231,255 -106,99 -197,180 -202,180 -5,0 -14,-6 -20,-14 z"
         id="svg_132" />
      <path
         d="m 8400,5544 c -168,-46 -316,-92 -330,-102 -53,-38 -57,-64 -78,-417 -10,-182 -15,-340 -10,-353 18,-52 33,-50 364,47 170,50 320,99 334,109 54,40 58,59 80,359 30,408 30,401 1,424 -13,10 -31,19 -40,18 -9,-1 -153,-39 -321,-85 z"
         id="svg_136" />
      <path
         d="m 10580,5351 c -140,-42 -265,-80 -278,-85 -12,-4 -34,-24 -47,-44 -22,-33 -27,-66 -54,-329 -35,-326 -36,-354 -19,-371 23,-23 11,-26 440,109 218,69 202,43 244,397 43,353 44,370 19,388 -10,8 -26,13 -34,13 -9,-1 -131,-36 -271,-78 z"
         id="svg_137" />
      <path
         d="m 7579,5321 c -174,-48 -328,-95 -342,-104 -55,-36 -58,-53 -73,-425 -15,-373 -14,-381 35,-397 30,-9 670,181 699,208 46,43 50,63 66,353 25,433 25,413 -3,435 -13,10 -33,19 -45,18 -11,-1 -163,-40 -337,-88 z"
         id="svg_138" />
      <path
         d="m 9845,5135 c -259,-77 -282,-85 -307,-116 -34,-40 -32,-28 -64,-388 -26,-306 -25,-333 13,-345 10,-3 146,34 303,84 261,81 288,92 317,124 38,41 35,27 73,391 27,260 28,291 15,312 -10,15 -25,23 -43,22 -15,0 -153,-38 -307,-84 z"
         id="svg_143" />
      <path
         d="m 6718,5086 c -219,-60 -344,-99 -358,-111 -51,-46 -53,-57 -61,-430 -8,-378 -7,-388 44,-400 22,-6 657,174 709,201 14,8 37,28 49,46 22,31 24,46 36,323 17,415 17,421 -7,445 -11,11 -32,20 -47,19 -16,0 -180,-42 -365,-93 z"
         id="svg_144" />
      <path
         d="m 9112,4920 c -302,-90 -328,-102 -351,-158 -15,-37 -60,-651 -50,-679 5,-12 19,-25 32,-28 29,-8 589,165 627,193 50,37 57,69 86,406 l 28,319 -23,18 c -13,11 -31,19 -40,18 -9,-1 -148,-41 -309,-89 z"
         id="svg_145" />
      <path
         d="m 5830,4846 c -184,-51 -345,-98 -356,-104 -12,-6 -34,-25 -48,-43 l -26,-31 v -373 c 0,-404 -1,-397 54,-411 14,-3 164,36 380,100 389,114 407,122 425,196 5,19 12,186 15,371 6,329 5,337 -15,363 -16,20 -29,26 -57,25 -20,-1 -188,-43 -372,-93 z"
         id="svg_147" />
      <path
         d="m 4011,4886 c -8,-10 -8,-109 -1,-377 10,-377 13,-405 37,-453 21,-41 383,-416 402,-416 9,0 25,-7 35,-15 11,-8 32,-15 48,-15 42,0 739,207 767,228 14,10 34,31 45,46 20,27 21,39 21,396 0,348 -1,369 -19,389 -12,13 -31,21 -52,21 -17,0 -180,-40 -360,-89 -181,-49 -348,-94 -371,-100 -23,-6 -55,-25 -71,-41 l -29,-29 -22,49 c -16,36 -69,94 -211,234 -105,102 -194,186 -199,186 -5,0 -14,-6 -20,-14 z"
         id="svg_149" />
      <path
         d="m 8346,4695 c -154,-45 -294,-90 -311,-98 -64,-31 -71,-64 -91,-425 -16,-310 -16,-323 1,-342 10,-11 28,-20 39,-20 40,0 611,183 642,206 17,13 36,35 43,51 18,46 61,653 47,683 -19,43 -65,36 -370,-55 z"
         id="svg_150" />
      <path
         d="m 10481,4565 c -258,-82 -296,-100 -322,-147 -11,-21 -71,-578 -67,-621 2,-16 12,-36 23,-43 19,-12 51,-4 290,76 239,80 274,94 302,125 18,19 35,44 37,57 10,42 66,538 66,576 0,43 -14,62 -44,61 -12,0 -140,-38 -285,-84 z"
         id="svg_151" />
      <path
         d="m 7532,4456 c -335,-100 -360,-111 -381,-180 -5,-17 -15,-176 -21,-354 -11,-304 -11,-324 5,-343 10,-10 31,-19 47,-19 16,0 168,43 336,96 289,90 309,98 344,133 43,45 41,31 63,440 14,246 14,276 0,297 -11,17 -24,24 -48,23 -17,0 -173,-42 -345,-93 z"
         id="svg_153" />
      <path
         d="m 9780,4344 c -146,-46 -276,-92 -290,-102 -49,-36 -57,-70 -85,-390 -25,-288 -26,-305 -9,-323 9,-10 24,-19 33,-19 25,0 550,177 577,195 51,33 56,52 90,373 28,270 30,310 18,330 -10,14 -24,22 -42,21 -15,0 -146,-39 -292,-85 z"
         id="svg_156" />
      <path
         d="m 6700,4212 c -179,-54 -335,-103 -347,-110 -11,-6 -31,-28 -43,-47 -22,-35 -22,-44 -24,-387 l -1,-352 27,-15 c 25,-14 44,-10 358,89 182,57 345,112 360,122 58,35 62,53 76,413 13,314 12,331 -5,355 -11,15 -29,26 -47,27 -16,1 -175,-42 -354,-95 z"
         id="svg_157" />
      <path
         d="m 9052,4115 c -161,-51 -302,-101 -313,-111 -43,-39 -48,-65 -71,-387 -24,-343 -24,-347 31,-347 39,0 590,186 614,207 11,10 26,32 33,48 7,17 25,170 40,339 l 27,309 -22,19 c -13,10 -28,18 -35,17 -6,0 -143,-42 -304,-94 z"
         id="svg_158" />
      <path
         d="m 5828,3956 c -191,-57 -359,-111 -373,-120 -51,-33 -53,-45 -56,-422 -4,-335 -3,-353 15,-373 12,-13 31,-21 50,-21 44,0 712,213 735,234 46,42 49,64 56,422 l 8,340 -28,22 c -15,12 -35,22 -44,21 -9,0 -172,-47 -363,-103 z"
         id="svg_161" />
      <path
         d="m 4027,3988 c -9,-26 13,-722 24,-757 16,-49 33,-71 225,-282 92,-101 177,-186 188,-187 11,-2 29,-10 40,-18 11,-8 30,-14 42,-14 11,0 184,51 383,114 259,81 369,120 388,137 51,48 53,63 53,422 0,323 -1,335 -21,361 -14,18 -30,26 -52,26 -18,0 -196,-48 -396,-107 -333,-98 -368,-110 -398,-140 -26,-27 -33,-30 -33,-16 -1,38 -42,90 -220,278 -173,182 -211,214 -223,183 z"
         id="svg_162" />
      <path
         d="m 8294,3876 c -161,-51 -304,-100 -318,-109 -53,-35 -57,-58 -77,-396 -12,-208 -15,-321 -8,-333 5,-10 20,-20 32,-23 24,-6 602,183 643,210 49,32 55,61 80,390 20,273 21,313 8,333 -9,14 -24,22 -42,21 -15,0 -158,-42 -318,-93 z"
         id="svg_163" />
      <path
         d="m 10401,3810 c -145,-49 -273,-97 -283,-107 -41,-37 -49,-73 -80,-368 -33,-314 -32,-325 16,-325 20,0 508,170 546,190 46,25 57,66 89,335 17,143 32,277 33,297 1,41 -15,68 -41,67 -9,0 -135,-41 -280,-89 z"
         id="svg_164" />
      <path
         d="m 7510,3630 c -173,-55 -326,-108 -340,-118 -56,-42 -58,-53 -71,-388 -6,-172 -9,-323 -5,-338 13,-51 38,-47 382,68 329,109 351,120 373,177 5,15 18,170 27,344 l 18,318 -23,18 c -13,11 -28,19 -35,19 -6,-1 -153,-46 -326,-100 z"
         id="svg_166" />
      <path
         d="m 9740,3589 c -323,-109 -317,-106 -347,-146 -26,-33 -27,-45 -54,-336 -16,-181 -23,-309 -18,-318 5,-9 16,-20 26,-23 23,-9 557,181 593,211 15,12 32,35 38,50 7,16 25,156 41,313 27,253 28,287 15,308 -8,12 -24,22 -37,21 -12,0 -128,-36 -257,-80 z"
         id="svg_167" />
      <path
         d="m 6681,3369 c -173,-55 -329,-108 -347,-119 -59,-37 -61,-52 -69,-411 -7,-324 -7,-327 14,-348 11,-11 28,-21 36,-21 24,0 666,218 692,235 50,33 54,57 67,394 14,358 12,372 -54,370 -14,0 -166,-45 -339,-100 z"
         id="svg_169" />
      <path
         d="m 8990,3336 c -151,-51 -285,-99 -297,-107 -52,-32 -61,-74 -83,-385 -11,-160 -18,-299 -14,-308 14,-38 51,-30 341,72 157,56 295,109 305,119 43,39 49,70 76,373 28,324 28,331 -27,329 -14,0 -150,-42 -301,-93 z"
         id="svg_170" />
      <path
         d="m 6165,3205 c -5,-2 -156,-49 -335,-104 -179,-56 -340,-109 -358,-118 -18,-9 -42,-33 -55,-52 -21,-35 -22,-45 -25,-361 -2,-249 1,-331 11,-350 24,-47 60,-41 421,80 404,134 397,130 408,268 12,165 9,609 -4,620 -16,12 -50,21 -63,17 z"
         id="svg_172" />
      <path
         d="m 8243,3087 c -321,-109 -345,-121 -363,-186 -8,-31 -40,-505 -40,-599 0,-23 7,-36 25,-48 24,-15 35,-12 327,91 311,109 344,126 367,184 8,20 52,541 51,609 0,16 -37,52 -52,51 -7,0 -149,-46 -315,-102 z"
         id="svg_173" />
      <path
         d="m 4047,3121 c -6,-24 10,-640 18,-696 9,-62 27,-87 220,-309 121,-139 185,-206 196,-203 8,2 24,-2 34,-9 10,-8 33,-14 49,-14 42,0 719,226 749,250 55,43 57,60 57,414 v 327 l -25,24 c -13,14 -32,25 -41,25 -9,0 -181,-52 -383,-115 -334,-105 -369,-118 -397,-148 l -31,-33 -24,52 c -17,37 -79,114 -207,253 -100,111 -189,201 -196,201 -8,0 -16,-9 -19,-19 z"
         id="svg_174" />
      <path
         d="m 7474,2830 c -161,-54 -305,-105 -322,-114 -64,-33 -69,-55 -81,-334 -15,-342 -14,-377 5,-396 8,-9 25,-16 36,-16 26,0 615,208 646,228 50,32 55,58 73,382 16,269 16,308 3,327 -9,15 -24,23 -42,22 -15,0 -158,-45 -318,-99 z"
         id="svg_175" />
      <path
         d="m 6648,2552 c -338,-114 -366,-128 -386,-195 -6,-17 -12,-169 -15,-336 -4,-286 -3,-305 14,-322 11,-11 26,-19 34,-19 29,0 669,231 688,248 46,42 50,63 60,385 8,214 8,314 0,325 -21,34 -74,22 -395,-86 z"
         id="svg_177" />
      <path
         d="m 5822,2275 c -188,-62 -354,-122 -370,-134 -58,-41 -62,-69 -62,-405 0,-280 1,-306 18,-327 12,-14 30,-22 48,-22 16,0 178,53 359,117 346,123 375,137 394,200 5,17 12,169 15,337 6,285 5,306 -11,321 -10,8 -25,18 -34,21 -10,3 -170,-45 -357,-108 z"
         id="svg_178" />
      <path
         d="m 4068,2293 c -3,-10 -1,-163 3,-340 6,-255 11,-332 23,-371 13,-37 62,-103 201,-270 102,-122 189,-222 195,-222 5,0 12,5 16,11 5,8 9,7 15,-4 22,-39 56,-31 419,98 217,77 364,134 378,148 51,47 52,54 52,387 0,200 -4,318 -11,331 -26,50 -41,47 -408,-77 -190,-64 -358,-122 -373,-130 -14,-7 -37,-26 -49,-42 l -24,-28 -21,51 c -14,37 -74,113 -204,263 -101,117 -189,212 -196,212 -6,0 -14,-8 -16,-17 z"
         id="svg_179" />
    </g>
  </g>
</svg>
