
<svg width="1041" height="1044" viewBox="0 0 1041 1044" fill="none" xmlns="http://www.w3.org/2000/svg">
<path d="M43.5 0.5L3 43.5V1042H1004.5L1039 1007.5V0.5H43.5Z" fill="#DAA520" stroke="black"/>
<line x1="5" y1="140.854" x2="1005" y2="140.854" stroke="black" stroke-width="5"/>
<line x1="5" y1="40.8552" x2="1005" y2="40.8552" stroke="black" stroke-width="5"/>
<line x1="5" y1="240.854" x2="1005" y2="240.854" stroke="black" stroke-width="5"/>
<line x1="5" y1="340.854" x2="1005" y2="340.854" stroke="black" stroke-width="5"/>
<line x1="5" y1="440.854" x2="1005" y2="440.854" stroke="black" stroke-width="5"/>
<line x1="5" y1="540.854" x2="1005" y2="540.854" stroke="black" stroke-width="5"/>
<line x1="5" y1="640.854" x2="1005" y2="640.854" stroke="black" stroke-width="5"/>
<line x1="5" y1="740.854" x2="1005" y2="740.854" stroke="black" stroke-width="5"/>
<line x1="5" y1="840.854" x2="1005" y2="840.854" stroke="black" stroke-width="5"/>
<line x1="5" y1="940.854" x2="1005" y2="940.854" stroke="black" stroke-width="5"/>
<line x1="5" y1="1040.85" x2="1005" y2="1040.85" stroke="black" stroke-width="5"/>
<line x1="2.5" y1="1043.35" x2="2.5" y2="43.354" stroke="black" stroke-width="5"/>
<line x1="602.5" y1="1043.35" x2="602.5" y2="43.354" stroke="black" stroke-width="5"/>
<line x1="1002.5" y1="1043.35" x2="1002.5" y2="43.354" stroke="black" stroke-width="5"/>
<line x1="1037.5" y1="1008.35" x2="1037.5" y2="8.354" stroke="black" stroke-width="5"/>
<line x1="902.5" y1="1043.35" x2="902.5" y2="43.354" stroke="black" stroke-width="5"/>
<line x1="802.5" y1="1043.35" x2="802.5" y2="43.354" stroke="black" stroke-width="5"/>
<line x1="702.5" y1="1043.35" x2="702.5" y2="43.354" stroke="black" stroke-width="5"/>
<line x1="102.5" y1="1043.35" x2="102.5" y2="43.354" stroke="black" stroke-width="5"/>
<line x1="502.5" y1="1043.35" x2="502.5" y2="43.354" stroke="black" stroke-width="5"/>
<line x1="402.5" y1="1043.35" x2="402.5" y2="43.354" stroke="black" stroke-width="5"/>
<line x1="302.5" y1="1043.35" x2="302.5" y2="43.354" stroke="black" stroke-width="5"/>
<line x1="202.5" y1="1043.35" x2="202.5" y2="43.354" stroke="black" stroke-width="5"/>
<line x1="1003.23" y1="41.5875" x2="1038.59" y2="6.23212" stroke="black" stroke-width="5"/>
<line x1="3.23223" y1="41.5875" x2="38.5876" y2="6.23212" stroke="black" stroke-width="5"/>
<line x1="103.232" y1="41.5875" x2="138.588" y2="6.23212" stroke="black" stroke-width="5"/>
<line x1="203.232" y1="41.5875" x2="238.588" y2="6.23212" stroke="black" stroke-width="5"/>
<line x1="303.232" y1="41.5875" x2="338.588" y2="6.23212" stroke="black" stroke-width="5"/>
<line x1="603.232" y1="41.5875" x2="638.588" y2="6.23212" stroke="black" stroke-width="5"/>
<line x1="403.232" y1="41.5875" x2="438.588" y2="6.23212" stroke="black" stroke-width="5"/>
<line x1="503.232" y1="41.5875" x2="538.588" y2="6.23212" stroke="black" stroke-width="5"/>
<line x1="703.232" y1="41.5875" x2="738.588" y2="6.23212" stroke="black" stroke-width="5"/>
<line x1="803.232" y1="41.5875" x2="838.588" y2="6.23212" stroke="black" stroke-width="5"/>
<line x1="903.232" y1="41.5875" x2="938.588" y2="6.23212" stroke="black" stroke-width="5"/>
<line x1="1003.23" y1="141.586" x2="1038.59" y2="106.231" stroke="black" stroke-width="5"/>
<line x1="1003.23" y1="1041.59" x2="1038.59" y2="1006.23" stroke="black" stroke-width="5"/>
<line x1="1003.23" y1="941.586" x2="1038.59" y2="906.231" stroke="black" stroke-width="5"/>
<line x1="1003.23" y1="841.586" x2="1038.59" y2="806.231" stroke="black" stroke-width="5"/>
<line x1="1003.23" y1="741.586" x2="1038.59" y2="706.231" stroke="black" stroke-width="5"/>
<line x1="1003.23" y1="641.586" x2="1038.59" y2="606.231" stroke="black" stroke-width="5"/>
<line x1="1003.23" y1="441.586" x2="1038.59" y2="406.231" stroke="black" stroke-width="5"/>
<line x1="1003.23" y1="541.586" x2="1038.59" y2="506.231" stroke="black" stroke-width="5"/>
<line x1="1003.23" y1="341.586" x2="1038.59" y2="306.231" stroke="black" stroke-width="5"/>
<line x1="1003.23" y1="241.586" x2="1038.59" y2="206.231" stroke="black" stroke-width="5"/>
<line x1="1003.23" y1="41.5875" x2="1038.59" y2="6.23212" stroke="black" stroke-width="5"/>
<line x1="3.23223" y1="41.5875" x2="38.5876" y2="6.23212" stroke="black" stroke-width="5"/>
<line x1="103.232" y1="41.5875" x2="138.588" y2="6.23212" stroke="black" stroke-width="5"/>
<line x1="203.232" y1="41.5875" x2="238.588" y2="6.23212" stroke="black" stroke-width="5"/>
<line x1="303.232" y1="41.5875" x2="338.588" y2="6.23212" stroke="black" stroke-width="5"/>
<line x1="603.232" y1="41.5875" x2="638.588" y2="6.23212" stroke="black" stroke-width="5"/>
<line x1="403.232" y1="41.5875" x2="438.588" y2="6.23212" stroke="black" stroke-width="5"/>
<line x1="503.232" y1="41.5875" x2="538.588" y2="6.23212" stroke="black" stroke-width="5"/>
<line x1="703.232" y1="41.5875" x2="738.588" y2="6.23212" stroke="black" stroke-width="5"/>
<line x1="803.232" y1="41.5875" x2="838.588" y2="6.23212" stroke="black" stroke-width="5"/>
<line x1="903.232" y1="41.5875" x2="938.588" y2="6.23212" stroke="black" stroke-width="5"/>
<line x1="1003.23" y1="141.586" x2="1038.59" y2="106.231" stroke="black" stroke-width="5"/>
<line x1="1003.23" y1="1041.59" x2="1038.59" y2="1006.23" stroke="black" stroke-width="5"/>
<line x1="1003.23" y1="941.586" x2="1038.59" y2="906.231" stroke="black" stroke-width="5"/>
<line x1="1003.23" y1="841.586" x2="1038.59" y2="806.231" stroke="black" stroke-width="5"/>
<line x1="1003.23" y1="741.586" x2="1038.59" y2="706.231" stroke="black" stroke-width="5"/>
<line x1="1003.23" y1="641.586" x2="1038.59" y2="606.231" stroke="black" stroke-width="5"/>
<line x1="1003.23" y1="441.586" x2="1038.59" y2="406.231" stroke="black" stroke-width="5"/>
<line x1="1003.23" y1="541.586" x2="1038.59" y2="506.231" stroke="black" stroke-width="5"/>
<line x1="1003.23" y1="341.586" x2="1038.59" y2="306.231" stroke="black" stroke-width="5"/>
<line x1="1003.23" y1="241.586" x2="1038.59" y2="206.231" stroke="black" stroke-width="5"/>
<line x1="1037.5" y1="1008.35" x2="1037.5" y2="8.354" stroke="black" stroke-width="5"/>
<line x1="40" y1="5.85522" x2="1040" y2="5.85522" stroke="black" stroke-width="5"/>
<line x1="1003.23" y1="41.5875" x2="1038.59" y2="6.23212" stroke="black" stroke-width="5"/>
<line x1="3.23223" y1="41.5875" x2="38.5876" y2="6.23212" stroke="black" stroke-width="5"/>
<line x1="103.232" y1="41.5875" x2="138.588" y2="6.23212" stroke="black" stroke-width="5"/>
<line x1="203.232" y1="41.5875" x2="238.588" y2="6.23212" stroke="black" stroke-width="5"/>
<line x1="303.232" y1="41.5875" x2="338.588" y2="6.23212" stroke="black" stroke-width="5"/>
<line x1="603.232" y1="41.5875" x2="638.588" y2="6.23212" stroke="black" stroke-width="5"/>
<line x1="403.232" y1="41.5875" x2="438.588" y2="6.23212" stroke="black" stroke-width="5"/>
<line x1="503.232" y1="41.5875" x2="538.588" y2="6.23212" stroke="black" stroke-width="5"/>
<line x1="703.232" y1="41.5875" x2="738.588" y2="6.23212" stroke="black" stroke-width="5"/>
<line x1="803.232" y1="41.5875" x2="838.588" y2="6.23212" stroke="black" stroke-width="5"/>
<line x1="903.232" y1="41.5875" x2="938.588" y2="6.23212" stroke="black" stroke-width="5"/>
<line x1="1003.23" y1="141.586" x2="1038.59" y2="106.231" stroke="black" stroke-width="5"/>
<line x1="1003.23" y1="1041.59" x2="1038.59" y2="1006.23" stroke="black" stroke-width="5"/>
<line x1="1003.23" y1="941.586" x2="1038.59" y2="906.231" stroke="black" stroke-width="5"/>
<line x1="1003.23" y1="841.586" x2="1038.59" y2="806.231" stroke="black" stroke-width="5"/>
<line x1="1003.23" y1="741.586" x2="1038.59" y2="706.231" stroke="black" stroke-width="5"/>
<line x1="1003.23" y1="641.586" x2="1038.59" y2="606.231" stroke="black" stroke-width="5"/>
<line x1="1003.23" y1="441.586" x2="1038.59" y2="406.231" stroke="black" stroke-width="5"/>
<line x1="1003.23" y1="541.586" x2="1038.59" y2="506.231" stroke="black" stroke-width="5"/>
<line x1="1003.23" y1="341.586" x2="1038.59" y2="306.231" stroke="black" stroke-width="5"/>
<line x1="1003.23" y1="241.586" x2="1038.59" y2="206.231" stroke="black" stroke-width="5"/>
</svg>
