<svg width="141" height="1043" viewBox="0 0 141 1043" fill="none" xmlns="http://www.w3.org/2000/svg">
<path d="M43 2L1.5 41V1040H106.5L137 1009.5V2H43Z" fill="#DAA520" stroke="black"/>
<path d="M40 3L139 4.5" stroke="black" stroke-width="5"/>
<line x1="5" y1="139.5" x2="101" y2="139.5" stroke="black" stroke-width="5"/>
<line x1="5" y1="39.5" x2="101" y2="39.5" stroke="black" stroke-width="5"/>
<line x1="5" y1="239.5" x2="101" y2="239.5" stroke="black" stroke-width="5"/>
<line x1="5" y1="339.5" x2="101" y2="339.5" stroke="black" stroke-width="5"/>
<line x1="5" y1="439.5" x2="101" y2="439.5" stroke="black" stroke-width="5"/>
<line x1="5" y1="539.5" x2="101" y2="539.5" stroke="black" stroke-width="5"/>
<line x1="5" y1="639.5" x2="101" y2="639.5" stroke="black" stroke-width="5"/>
<line x1="5" y1="739.5" x2="101" y2="739.5" stroke="black" stroke-width="5"/>
<line x1="5" y1="839.5" x2="101" y2="839.5" stroke="black" stroke-width="5"/>
<line x1="5" y1="939.5" x2="101" y2="939.5" stroke="black" stroke-width="5"/>
<line x1="5" y1="1039.5" x2="101" y2="1039.5" stroke="black" stroke-width="5"/>
<line x1="102.5" y1="1042.36" x2="102.5" y2="42.3555" stroke="black" stroke-width="5"/>
<line x1="2.5" y1="1042.36" x2="2.5" y2="42.3555" stroke="black" stroke-width="5"/>
<line x1="103.232" y1="40.5875" x2="138.588" y2="5.23212" stroke="black" stroke-width="5"/>
<line x1="103.232" y1="140.587" x2="138.588" y2="105.232" stroke="black" stroke-width="5"/>
<line x1="103.232" y1="1040.59" x2="138.588" y2="1005.23" stroke="black" stroke-width="5"/>
<line x1="103.232" y1="940.588" x2="138.588" y2="905.232" stroke="black" stroke-width="5"/>
<line x1="103.232" y1="840.588" x2="138.588" y2="805.232" stroke="black" stroke-width="5"/>
<line x1="103.232" y1="740.588" x2="138.588" y2="705.232" stroke="black" stroke-width="5"/>
<line x1="103.232" y1="640.588" x2="138.588" y2="605.232" stroke="black" stroke-width="5"/>
<line x1="103.232" y1="440.588" x2="138.588" y2="405.232" stroke="black" stroke-width="5"/>
<line x1="103.232" y1="540.588" x2="138.588" y2="505.232" stroke="black" stroke-width="5"/>
<line x1="103.232" y1="340.588" x2="138.588" y2="305.232" stroke="black" stroke-width="5"/>
<line x1="103.232" y1="240.588" x2="138.588" y2="205.232" stroke="black" stroke-width="5"/>
<line x1="103.232" y1="40.5875" x2="138.588" y2="5.23212" stroke="black" stroke-width="5"/>
<line x1="103.232" y1="140.587" x2="138.588" y2="105.232" stroke="black" stroke-width="5"/>
<line x1="103.232" y1="1040.59" x2="138.588" y2="1005.23" stroke="black" stroke-width="5"/>
<line x1="103.232" y1="940.588" x2="138.588" y2="905.232" stroke="black" stroke-width="5"/>
<line x1="103.232" y1="840.588" x2="138.588" y2="805.232" stroke="black" stroke-width="5"/>
<line x1="103.232" y1="740.588" x2="138.588" y2="705.232" stroke="black" stroke-width="5"/>
<line x1="103.232" y1="640.588" x2="138.588" y2="605.232" stroke="black" stroke-width="5"/>
<line x1="103.232" y1="440.588" x2="138.588" y2="405.232" stroke="black" stroke-width="5"/>
<line x1="103.232" y1="540.588" x2="138.588" y2="505.232" stroke="black" stroke-width="5"/>
<line x1="103.232" y1="340.588" x2="138.588" y2="305.232" stroke="black" stroke-width="5"/>
<line x1="103.232" y1="240.588" x2="138.588" y2="205.232" stroke="black" stroke-width="5"/>
<line x1="137.5" y1="1007.36" x2="137.5" y2="7.35547" stroke="black" stroke-width="5"/>
<line x1="103.232" y1="40.5875" x2="138.588" y2="5.23212" stroke="black" stroke-width="5"/>
<line x1="3.23223" y1="40.5875" x2="38.5876" y2="5.23212" stroke="black" stroke-width="5"/>
<line x1="103.232" y1="140.587" x2="138.588" y2="105.232" stroke="black" stroke-width="5"/>
<line x1="103.232" y1="1040.59" x2="138.588" y2="1005.23" stroke="black" stroke-width="5"/>
<line x1="103.232" y1="940.588" x2="138.588" y2="905.232" stroke="black" stroke-width="5"/>
<line x1="103.232" y1="840.588" x2="138.588" y2="805.232" stroke="black" stroke-width="5"/>
<line x1="103.232" y1="740.588" x2="138.588" y2="705.232" stroke="black" stroke-width="5"/>
<line x1="103.232" y1="640.588" x2="138.588" y2="605.232" stroke="black" stroke-width="5"/>
<line x1="103.232" y1="440.588" x2="138.588" y2="405.232" stroke="black" stroke-width="5"/>
<line x1="103.232" y1="540.588" x2="138.588" y2="505.232" stroke="black" stroke-width="5"/>
<line x1="103.232" y1="340.588" x2="138.588" y2="305.232" stroke="black" stroke-width="5"/>
<line x1="103.232" y1="240.588" x2="138.588" y2="205.232" stroke="black" stroke-width="5"/>
</svg>

