<svg width="1348" height="1340" viewBox="0 0 1348 1340" fill="none" xmlns="http://www.w3.org/2000/svg">
<path d="M348 2.5L3.5 339V1339H1002L1345 1009V2.5H348Z" fill="#DAA520" stroke="black"/>
<line x1="5" y1="437.498" x2="1005" y2="437.498" stroke="black" stroke-width="5"/>
<line x1="5" y1="337.499" x2="1005" y2="337.499" stroke="black" stroke-width="5"/>
<line x1="40" y1="302.499" x2="1040" y2="302.499" stroke="black" stroke-width="5"/>
<line x1="5" y1="537.497" x2="1005" y2="537.497" stroke="black" stroke-width="5"/>
<line x1="5" y1="637.497" x2="1005" y2="637.497" stroke="black" stroke-width="5"/>
<line x1="5" y1="737.497" x2="1005" y2="737.497" stroke="black" stroke-width="5"/>
<line x1="5" y1="837.497" x2="1005" y2="837.497" stroke="black" stroke-width="5"/>
<line x1="5" y1="937.497" x2="1005" y2="937.497" stroke="black" stroke-width="5"/>
<line x1="5" y1="1037.5" x2="1005" y2="1037.5" stroke="black" stroke-width="5"/>
<line x1="5" y1="1137.5" x2="1005" y2="1137.5" stroke="black" stroke-width="5"/>
<line x1="5" y1="1237.5" x2="1005" y2="1237.5" stroke="black" stroke-width="5"/>
<line x1="5" y1="1337.5" x2="1005" y2="1337.5" stroke="black" stroke-width="5"/>
<line x1="2.5" y1="1340" x2="2.5" y2="339.997" stroke="black" stroke-width="5"/>
<line x1="602.5" y1="1340" x2="602.5" y2="339.997" stroke="black" stroke-width="5"/>
<line x1="1002.5" y1="1340" x2="1002.5" y2="339.997" stroke="black" stroke-width="5"/>
<line x1="1037.5" y1="1305" x2="1037.5" y2="304.997" stroke="black" stroke-width="5"/>
<line x1="902.5" y1="1340" x2="902.5" y2="339.997" stroke="black" stroke-width="5"/>
<line x1="802.5" y1="1340" x2="802.5" y2="339.997" stroke="black" stroke-width="5"/>
<line x1="702.5" y1="1340" x2="702.5" y2="339.997" stroke="black" stroke-width="5"/>
<line x1="102.5" y1="1340" x2="102.5" y2="339.997" stroke="black" stroke-width="5"/>
<line x1="502.5" y1="1340" x2="502.5" y2="339.997" stroke="black" stroke-width="5"/>
<line x1="402.5" y1="1340" x2="402.5" y2="339.997" stroke="black" stroke-width="5"/>
<line x1="302.5" y1="1340" x2="302.5" y2="339.997" stroke="black" stroke-width="5"/>
<line x1="202.5" y1="1340" x2="202.5" y2="339.997" stroke="black" stroke-width="5"/>
<line x1="1003.23" y1="338.231" x2="1038.59" y2="302.875" stroke="black" stroke-width="5"/>
<line x1="3.23223" y1="338.231" x2="38.5876" y2="302.875" stroke="black" stroke-width="5"/>
<line x1="103.232" y1="338.231" x2="138.588" y2="302.875" stroke="black" stroke-width="5"/>
<line x1="203.232" y1="338.231" x2="238.588" y2="302.875" stroke="black" stroke-width="5"/>
<line x1="303.232" y1="338.231" x2="338.588" y2="302.875" stroke="black" stroke-width="5"/>
<line x1="603.232" y1="338.231" x2="638.588" y2="302.875" stroke="black" stroke-width="5"/>
<line x1="403.232" y1="338.231" x2="438.588" y2="302.875" stroke="black" stroke-width="5"/>
<line x1="503.232" y1="338.231" x2="538.588" y2="302.875" stroke="black" stroke-width="5"/>
<line x1="703.232" y1="338.231" x2="738.588" y2="302.875" stroke="black" stroke-width="5"/>
<line x1="803.232" y1="338.231" x2="838.588" y2="302.875" stroke="black" stroke-width="5"/>
<line x1="903.232" y1="338.231" x2="938.588" y2="302.875" stroke="black" stroke-width="5"/>
<line x1="1003.23" y1="438.23" x2="1038.59" y2="402.875" stroke="black" stroke-width="5"/>
<line x1="1003.23" y1="1338.23" x2="1038.59" y2="1302.87" stroke="black" stroke-width="5"/>
<line x1="1003.23" y1="1238.23" x2="1038.59" y2="1202.87" stroke="black" stroke-width="5"/>
<line x1="1003.23" y1="1138.23" x2="1038.59" y2="1102.87" stroke="black" stroke-width="5"/>
<line x1="1003.23" y1="1038.23" x2="1038.59" y2="1002.87" stroke="black" stroke-width="5"/>
<line x1="1003.23" y1="938.23" x2="1038.59" y2="902.874" stroke="black" stroke-width="5"/>
<line x1="1003.23" y1="738.23" x2="1038.59" y2="702.874" stroke="black" stroke-width="5"/>
<line x1="1003.23" y1="838.23" x2="1038.59" y2="802.874" stroke="black" stroke-width="5"/>
<line x1="1003.23" y1="638.23" x2="1038.59" y2="602.874" stroke="black" stroke-width="5"/>
<line x1="1003.23" y1="538.23" x2="1038.59" y2="502.874" stroke="black" stroke-width="5"/>
<line x1="40" y1="302.499" x2="1040" y2="302.499" stroke="black" stroke-width="5"/>
<line x1="1003.23" y1="338.231" x2="1038.59" y2="302.875" stroke="black" stroke-width="5"/>
<line x1="3.23223" y1="338.231" x2="38.5876" y2="302.875" stroke="black" stroke-width="5"/>
<line x1="103.232" y1="338.231" x2="138.588" y2="302.875" stroke="black" stroke-width="5"/>
<line x1="203.232" y1="338.231" x2="238.588" y2="302.875" stroke="black" stroke-width="5"/>
<line x1="303.232" y1="338.231" x2="338.588" y2="302.875" stroke="black" stroke-width="5"/>
<line x1="603.232" y1="338.231" x2="638.588" y2="302.875" stroke="black" stroke-width="5"/>
<line x1="403.232" y1="338.231" x2="438.588" y2="302.875" stroke="black" stroke-width="5"/>
<line x1="503.232" y1="338.231" x2="538.588" y2="302.875" stroke="black" stroke-width="5"/>
<line x1="703.232" y1="338.231" x2="738.588" y2="302.875" stroke="black" stroke-width="5"/>
<line x1="803.232" y1="338.231" x2="838.588" y2="302.875" stroke="black" stroke-width="5"/>
<line x1="903.232" y1="338.231" x2="938.588" y2="302.875" stroke="black" stroke-width="5"/>
<line x1="1003.23" y1="438.23" x2="1038.59" y2="402.875" stroke="black" stroke-width="5"/>
<line x1="1003.23" y1="1338.23" x2="1038.59" y2="1302.87" stroke="black" stroke-width="5"/>
<line x1="1003.23" y1="1238.23" x2="1038.59" y2="1202.87" stroke="black" stroke-width="5"/>
<line x1="1003.23" y1="1138.23" x2="1038.59" y2="1102.87" stroke="black" stroke-width="5"/>
<line x1="1003.23" y1="1038.23" x2="1038.59" y2="1002.87" stroke="black" stroke-width="5"/>
<line x1="1003.23" y1="938.23" x2="1038.59" y2="902.874" stroke="black" stroke-width="5"/>
<line x1="1003.23" y1="738.23" x2="1038.59" y2="702.874" stroke="black" stroke-width="5"/>
<line x1="1003.23" y1="838.23" x2="1038.59" y2="802.874" stroke="black" stroke-width="5"/>
<line x1="1003.23" y1="638.23" x2="1038.59" y2="602.874" stroke="black" stroke-width="5"/>
<line x1="1003.23" y1="538.23" x2="1038.59" y2="502.874" stroke="black" stroke-width="5"/>
<line x1="1344.5" y1="1005.35" x2="1344.5" y2="5.35229" stroke="black" stroke-width="5"/>
<line x1="1310.23" y1="38.5875" x2="1345.59" y2="3.23212" stroke="black" stroke-width="5"/>
<line x1="310.232" y1="38.5875" x2="345.588" y2="3.23212" stroke="black" stroke-width="5"/>
<line x1="410.232" y1="38.5875" x2="445.588" y2="3.23212" stroke="black" stroke-width="5"/>
<line x1="510.232" y1="38.5875" x2="545.588" y2="3.23212" stroke="black" stroke-width="5"/>
<line x1="610.232" y1="38.5875" x2="645.588" y2="3.23212" stroke="black" stroke-width="5"/>
<line x1="910.232" y1="38.5875" x2="945.588" y2="3.23212" stroke="black" stroke-width="5"/>
<line x1="710.232" y1="38.5875" x2="745.588" y2="3.23212" stroke="black" stroke-width="5"/>
<line x1="810.232" y1="38.5875" x2="845.588" y2="3.23212" stroke="black" stroke-width="5"/>
<line x1="1010.23" y1="38.5875" x2="1045.59" y2="3.23212" stroke="black" stroke-width="5"/>
<line x1="1110.23" y1="38.5875" x2="1145.59" y2="3.23212" stroke="black" stroke-width="5"/>
<line x1="1210.23" y1="38.5875" x2="1245.59" y2="3.23212" stroke="black" stroke-width="5"/>
<line x1="1310.23" y1="138.587" x2="1345.59" y2="103.231" stroke="black" stroke-width="5"/>
<line x1="1310.23" y1="1038.58" x2="1345.59" y2="1003.23" stroke="black" stroke-width="5"/>
<line x1="1310.23" y1="938.585" x2="1345.59" y2="903.229" stroke="black" stroke-width="5"/>
<line x1="1310.23" y1="838.585" x2="1345.59" y2="803.229" stroke="black" stroke-width="5"/>
<line x1="1310.23" y1="738.585" x2="1345.59" y2="703.229" stroke="black" stroke-width="5"/>
<line x1="1310.23" y1="638.585" x2="1345.59" y2="603.229" stroke="black" stroke-width="5"/>
<line x1="1310.23" y1="438.586" x2="1345.59" y2="403.23" stroke="black" stroke-width="5"/>
<line x1="1310.23" y1="538.585" x2="1345.59" y2="503.229" stroke="black" stroke-width="5"/>
<line x1="1310.23" y1="338.586" x2="1345.59" y2="303.231" stroke="black" stroke-width="5"/>
<line x1="1310.23" y1="238.586" x2="1345.59" y2="203.231" stroke="black" stroke-width="5"/>
<line x1="1309.5" y1="1038.35" x2="1309.5" y2="38.3523" stroke="black" stroke-width="5"/>
<line x1="312" y1="35.8552" x2="1312" y2="35.8552" stroke="black" stroke-width="5"/>
<line x1="1275.23" y1="71.5875" x2="1310.59" y2="36.2321" stroke="black" stroke-width="5"/>
<line x1="275.232" y1="71.5875" x2="310.588" y2="36.2321" stroke="black" stroke-width="5"/>
<line x1="375.232" y1="71.5875" x2="410.588" y2="36.2321" stroke="black" stroke-width="5"/>
<line x1="475.232" y1="71.5875" x2="510.588" y2="36.2321" stroke="black" stroke-width="5"/>
<line x1="575.232" y1="71.5875" x2="610.588" y2="36.2321" stroke="black" stroke-width="5"/>
<line x1="875.232" y1="71.5875" x2="910.588" y2="36.2321" stroke="black" stroke-width="5"/>
<line x1="675.232" y1="71.5875" x2="710.588" y2="36.2321" stroke="black" stroke-width="5"/>
<line x1="775.232" y1="71.5875" x2="810.588" y2="36.2321" stroke="black" stroke-width="5"/>
<line x1="975.232" y1="71.5875" x2="1010.59" y2="36.2321" stroke="black" stroke-width="5"/>
<line x1="1075.23" y1="71.5875" x2="1110.59" y2="36.2321" stroke="black" stroke-width="5"/>
<line x1="1175.23" y1="71.5875" x2="1210.59" y2="36.2321" stroke="black" stroke-width="5"/>
<line x1="1275.23" y1="171.587" x2="1310.59" y2="136.232" stroke="black" stroke-width="5"/>
<line x1="1275.23" y1="1071.58" x2="1310.59" y2="1036.23" stroke="black" stroke-width="5"/>
<line x1="1275.23" y1="971.585" x2="1310.59" y2="936.229" stroke="black" stroke-width="5"/>
<line x1="1275.23" y1="871.585" x2="1310.59" y2="836.229" stroke="black" stroke-width="5"/>
<line x1="1275.23" y1="771.585" x2="1310.59" y2="736.229" stroke="black" stroke-width="5"/>
<line x1="1275.23" y1="671.585" x2="1310.59" y2="636.229" stroke="black" stroke-width="5"/>
<line x1="1275.23" y1="471.585" x2="1310.59" y2="436.23" stroke="black" stroke-width="5"/>
<line x1="1275.23" y1="571.585" x2="1310.59" y2="536.229" stroke="black" stroke-width="5"/>
<line x1="1275.23" y1="371.586" x2="1310.59" y2="336.23" stroke="black" stroke-width="5"/>
<line x1="1275.23" y1="271.586" x2="1310.59" y2="236.231" stroke="black" stroke-width="5"/>
<line x1="1277.5" y1="1070.35" x2="1277.5" y2="70.3523" stroke="black" stroke-width="5"/>
<line x1="280" y1="67.8552" x2="1280" y2="67.8552" stroke="black" stroke-width="5"/>
<line x1="1243.23" y1="103.587" x2="1278.59" y2="68.2319" stroke="black" stroke-width="5"/>
<line x1="243.232" y1="103.587" x2="278.588" y2="68.2319" stroke="black" stroke-width="5"/>
<line x1="343.232" y1="103.587" x2="378.588" y2="68.2319" stroke="black" stroke-width="5"/>
<line x1="443.232" y1="103.587" x2="478.588" y2="68.2319" stroke="black" stroke-width="5"/>
<line x1="543.232" y1="103.587" x2="578.588" y2="68.2319" stroke="black" stroke-width="5"/>
<line x1="843.232" y1="103.587" x2="878.588" y2="68.2319" stroke="black" stroke-width="5"/>
<line x1="643.232" y1="103.587" x2="678.588" y2="68.2319" stroke="black" stroke-width="5"/>
<line x1="743.232" y1="103.587" x2="778.588" y2="68.2319" stroke="black" stroke-width="5"/>
<line x1="943.232" y1="103.587" x2="978.588" y2="68.2319" stroke="black" stroke-width="5"/>
<line x1="1043.23" y1="103.587" x2="1078.59" y2="68.2319" stroke="black" stroke-width="5"/>
<line x1="1143.23" y1="103.587" x2="1178.59" y2="68.2319" stroke="black" stroke-width="5"/>
<line x1="1243.23" y1="203.586" x2="1278.59" y2="168.231" stroke="black" stroke-width="5"/>
<line x1="1243.23" y1="1103.58" x2="1278.59" y2="1068.23" stroke="black" stroke-width="5"/>
<line x1="1243.23" y1="1003.58" x2="1278.59" y2="968.229" stroke="black" stroke-width="5"/>
<line x1="1243.23" y1="903.585" x2="1278.59" y2="868.229" stroke="black" stroke-width="5"/>
<line x1="1243.23" y1="803.585" x2="1278.59" y2="768.229" stroke="black" stroke-width="5"/>
<line x1="1243.23" y1="703.585" x2="1278.59" y2="668.229" stroke="black" stroke-width="5"/>
<line x1="1243.23" y1="503.585" x2="1278.59" y2="468.23" stroke="black" stroke-width="5"/>
<line x1="1243.23" y1="603.585" x2="1278.59" y2="568.229" stroke="black" stroke-width="5"/>
<line x1="1243.23" y1="403.586" x2="1278.59" y2="368.23" stroke="black" stroke-width="5"/>
<line x1="1243.23" y1="303.586" x2="1278.59" y2="268.231" stroke="black" stroke-width="5"/>
<line x1="1242.5" y1="1103.35" x2="1242.5" y2="103.352" stroke="black" stroke-width="5"/>
<line x1="245" y1="100.855" x2="1245" y2="100.855" stroke="black" stroke-width="5"/>
<line x1="1208.23" y1="136.587" x2="1243.59" y2="101.231" stroke="black" stroke-width="5"/>
<line x1="208.232" y1="136.587" x2="243.588" y2="101.231" stroke="black" stroke-width="5"/>
<line x1="308.232" y1="136.587" x2="343.588" y2="101.231" stroke="black" stroke-width="5"/>
<line x1="408.232" y1="136.587" x2="443.588" y2="101.231" stroke="black" stroke-width="5"/>
<line x1="508.232" y1="136.587" x2="543.588" y2="101.231" stroke="black" stroke-width="5"/>
<line x1="808.232" y1="136.587" x2="843.588" y2="101.231" stroke="black" stroke-width="5"/>
<line x1="608.232" y1="136.587" x2="643.588" y2="101.231" stroke="black" stroke-width="5"/>
<line x1="708.232" y1="136.587" x2="743.588" y2="101.231" stroke="black" stroke-width="5"/>
<line x1="908.232" y1="136.587" x2="943.588" y2="101.231" stroke="black" stroke-width="5"/>
<line x1="1008.23" y1="136.587" x2="1043.59" y2="101.231" stroke="black" stroke-width="5"/>
<line x1="1108.23" y1="136.587" x2="1143.59" y2="101.231" stroke="black" stroke-width="5"/>
<line x1="1208.23" y1="236.586" x2="1243.59" y2="201.231" stroke="black" stroke-width="5"/>
<line x1="1208.23" y1="1136.58" x2="1243.59" y2="1101.23" stroke="black" stroke-width="5"/>
<line x1="1208.23" y1="1036.58" x2="1243.59" y2="1001.23" stroke="black" stroke-width="5"/>
<line x1="1208.23" y1="936.585" x2="1243.59" y2="901.229" stroke="black" stroke-width="5"/>
<line x1="1208.23" y1="836.585" x2="1243.59" y2="801.229" stroke="black" stroke-width="5"/>
<line x1="1208.23" y1="736.585" x2="1243.59" y2="701.229" stroke="black" stroke-width="5"/>
<line x1="1208.23" y1="536.585" x2="1243.59" y2="501.229" stroke="black" stroke-width="5"/>
<line x1="1208.23" y1="636.585" x2="1243.59" y2="601.229" stroke="black" stroke-width="5"/>
<line x1="1208.23" y1="436.586" x2="1243.59" y2="401.23" stroke="black" stroke-width="5"/>
<line x1="1208.23" y1="336.586" x2="1243.59" y2="301.231" stroke="black" stroke-width="5"/>
<line x1="1207.5" y1="1138.35" x2="1207.5" y2="138.352" stroke="black" stroke-width="5"/>
<line x1="210" y1="135.854" x2="1210" y2="135.854" stroke="black" stroke-width="5"/>
<line x1="1173.23" y1="171.587" x2="1208.59" y2="136.232" stroke="black" stroke-width="5"/>
<line x1="173.232" y1="171.587" x2="208.588" y2="136.232" stroke="black" stroke-width="5"/>
<line x1="273.232" y1="171.587" x2="308.588" y2="136.232" stroke="black" stroke-width="5"/>
<line x1="373.232" y1="171.587" x2="408.588" y2="136.232" stroke="black" stroke-width="5"/>
<line x1="473.232" y1="171.587" x2="508.588" y2="136.232" stroke="black" stroke-width="5"/>
<line x1="773.232" y1="171.587" x2="808.588" y2="136.232" stroke="black" stroke-width="5"/>
<line x1="573.232" y1="171.587" x2="608.588" y2="136.232" stroke="black" stroke-width="5"/>
<line x1="673.232" y1="171.587" x2="708.588" y2="136.232" stroke="black" stroke-width="5"/>
<line x1="873.232" y1="171.587" x2="908.588" y2="136.232" stroke="black" stroke-width="5"/>
<line x1="973.232" y1="171.587" x2="1008.59" y2="136.232" stroke="black" stroke-width="5"/>
<line x1="1073.23" y1="171.587" x2="1108.59" y2="136.232" stroke="black" stroke-width="5"/>
<line x1="1173.23" y1="271.586" x2="1208.59" y2="236.231" stroke="black" stroke-width="5"/>
<line x1="1173.23" y1="1171.58" x2="1208.59" y2="1136.23" stroke="black" stroke-width="5"/>
<line x1="1173.23" y1="1071.58" x2="1208.59" y2="1036.23" stroke="black" stroke-width="5"/>
<line x1="1173.23" y1="971.585" x2="1208.59" y2="936.229" stroke="black" stroke-width="5"/>
<line x1="1173.23" y1="871.585" x2="1208.59" y2="836.229" stroke="black" stroke-width="5"/>
<line x1="1173.23" y1="771.585" x2="1208.59" y2="736.229" stroke="black" stroke-width="5"/>
<line x1="1173.23" y1="571.585" x2="1208.59" y2="536.229" stroke="black" stroke-width="5"/>
<line x1="1173.23" y1="671.585" x2="1208.59" y2="636.229" stroke="black" stroke-width="5"/>
<line x1="1173.23" y1="471.585" x2="1208.59" y2="436.23" stroke="black" stroke-width="5"/>
<line x1="1173.23" y1="371.586" x2="1208.59" y2="336.23" stroke="black" stroke-width="5"/>
<line x1="1037.5" y1="1305" x2="1037.5" y2="304.997" stroke="black" stroke-width="5"/>
<line x1="40" y1="302.499" x2="1040" y2="302.499" stroke="black" stroke-width="5"/>
<line x1="1003.23" y1="338.231" x2="1038.59" y2="302.875" stroke="black" stroke-width="5"/>
<line x1="3.23223" y1="338.231" x2="38.5876" y2="302.875" stroke="black" stroke-width="5"/>
<line x1="103.232" y1="338.231" x2="138.588" y2="302.875" stroke="black" stroke-width="5"/>
<line x1="203.232" y1="338.231" x2="238.588" y2="302.875" stroke="black" stroke-width="5"/>
<line x1="303.232" y1="338.231" x2="338.588" y2="302.875" stroke="black" stroke-width="5"/>
<line x1="603.232" y1="338.231" x2="638.588" y2="302.875" stroke="black" stroke-width="5"/>
<line x1="403.232" y1="338.231" x2="438.588" y2="302.875" stroke="black" stroke-width="5"/>
<line x1="503.232" y1="338.231" x2="538.588" y2="302.875" stroke="black" stroke-width="5"/>
<line x1="703.232" y1="338.231" x2="738.588" y2="302.875" stroke="black" stroke-width="5"/>
<line x1="803.232" y1="338.231" x2="838.588" y2="302.875" stroke="black" stroke-width="5"/>
<line x1="903.232" y1="338.231" x2="938.588" y2="302.875" stroke="black" stroke-width="5"/>
<line x1="1003.23" y1="438.23" x2="1038.59" y2="402.875" stroke="black" stroke-width="5"/>
<line x1="1003.23" y1="1338.23" x2="1038.59" y2="1302.87" stroke="black" stroke-width="5"/>
<line x1="1003.23" y1="1238.23" x2="1038.59" y2="1202.87" stroke="black" stroke-width="5"/>
<line x1="1003.23" y1="1138.23" x2="1038.59" y2="1102.87" stroke="black" stroke-width="5"/>
<line x1="1003.23" y1="1038.23" x2="1038.59" y2="1002.87" stroke="black" stroke-width="5"/>
<line x1="1003.23" y1="938.23" x2="1038.59" y2="902.874" stroke="black" stroke-width="5"/>
<line x1="1003.23" y1="738.23" x2="1038.59" y2="702.874" stroke="black" stroke-width="5"/>
<line x1="1003.23" y1="838.23" x2="1038.59" y2="802.874" stroke="black" stroke-width="5"/>
<line x1="1003.23" y1="638.23" x2="1038.59" y2="602.874" stroke="black" stroke-width="5"/>
<line x1="1003.23" y1="538.23" x2="1038.59" y2="502.874" stroke="black" stroke-width="5"/>
<line x1="1172.5" y1="1170.35" x2="1172.5" y2="170.352" stroke="black" stroke-width="5"/>
<line x1="175" y1="167.855" x2="1175" y2="167.855" stroke="black" stroke-width="5"/>
<line x1="1138.23" y1="203.586" x2="1173.59" y2="168.231" stroke="black" stroke-width="5"/>
<line x1="138.232" y1="203.586" x2="173.588" y2="168.231" stroke="black" stroke-width="5"/>
<line x1="238.232" y1="203.586" x2="273.588" y2="168.231" stroke="black" stroke-width="5"/>
<line x1="338.232" y1="203.586" x2="373.588" y2="168.231" stroke="black" stroke-width="5"/>
<line x1="438.232" y1="203.586" x2="473.588" y2="168.231" stroke="black" stroke-width="5"/>
<line x1="738.232" y1="203.586" x2="773.588" y2="168.231" stroke="black" stroke-width="5"/>
<line x1="538.232" y1="203.586" x2="573.588" y2="168.231" stroke="black" stroke-width="5"/>
<line x1="638.232" y1="203.586" x2="673.588" y2="168.231" stroke="black" stroke-width="5"/>
<line x1="838.232" y1="203.586" x2="873.588" y2="168.231" stroke="black" stroke-width="5"/>
<line x1="938.232" y1="203.586" x2="973.588" y2="168.231" stroke="black" stroke-width="5"/>
<line x1="1038.23" y1="203.586" x2="1073.59" y2="168.231" stroke="black" stroke-width="5"/>
<line x1="1138.23" y1="303.586" x2="1173.59" y2="268.231" stroke="black" stroke-width="5"/>
<line x1="1138.23" y1="1203.58" x2="1173.59" y2="1168.23" stroke="black" stroke-width="5"/>
<line x1="1138.23" y1="1103.58" x2="1173.59" y2="1068.23" stroke="black" stroke-width="5"/>
<line x1="1138.23" y1="1003.58" x2="1173.59" y2="968.229" stroke="black" stroke-width="5"/>
<line x1="1138.23" y1="903.585" x2="1173.59" y2="868.229" stroke="black" stroke-width="5"/>
<line x1="1138.23" y1="803.585" x2="1173.59" y2="768.229" stroke="black" stroke-width="5"/>
<line x1="1138.23" y1="603.585" x2="1173.59" y2="568.229" stroke="black" stroke-width="5"/>
<line x1="1138.23" y1="703.585" x2="1173.59" y2="668.229" stroke="black" stroke-width="5"/>
<line x1="1138.23" y1="503.585" x2="1173.59" y2="468.23" stroke="black" stroke-width="5"/>
<line x1="1138.23" y1="403.586" x2="1173.59" y2="368.23" stroke="black" stroke-width="5"/>
<line x1="1138.5" y1="1204.35" x2="1138.5" y2="204.352" stroke="black" stroke-width="5"/>
<line x1="141" y1="201.854" x2="1141" y2="201.854" stroke="black" stroke-width="5"/>
<line x1="1104.23" y1="237.586" x2="1139.59" y2="202.231" stroke="black" stroke-width="5"/>
<line x1="104.232" y1="237.586" x2="139.588" y2="202.231" stroke="black" stroke-width="5"/>
<line x1="204.232" y1="237.586" x2="239.588" y2="202.231" stroke="black" stroke-width="5"/>
<line x1="304.232" y1="237.586" x2="339.588" y2="202.231" stroke="black" stroke-width="5"/>
<line x1="404.232" y1="237.586" x2="439.588" y2="202.231" stroke="black" stroke-width="5"/>
<line x1="704.232" y1="237.586" x2="739.588" y2="202.231" stroke="black" stroke-width="5"/>
<line x1="504.232" y1="237.586" x2="539.588" y2="202.231" stroke="black" stroke-width="5"/>
<line x1="604.232" y1="237.586" x2="639.588" y2="202.231" stroke="black" stroke-width="5"/>
<line x1="804.232" y1="237.586" x2="839.588" y2="202.231" stroke="black" stroke-width="5"/>
<line x1="904.232" y1="237.586" x2="939.588" y2="202.231" stroke="black" stroke-width="5"/>
<line x1="1004.23" y1="237.586" x2="1039.59" y2="202.231" stroke="black" stroke-width="5"/>
<line x1="1104.23" y1="337.586" x2="1139.59" y2="302.231" stroke="black" stroke-width="5"/>
<line x1="1104.23" y1="1237.58" x2="1139.59" y2="1202.23" stroke="black" stroke-width="5"/>
<line x1="1104.23" y1="1137.58" x2="1139.59" y2="1102.23" stroke="black" stroke-width="5"/>
<line x1="1104.23" y1="1037.58" x2="1139.59" y2="1002.23" stroke="black" stroke-width="5"/>
<line x1="1104.23" y1="937.585" x2="1139.59" y2="902.229" stroke="black" stroke-width="5"/>
<line x1="1104.23" y1="837.585" x2="1139.59" y2="802.229" stroke="black" stroke-width="5"/>
<line x1="1104.23" y1="637.585" x2="1139.59" y2="602.229" stroke="black" stroke-width="5"/>
<line x1="1104.23" y1="737.585" x2="1139.59" y2="702.229" stroke="black" stroke-width="5"/>
<line x1="1104.23" y1="537.585" x2="1139.59" y2="502.229" stroke="black" stroke-width="5"/>
<line x1="1104.23" y1="437.586" x2="1139.59" y2="402.23" stroke="black" stroke-width="5"/>
<line x1="1108.5" y1="1235.35" x2="1108.5" y2="235.352" stroke="black" stroke-width="5"/>
<line x1="111" y1="232.854" x2="1111" y2="232.854" stroke="black" stroke-width="5"/>
<line x1="1074.23" y1="268.586" x2="1109.59" y2="233.231" stroke="black" stroke-width="5"/>
<line x1="74.2322" y1="268.586" x2="109.588" y2="233.231" stroke="black" stroke-width="5"/>
<line x1="174.232" y1="268.586" x2="209.588" y2="233.231" stroke="black" stroke-width="5"/>
<line x1="274.232" y1="268.586" x2="309.588" y2="233.231" stroke="black" stroke-width="5"/>
<line x1="374.232" y1="268.586" x2="409.588" y2="233.231" stroke="black" stroke-width="5"/>
<line x1="674.232" y1="268.586" x2="709.588" y2="233.231" stroke="black" stroke-width="5"/>
<line x1="474.232" y1="268.586" x2="509.588" y2="233.231" stroke="black" stroke-width="5"/>
<line x1="574.232" y1="268.586" x2="609.588" y2="233.231" stroke="black" stroke-width="5"/>
<line x1="774.232" y1="268.586" x2="809.588" y2="233.231" stroke="black" stroke-width="5"/>
<line x1="874.232" y1="268.586" x2="909.588" y2="233.231" stroke="black" stroke-width="5"/>
<line x1="974.232" y1="268.586" x2="1009.59" y2="233.231" stroke="black" stroke-width="5"/>
<line x1="1074.23" y1="368.586" x2="1109.59" y2="333.23" stroke="black" stroke-width="5"/>
<line x1="1074.23" y1="1268.58" x2="1109.59" y2="1233.23" stroke="black" stroke-width="5"/>
<line x1="1074.23" y1="1168.58" x2="1109.59" y2="1133.23" stroke="black" stroke-width="5"/>
<line x1="1074.23" y1="1068.58" x2="1109.59" y2="1033.23" stroke="black" stroke-width="5"/>
<line x1="1074.23" y1="968.585" x2="1109.59" y2="933.229" stroke="black" stroke-width="5"/>
<line x1="1074.23" y1="868.585" x2="1109.59" y2="833.229" stroke="black" stroke-width="5"/>
<line x1="1074.23" y1="668.585" x2="1109.59" y2="633.229" stroke="black" stroke-width="5"/>
<line x1="1074.23" y1="768.585" x2="1109.59" y2="733.229" stroke="black" stroke-width="5"/>
<line x1="1074.23" y1="568.585" x2="1109.59" y2="533.229" stroke="black" stroke-width="5"/>
<line x1="1074.23" y1="468.585" x2="1109.59" y2="433.23" stroke="black" stroke-width="5"/>
<line x1="1073.5" y1="1270.35" x2="1073.5" y2="270.352" stroke="black" stroke-width="5"/>
<line x1="76" y1="267.854" x2="1076" y2="267.854" stroke="black" stroke-width="5"/>
<line x1="1039.23" y1="303.586" x2="1074.59" y2="268.231" stroke="black" stroke-width="5"/>
<line x1="39.2322" y1="303.586" x2="74.5876" y2="268.231" stroke="black" stroke-width="5"/>
<line x1="139.232" y1="303.586" x2="174.588" y2="268.231" stroke="black" stroke-width="5"/>
<line x1="239.232" y1="303.586" x2="274.588" y2="268.231" stroke="black" stroke-width="5"/>
<line x1="339.232" y1="303.586" x2="374.588" y2="268.231" stroke="black" stroke-width="5"/>
<line x1="639.232" y1="303.586" x2="674.588" y2="268.231" stroke="black" stroke-width="5"/>
<line x1="439.232" y1="303.586" x2="474.588" y2="268.231" stroke="black" stroke-width="5"/>
<line x1="539.232" y1="303.586" x2="574.588" y2="268.231" stroke="black" stroke-width="5"/>
<line x1="739.232" y1="303.586" x2="774.588" y2="268.231" stroke="black" stroke-width="5"/>
<line x1="839.232" y1="303.586" x2="874.588" y2="268.231" stroke="black" stroke-width="5"/>
<line x1="939.232" y1="303.586" x2="974.588" y2="268.231" stroke="black" stroke-width="5"/>
<line x1="1039.23" y1="403.586" x2="1074.59" y2="368.23" stroke="black" stroke-width="5"/>
<line x1="1039.23" y1="1303.58" x2="1074.59" y2="1268.23" stroke="black" stroke-width="5"/>
<line x1="1039.23" y1="1203.58" x2="1074.59" y2="1168.23" stroke="black" stroke-width="5"/>
<line x1="1039.23" y1="1103.58" x2="1074.59" y2="1068.23" stroke="black" stroke-width="5"/>
<line x1="1039.23" y1="1003.58" x2="1074.59" y2="968.229" stroke="black" stroke-width="5"/>
<line x1="1039.23" y1="903.585" x2="1074.59" y2="868.229" stroke="black" stroke-width="5"/>
<line x1="1039.23" y1="703.585" x2="1074.59" y2="668.229" stroke="black" stroke-width="5"/>
<line x1="1039.23" y1="803.585" x2="1074.59" y2="768.229" stroke="black" stroke-width="5"/>
<line x1="1039.23" y1="603.585" x2="1074.59" y2="568.229" stroke="black" stroke-width="5"/>
<line x1="1039.23" y1="503.585" x2="1074.59" y2="468.23" stroke="black" stroke-width="5"/>
<line x1="347" y1="2.85522" x2="1347" y2="2.85522" stroke="black" stroke-width="5"/>
</svg>
