<svg width="107" height="107" viewBox="0 0 107 107" fill="none" xmlns="http://www.w3.org/2000/svg">
<path d="M103.083 14.2125H92.875V3.54102H103.083V14.2125Z" fill="#D6B45E" stroke="black"/>
<path d="M92.875 14.2125H82.6666V3.54102H92.875V14.2125Z" fill="#D6B45E" stroke="black"/>
<path d="M21.4167 14.2125H11.2084V3.54102H21.4167V14.2125Z" fill="#D6B45E" stroke="black"/>
<path d="M11.2083 14.2125H1V3.54102H11.2083V14.2125Z" fill="#D6B45E" stroke="black"/>
<path d="M72.4583 14.2125H62.25V3.54102H72.4583V14.2125Z" fill="#D6B45E" stroke="black"/>
<path d="M82.6666 14.2125H72.4583V3.54102H82.6666V14.2125Z" fill="#D6B45E" stroke="black"/>
<path d="M62.25 14.2125H52.0416V3.54102H62.25V14.2125Z" fill="#D6B45E" stroke="black"/>
<path d="M52.0417 14.2125H41.8334V3.54102H52.0417V14.2125Z" fill="#D6B45E" stroke="black"/>
<path d="M31.625 14.2125H21.4167V3.54102H31.625V14.2125Z" fill="#D6B45E" stroke="black"/>
<path d="M41.8333 14.2125H31.625V3.54102H41.8333V14.2125Z" fill="#D6B45E" stroke="black"/>
<path d="M103.083 23.677H92.875V13.0055H103.083V23.677Z" fill="#D6B45E" stroke="black"/>
<path d="M92.8748 23.677H82.6665V13.0055H92.8748V23.677Z" fill="#D6B45E" stroke="black"/>
<path d="M21.4168 23.677H11.2084V13.0055H21.4168V23.677Z" fill="#D6B45E" stroke="black"/>
<path d="M11.2083 23.677H1V13.0055H11.2083V23.677Z" fill="#D6B45E" stroke="black"/>
<path d="M72.4584 23.677H62.2501V13.0055H72.4584V23.677Z" fill="#D6B45E" stroke="black"/>
<path d="M82.6666 23.677H72.4583V13.0055H82.6666V23.677Z" fill="#D6B45E" stroke="black"/>
<path d="M62.25 23.677H52.0416V13.0055H62.25V23.677Z" fill="#D6B45E" stroke="black"/>
<path d="M52.0417 23.677H41.8334V13.0055H52.0417V23.677Z" fill="#D6B45E" stroke="black"/>
<path d="M31.625 23.677H21.4167V13.0055H31.625V23.677Z" fill="#D6B45E" stroke="black"/>
<path d="M41.8333 23.677H31.6249V13.0055H41.8333V23.677Z" fill="#D6B45E" stroke="black"/>
<path d="M1 3.30344L6.59028 1H16.0694H25.7917H35.7569H45.7222H55.9306H66.1389H75.8611H86.0694H96.2778H106V9.98343C105.055 10.9533 104.154 12.1287 103.326 12.9779C103.156 13.1527 103.278 12.4306 103.083 12.6302V3.30344H92.875H82.6667H72.4583H62.25H52.0417H41.8333H31.625H21.4167H11.2083H1Z" fill="#D6B45E"/>
<path d="M106 1V9.98343C105.055 10.9533 104.154 12.1287 103.326 12.9779C103.156 13.1527 103.278 12.4307 103.083 12.6302V3.30344M106 1H96.2778M106 1L104.542 2.15172L103.083 3.30344M103.083 3.30344H92.875M11.2083 3.30344L16.0694 1M11.2083 3.30344H21.4167M11.2083 3.30344H1L6.59028 1H16.0694M16.0694 1H25.7917M21.4167 3.30344L25.7917 1M21.4167 3.30344H31.625M25.7917 1H35.7569M31.625 3.30344L35.7569 1M31.625 3.30344H41.8333M35.7569 1H45.7222M41.8333 3.30344L45.7222 1M41.8333 3.30344H52.0417M45.7222 1H55.9306M52.0417 3.30344L55.9306 1M52.0417 3.30344H62.25M55.9306 1H66.1389M62.25 3.30344L66.1389 1M62.25 3.30344H72.4583M66.1389 1H75.8611M72.4583 3.30344L75.8611 1M72.4583 3.30344H82.6667M75.8611 1H86.0694M82.6667 3.30344L86.0694 1M82.6667 3.30344H92.875M86.0694 1H96.2778M92.875 3.30344L96.2778 1" stroke="black"/>
<path d="M103.083 33.9674H92.875V23.2959H103.083V33.9674Z" fill="#D6B45E" stroke="black"/>
<path d="M92.8748 33.9674H82.6665V23.2959H92.8748V33.9674Z" fill="#D6B45E" stroke="black"/>
<path d="M21.4168 33.9674H11.2084V23.2959H21.4168V33.9674Z" fill="#D6B45E" stroke="black"/>
<path d="M11.2083 33.9674H1V23.2959H11.2083V33.9674Z" fill="#D6B45E" stroke="black"/>
<path d="M72.4584 33.9674H62.2501V23.2959H72.4584V33.9674Z" fill="#D6B45E" stroke="black"/>
<path d="M82.6666 33.9674H72.4583V23.2959H82.6666V33.9674Z" fill="#D6B45E" stroke="black"/>
<path d="M62.25 33.9674H52.0416V23.2959H62.25V33.9674Z" fill="#D6B45E" stroke="black"/>
<path d="M52.0417 33.9674H41.8334V23.2959H52.0417V33.9674Z" fill="#D6B45E" stroke="black"/>
<path d="M31.625 33.9674H21.4167V23.2959H31.625V33.9674Z" fill="#D6B45E" stroke="black"/>
<path d="M41.8333 33.9674H31.6249V23.2959H41.8333V33.9674Z" fill="#D6B45E" stroke="black"/>
<path d="M103.083 106H92.875V95.3285H103.083V106Z" fill="#D6B45E" stroke="black"/>
<path d="M92.8748 106H82.6665V95.3285H92.8748V106Z" fill="#D6B45E" stroke="black"/>
<path d="M21.4168 106H11.2084V95.3285H21.4168V106Z" fill="#D6B45E" stroke="black"/>
<path d="M11.2083 106H1V95.3285H11.2083V106Z" fill="#D6B45E" stroke="black"/>
<path d="M72.4584 106H62.2501V95.3285H72.4584V106Z" fill="#D6B45E" stroke="black"/>
<path d="M82.6666 106H72.4583V95.3285H82.6666V106Z" fill="#D6B45E" stroke="black"/>
<path d="M62.25 106H52.0416V95.3285H62.25V106Z" fill="#D6B45E" stroke="black"/>
<path d="M52.0417 106H41.8334V95.3285H52.0417V106Z" fill="#D6B45E" stroke="black"/>
<path d="M31.625 106H21.4167V95.3285H31.625V106Z" fill="#D6B45E" stroke="black"/>
<path d="M41.8333 106H31.6249V95.3285H41.8333V106Z" fill="#D6B45E" stroke="black"/>
<path d="M103.083 95.7096H92.875V85.0381H103.083V95.7096Z" fill="#D6B45E" stroke="black"/>
<path d="M92.8748 95.7096H82.6665V85.0381H92.8748V95.7096Z" fill="#D6B45E" stroke="black"/>
<path d="M21.4168 95.7096H11.2084V85.0381H21.4168V95.7096Z" fill="#D6B45E" stroke="black"/>
<path d="M11.2083 95.7096H1V85.0381H11.2083V95.7096Z" fill="#D6B45E" stroke="black"/>
<path d="M72.4584 95.7096H62.2501V85.0381H72.4584V95.7096Z" fill="#D6B45E" stroke="black"/>
<path d="M82.6666 95.7096H72.4583V85.0381H82.6666V95.7096Z" fill="#D6B45E" stroke="black"/>
<path d="M62.25 95.7096H52.0416V85.0381H62.25V95.7096Z" fill="#D6B45E" stroke="black"/>
<path d="M52.0417 95.7096H41.8334V85.0381H52.0417V95.7096Z" fill="#D6B45E" stroke="black"/>
<path d="M31.625 95.7096H21.4167V85.0381H31.625V95.7096Z" fill="#D6B45E" stroke="black"/>
<path d="M41.8333 95.7096H31.6249V85.0381H41.8333V95.7096Z" fill="#D6B45E" stroke="black"/>
<path d="M103.083 85.4193H92.875V74.7478H103.083V85.4193Z" fill="#D6B45E" stroke="black"/>
<path d="M92.8748 85.4193H82.6665V74.7478H92.8748V85.4193Z" fill="#D6B45E" stroke="black"/>
<path d="M21.4168 85.4193H11.2084V74.7478H21.4168V85.4193Z" fill="#D6B45E" stroke="black"/>
<path d="M11.2083 85.4193H1V74.7478H11.2083V85.4193Z" fill="#D6B45E" stroke="black"/>
<path d="M72.4584 85.4193H62.2501V74.7478H72.4584V85.4193Z" fill="#D6B45E" stroke="black"/>
<path d="M82.6666 85.4193H72.4583V74.7478H82.6666V85.4193Z" fill="#D6B45E" stroke="black"/>
<path d="M62.25 85.4193H52.0416V74.7478H62.25V85.4193Z" fill="#D6B45E" stroke="black"/>
<path d="M52.0417 85.4193H41.8334V74.7478H52.0417V85.4193Z" fill="#D6B45E" stroke="black"/>
<path d="M31.625 85.4193H21.4167V74.7478H31.625V85.4193Z" fill="#D6B45E" stroke="black"/>
<path d="M41.8333 85.4193H31.6249V74.7478H41.8333V85.4193Z" fill="#D6B45E" stroke="black"/>
<path d="M103.083 75.1289H92.875V64.4574H103.083V75.1289Z" fill="#D6B45E" stroke="black"/>
<path d="M92.8748 75.1289H82.6665V64.4574H92.8748V75.1289Z" fill="#D6B45E" stroke="black"/>
<path d="M21.4168 75.1289H11.2084V64.4574H21.4168V75.1289Z" fill="#D6B45E" stroke="black"/>
<path d="M11.2083 75.1289H1V64.4574H11.2083V75.1289Z" fill="#D6B45E" stroke="black"/>
<path d="M72.4584 75.1289H62.2501V64.4574H72.4584V75.1289Z" fill="#D6B45E" stroke="black"/>
<path d="M82.6666 75.1289H72.4583V64.4574H82.6666V75.1289Z" fill="#D6B45E" stroke="black"/>
<path d="M62.25 75.1289H52.0416V64.4574H62.25V75.1289Z" fill="#D6B45E" stroke="black"/>
<path d="M52.0417 75.1289H41.8334V64.4574H52.0417V75.1289Z" fill="#D6B45E" stroke="black"/>
<path d="M31.625 75.1289H21.4167V64.4574H31.625V75.1289Z" fill="#D6B45E" stroke="black"/>
<path d="M41.8333 75.1289H31.6249V64.4574H41.8333V75.1289Z" fill="#D6B45E" stroke="black"/>
<path d="M103.083 64.8385H92.875V54.167H103.083V64.8385Z" fill="#D6B45E" stroke="black"/>
<path d="M92.8748 64.8385H82.6665V54.167H92.8748V64.8385Z" fill="#D6B45E" stroke="black"/>
<path d="M21.4168 64.8385H11.2084V54.167H21.4168V64.8385Z" fill="#D6B45E" stroke="black"/>
<path d="M11.2083 64.8385H1V54.167H11.2083V64.8385Z" fill="#D6B45E" stroke="black"/>
<path d="M72.4584 64.8385H62.2501V54.167H72.4584V64.8385Z" fill="#D6B45E" stroke="black"/>
<path d="M82.6666 64.8385H72.4583V54.167H82.6666V64.8385Z" fill="#D6B45E" stroke="black"/>
<path d="M62.25 64.8385H52.0416V54.167H62.25V64.8385Z" fill="#D6B45E" stroke="black"/>
<path d="M52.0417 64.8385H41.8334V54.167H52.0417V64.8385Z" fill="#D6B45E" stroke="black"/>
<path d="M31.625 64.8385H21.4167V54.167H31.625V64.8385Z" fill="#D6B45E" stroke="black"/>
<path d="M41.8333 64.8385H31.6249V54.167H41.8333V64.8385Z" fill="#D6B45E" stroke="black"/>
<path d="M103.083 54.5481H92.875V43.8766H103.083V54.5481Z" fill="#D6B45E" stroke="black"/>
<path d="M92.8748 54.5481H82.6665V43.8766H92.8748V54.5481Z" fill="#D6B45E" stroke="black"/>
<path d="M21.4168 54.5481H11.2084V43.8766H21.4168V54.5481Z" fill="#D6B45E" stroke="black"/>
<path d="M11.2083 54.5481H1V43.8766H11.2083V54.5481Z" fill="#D6B45E" stroke="black"/>
<path d="M72.4584 54.5481H62.2501V43.8766H72.4584V54.5481Z" fill="#D6B45E" stroke="black"/>
<path d="M82.6666 54.5481H72.4583V43.8766H82.6666V54.5481Z" fill="#D6B45E" stroke="black"/>
<path d="M62.25 54.5481H52.0416V43.8766H62.25V54.5481Z" fill="#D6B45E" stroke="black"/>
<path d="M52.0417 54.5481H41.8334V43.8766H52.0417V54.5481Z" fill="#D6B45E" stroke="black"/>
<path d="M31.625 54.5481H21.4167V43.8766H31.625V54.5481Z" fill="#D6B45E" stroke="black"/>
<path d="M41.8333 54.5481H31.6249V43.8766H41.8333V54.5481Z" fill="#D6B45E" stroke="black"/>
<path d="M103.083 44.2577H92.875V33.5862H103.083V44.2577Z" fill="#D6B45E" stroke="black"/>
<path d="M92.8748 44.2577H82.6665V33.5862H92.8748V44.2577Z" fill="#D6B45E" stroke="black"/>
<path d="M21.4168 44.2577H11.2084V33.5862H21.4168V44.2577Z" fill="#D6B45E" stroke="black"/>
<path d="M11.2083 44.2577H1V33.5862H11.2083V44.2577Z" fill="#D6B45E" stroke="black"/>
<path d="M72.4584 44.2577H62.2501V33.5862H72.4584V44.2577Z" fill="#D6B45E" stroke="black"/>
<path d="M82.6666 44.2577H72.4583V33.5862H82.6666V44.2577Z" fill="#D6B45E" stroke="black"/>
<path d="M62.25 44.2577H52.0416V33.5862H62.25V44.2577Z" fill="#D6B45E" stroke="black"/>
<path d="M52.0417 44.2577H41.8334V33.5862H52.0417V44.2577Z" fill="#D6B45E" stroke="black"/>
<path d="M31.625 44.2577H21.4167V33.5862H31.625V44.2577Z" fill="#D6B45E" stroke="black"/>
<path d="M41.8333 44.2577H31.6249V33.5862H41.8333V44.2577Z" fill="#D6B45E" stroke="black"/>
<path d="M103.539 12.1479L106 9.57532V20.7232V31.0136V41.304V51.5944V61.8848V72.1751V82.4655V91.8984V101.331L104.359 105.619C104.359 105.619 102.719 106.476 103.539 104.761C104.359 103.046 103.539 103.904 103.539 103.904V95.3285V85.0381V74.7477V64.4574V54.167V43.8766V33.5862V23.2958V12.1479Z" fill="#D6B45E"/>
<path d="M103.539 23.2958V12.1479L106 9.57532V20.7232M103.539 23.2958L106 20.7232M103.539 23.2958V33.5862M106 20.7232V31.0136M103.539 33.5862L106 31.0136M103.539 33.5862V43.8766M106 31.0136V41.304M103.539 43.8766L106 41.304M103.539 43.8766V54.167M106 41.304V51.5944M103.539 54.167L106 51.5944M103.539 54.167V64.4574M106 51.5944V61.8848M103.539 64.4574L106 61.8848M103.539 64.4574V74.7477M106 61.8848V72.1751M103.539 74.7477L106 72.1751M103.539 74.7477V85.0381M106 72.1751V82.4655M103.539 85.0381L106 82.4655M103.539 85.0381V95.3285M106 82.4655V91.8984M103.539 95.3285L106 91.8984M103.539 95.3285V103.904C103.539 103.904 104.359 103.046 103.539 104.761C102.719 106.476 104.359 105.619 104.359 105.619L106 101.331V91.8984" stroke="black"/>
</svg>
