<svg width="135" height="17" viewBox="0 0 135 17" fill="none" xmlns="http://www.w3.org/2000/svg">
<path d="M130.875 16.0148H117.875V3.01477H124.375H130.875V16.0148Z" fill="#D6B45E" stroke="black"/>
<path d="M118 16H105V3H118V16Z" fill="#D6B45E" stroke="black"/>
<path d="M27 16H14V3H27V16Z" fill="#D6B45E" stroke="black"/>
<path d="M14 16H1V3H14V16Z" fill="#D6B45E" stroke="black"/>
<path d="M92 16H79V3H92V16Z" fill="#D6B45E" stroke="black"/>
<path d="M105 16H92V3H105V16Z" fill="#D6B45E" stroke="black"/>
<path d="M79 16H66V3H79V16Z" fill="#D6B45E" stroke="black"/>
<path d="M66 16H53V3H66V16Z" fill="#D6B45E" stroke="black"/>
<path d="M40 16H27V3H40V16Z" fill="#D6B45E" stroke="black"/>
<path d="M53 16H40V3H53V16Z" fill="#D6B45E" stroke="black"/>
<path d="M1 3L8 1H20H33H45.5H58.5H71.5H84.5H97.5H109.5H122H134.5V13C133.555 13.8482 131.827 15.2573 131 16C130.83 16.1528 131.194 15.3255 131 15.5V3.0146H117.875H105H92L79 3L66 3.0146H53H40H27H14L1 3Z" fill="#D6B45E"/>
<path d="M134.5 1V13C133.555 13.8482 131.827 15.2573 131 16C130.83 16.1528 131.194 15.3255 131 15.5V3.0146M134.5 1H122M134.5 1L131 3V3.0146M131 3.0146H117.875M14 3.0146L20 1M14 3.0146H27M14 3.0146L1 3L8 1H20M20 1H33M27 3.0146L33 1M27 3.0146H40M33 1H45.5M40 3.0146L45.5 1M40 3.0146H53M45.5 1H58.5M53 3.0146L58.5 1M53 3.0146H66M58.5 1H71.5M66 3.0146L71.5 1M66 3.0146L79 3M71.5 1H84.5M79 3L84.5 1M79 3L92 3.0146M84.5 1H97.5M92 3.0146L97.5 1M92 3.0146H105M97.5 1H109.5M105 3.0146L109.5 1M105 3.0146H117.875M109.5 1H122M117.875 3.0146L122 1" stroke="black"/>
</svg>
