<svg width="133" height="133" viewBox="0 0 133 133" fill="none" xmlns="http://www.w3.org/2000/svg">
<path d="M104.391 40.3171H94.1519V29.774H104.391V40.3171Z" fill="#D6B45E" stroke="black"/>
<path d="M94.1519 40.3171H83.9128V29.774H94.1519V40.3171Z" fill="#D6B45E" stroke="black"/>
<path d="M22.4782 40.3171H12.2391V29.774H22.4782V40.3171Z" fill="#D6B45E" stroke="black"/>
<path d="M12.2391 40.3171H2V29.774H12.2391V40.3171Z" fill="#D6B45E" stroke="black"/>
<path d="M73.6737 40.3171H63.4346V29.774H73.6737V40.3171Z" fill="#D6B45E" stroke="black"/>
<path d="M83.9128 40.3171H73.6737V29.774H83.9128V40.3171Z" fill="#D6B45E" stroke="black"/>
<path d="M63.4346 40.3171H53.1955V29.774H63.4346V40.3171Z" fill="#D6B45E" stroke="black"/>
<path d="M53.1955 40.3171H42.9564V29.774H53.1955V40.3171Z" fill="#D6B45E" stroke="black"/>
<path d="M32.7173 40.3171H22.4782V29.774H32.7173V40.3171Z" fill="#D6B45E" stroke="black"/>
<path d="M42.9564 40.3171H32.7173V29.774H42.9564V40.3171Z" fill="#D6B45E" stroke="black"/>
<path d="M104.391 49.6677H94.1519V39.1246H104.391V49.6677Z" fill="#D6B45E" stroke="black"/>
<path d="M94.1518 49.6677H83.9127V39.1246H94.1518V49.6677Z" fill="#D6B45E" stroke="black"/>
<path d="M22.4784 49.6677H12.2393V39.1246H22.4784V49.6677Z" fill="#D6B45E" stroke="black"/>
<path d="M12.2391 49.6677H2V39.1246H12.2391V49.6677Z" fill="#D6B45E" stroke="black"/>
<path d="M73.6737 49.6677H63.4346V39.1246H73.6737V49.6677Z" fill="#D6B45E" stroke="black"/>
<path d="M83.9128 49.6677H73.6737V39.1246H83.9128V49.6677Z" fill="#D6B45E" stroke="black"/>
<path d="M63.4346 49.6677H53.1955V39.1246H63.4346V49.6677Z" fill="#D6B45E" stroke="black"/>
<path d="M53.1955 49.6677H42.9564V39.1246H53.1955V49.6677Z" fill="#D6B45E" stroke="black"/>
<path d="M32.7173 49.6677H22.4782V39.1246H32.7173V49.6677Z" fill="#D6B45E" stroke="black"/>
<path d="M42.9563 49.6677H32.7172V39.1246H42.9563V49.6677Z" fill="#D6B45E" stroke="black"/>
<path d="M104.391 59.8342H94.1519V49.2911H104.391V59.8342Z" fill="#D6B45E" stroke="black"/>
<path d="M94.1518 59.8342H83.9127V49.2911H94.1518V59.8342Z" fill="#D6B45E" stroke="black"/>
<path d="M22.4784 59.8342H12.2393V49.2911H22.4784V59.8342Z" fill="#D6B45E" stroke="black"/>
<path d="M12.2391 59.8342H2V49.2911H12.2391V59.8342Z" fill="#D6B45E" stroke="black"/>
<path d="M73.6737 59.8342H63.4346V49.2911H73.6737V59.8342Z" fill="#D6B45E" stroke="black"/>
<path d="M83.9128 59.8342H73.6737V49.2911H83.9128V59.8342Z" fill="#D6B45E" stroke="black"/>
<path d="M63.4346 59.8342H53.1955V49.2911H63.4346V59.8342Z" fill="#D6B45E" stroke="black"/>
<path d="M53.1955 59.8342H42.9564V49.2911H53.1955V59.8342Z" fill="#D6B45E" stroke="black"/>
<path d="M32.7173 59.8342H22.4782V49.2911H32.7173V59.8342Z" fill="#D6B45E" stroke="black"/>
<path d="M42.9563 59.8342H32.7172V49.2911H42.9563V59.8342Z" fill="#D6B45E" stroke="black"/>
<path d="M12.6962 29.8052H2L6.11392 26.8659L10.3004 23.8747L14.3418 20.9873L18.6009 17.9442L22.5696 15.1087L26.6835 12.1694L30.4587 9.47212L34.3583 6.68595L38.3374 3.84297L42.3165 1H51.3671H61.2405H70.2911H79.3418H87.5696H96.6202H105.671H114.722H123.772H132V9.47212V17.9442V27.2636V36.5829V45.9022V55.2216V64.5409V73.8602V82.3324V92.4989L129.239 96.2617L126.478 100.024L123.772 103.712L121.153 107.282L118.298 111.172L115.544 114.925L112.589 118.953L109.785 122.774L106.88 126.733L104.025 130.623V120.457V110.29V100.124V89.9573V79.7907V69.6242V59.4576V49.2911V39.1245V29.8052H94.1519H84.2785H73.5823H63.7089H53.0127H43.1392H33.2658H22.5696H12.6962Z" fill="#D6B45E"/>
<path d="M104.025 29.8052H94.1519M104.025 29.8052V39.1245M104.025 29.8052L106.88 26.8659M132 1H123.772M132 1V9.47212M132 1L129.239 3.84297M12.6962 29.8052H2L6.11392 26.8659M12.6962 29.8052L51.3671 1M12.6962 29.8052H22.5696M51.3671 1H42.3165L38.3374 3.84297M51.3671 1H61.2405M22.5696 29.8052L61.2405 1M22.5696 29.8052H33.2658M61.2405 1H70.2911M33.2658 29.8052L70.2911 1M33.2658 29.8052H43.1392M70.2911 1H79.3418M43.1392 29.8052L79.3418 1M43.1392 29.8052H53.0127M79.3418 1H87.5696M53.0127 29.8052L87.5696 1M53.0127 29.8052H63.7089M87.5696 1H105.671M63.7089 29.8052L96.6202 1M63.7089 29.8052H73.5823M73.5823 29.8052L105.671 1M73.5823 29.8052H84.2785M105.671 1H114.722M84.2785 29.8052L114.722 1M84.2785 29.8052H94.1519M114.722 1H123.772M94.1519 29.8052L123.772 1M104.025 39.1245L132 9.47212M104.025 39.1245V49.2911M132 9.47212V17.9442M104.025 49.2911L132 17.9442M104.025 49.2911V59.4576M132 17.9442V27.2636M104.025 59.4576L132 27.2636M104.025 59.4576V69.6242M132 27.2636V36.5829M104.025 69.6242L132 36.5829M104.025 69.6242V79.7907M132 36.5829V45.9022M104.025 79.7907L132 45.9022M104.025 79.7907V89.9573M132 45.9022V55.2216M104.025 89.9573L132 55.2216M104.025 89.9573V100.124M132 55.2216V64.5409M104.025 100.124L132 64.5409M104.025 100.124V110.29M132 64.5409V73.8602M104.025 110.29L132 73.8602M104.025 110.29V120.457M132 73.8602V82.3324M104.025 120.457V130.623L106.88 126.733M104.025 120.457L132 82.3324M132 82.3324V92.4989L129.239 96.2617M6.11392 26.8659H106.88M6.11392 26.8659L10.3004 23.8747M106.88 26.8659L109.785 23.8747M106.88 26.8659V126.733M10.3004 23.8747H109.785M10.3004 23.8747L14.3418 20.9873M109.785 23.8747L112.589 20.9873M109.785 23.8747V122.774M14.3418 20.9873H112.589M14.3418 20.9873L18.6009 17.9442M112.589 20.9873L115.544 17.9442M112.589 20.9873V118.953M18.6009 17.9442H115.544M18.6009 17.9442L22.5696 15.1087M115.544 17.9442L118.298 15.1087M115.544 17.9442V114.925M22.5696 15.1087H118.298M22.5696 15.1087L26.6835 12.1694M118.298 15.1087L121.153 12.1694M118.298 15.1087V111.172M26.6835 12.1694H121.153M26.6835 12.1694L30.4587 9.47212M121.153 12.1694L123.772 9.47212M121.153 12.1694V107.282M30.4587 9.47212H123.772M30.4587 9.47212L34.3583 6.68595M123.772 9.47212L126.478 6.68595M123.772 9.47212V103.712M34.3583 6.68595H126.478M34.3583 6.68595L38.3374 3.84297M126.478 6.68595L129.239 3.84297M126.478 6.68595V100.024M38.3374 3.84297H129.239M129.239 3.84297V96.2617M106.88 126.733L109.785 122.774M109.785 122.774L112.589 118.953M112.589 118.953L115.544 114.925M115.544 114.925L118.298 111.172M118.298 111.172L121.153 107.282M121.153 107.282L123.772 103.712M123.772 103.712L126.478 100.024M126.478 100.024L129.239 96.2617" stroke="black"/>
<path d="M104.391 131H94.1519V120.457H104.391V131Z" fill="#D6B45E" stroke="black"/>
<path d="M94.1518 131H83.9127V120.457H94.1518V131Z" fill="#D6B45E" stroke="black"/>
<path d="M22.4784 131H12.2393V120.457H22.4784V131Z" fill="#D6B45E" stroke="black"/>
<path d="M12.2391 131H2V120.457H12.2391V131Z" fill="#D6B45E" stroke="black"/>
<path d="M73.6737 131H63.4346V120.457H73.6737V131Z" fill="#D6B45E" stroke="black"/>
<path d="M83.9128 131H73.6737V120.457H83.9128V131Z" fill="#D6B45E" stroke="black"/>
<path d="M63.4346 131H53.1955V120.457H63.4346V131Z" fill="#D6B45E" stroke="black"/>
<path d="M53.1955 131H42.9564V120.457H53.1955V131Z" fill="#D6B45E" stroke="black"/>
<path d="M32.7173 131H22.4782V120.457H32.7173V131Z" fill="#D6B45E" stroke="black"/>
<path d="M42.9563 131H32.7172V120.457H42.9563V131Z" fill="#D6B45E" stroke="black"/>
<path d="M104.391 120.833H94.1519V110.29H104.391V120.833Z" fill="#D6B45E" stroke="black"/>
<path d="M94.1518 120.833H83.9127V110.29H94.1518V120.833Z" fill="#D6B45E" stroke="black"/>
<path d="M22.4784 120.833H12.2393V110.29H22.4784V120.833Z" fill="#D6B45E" stroke="black"/>
<path d="M12.2391 120.833H2V110.29H12.2391V120.833Z" fill="#D6B45E" stroke="black"/>
<path d="M73.6737 120.833H63.4346V110.29H73.6737V120.833Z" fill="#D6B45E" stroke="black"/>
<path d="M83.9128 120.833H73.6737V110.29H83.9128V120.833Z" fill="#D6B45E" stroke="black"/>
<path d="M63.4346 120.833H53.1955V110.29H63.4346V120.833Z" fill="#D6B45E" stroke="black"/>
<path d="M53.1955 120.833H42.9564V110.29H53.1955V120.833Z" fill="#D6B45E" stroke="black"/>
<path d="M32.7173 120.833H22.4782V110.29H32.7173V120.833Z" fill="#D6B45E" stroke="black"/>
<path d="M42.9563 120.833H32.7172V110.29H42.9563V120.833Z" fill="#D6B45E" stroke="black"/>
<path d="M104.391 110.667H94.1519V100.124H104.391V110.667Z" fill="#D6B45E" stroke="black"/>
<path d="M94.1518 110.667H83.9127V100.124H94.1518V110.667Z" fill="#D6B45E" stroke="black"/>
<path d="M22.4784 110.667H12.2393V100.124H22.4784V110.667Z" fill="#D6B45E" stroke="black"/>
<path d="M12.2391 110.667H2V100.124H12.2391V110.667Z" fill="#D6B45E" stroke="black"/>
<path d="M73.6737 110.667H63.4346V100.124H73.6737V110.667Z" fill="#D6B45E" stroke="black"/>
<path d="M83.9128 110.667H73.6737V100.124H83.9128V110.667Z" fill="#D6B45E" stroke="black"/>
<path d="M63.4346 110.667H53.1955V100.124H63.4346V110.667Z" fill="#D6B45E" stroke="black"/>
<path d="M53.1955 110.667H42.9564V100.124H53.1955V110.667Z" fill="#D6B45E" stroke="black"/>
<path d="M32.7173 110.667H22.4782V100.124H32.7173V110.667Z" fill="#D6B45E" stroke="black"/>
<path d="M42.9563 110.667H32.7172V100.124H42.9563V110.667Z" fill="#D6B45E" stroke="black"/>
<path d="M104.391 100.5H94.1519V89.9572H104.391V100.5Z" fill="#D6B45E" stroke="black"/>
<path d="M94.1518 100.5H83.9127V89.9572H94.1518V100.5Z" fill="#D6B45E" stroke="black"/>
<path d="M22.4784 100.5H12.2393V89.9572H22.4784V100.5Z" fill="#D6B45E" stroke="black"/>
<path d="M12.2391 100.5H2V89.9572H12.2391V100.5Z" fill="#D6B45E" stroke="black"/>
<path d="M73.6737 100.5H63.4346V89.9572H73.6737V100.5Z" fill="#D6B45E" stroke="black"/>
<path d="M83.9128 100.5H73.6737V89.9572H83.9128V100.5Z" fill="#D6B45E" stroke="black"/>
<path d="M63.4346 100.5H53.1955V89.9572H63.4346V100.5Z" fill="#D6B45E" stroke="black"/>
<path d="M53.1955 100.5H42.9564V89.9572H53.1955V100.5Z" fill="#D6B45E" stroke="black"/>
<path d="M32.7173 100.5H22.4782V89.9572H32.7173V100.5Z" fill="#D6B45E" stroke="black"/>
<path d="M42.9563 100.5H32.7172V89.9572H42.9563V100.5Z" fill="#D6B45E" stroke="black"/>
<path d="M104.391 90.3337H94.1519V79.7906H104.391V90.3337Z" fill="#D6B45E" stroke="black"/>
<path d="M94.1518 90.3337H83.9127V79.7906H94.1518V90.3337Z" fill="#D6B45E" stroke="black"/>
<path d="M22.4784 90.3337H12.2393V79.7906H22.4784V90.3337Z" fill="#D6B45E" stroke="black"/>
<path d="M12.2391 90.3337H2V79.7906H12.2391V90.3337Z" fill="#D6B45E" stroke="black"/>
<path d="M73.6737 90.3337H63.4346V79.7906H73.6737V90.3337Z" fill="#D6B45E" stroke="black"/>
<path d="M83.9128 90.3337H73.6737V79.7906H83.9128V90.3337Z" fill="#D6B45E" stroke="black"/>
<path d="M63.4346 90.3337H53.1955V79.7906H63.4346V90.3337Z" fill="#D6B45E" stroke="black"/>
<path d="M53.1955 90.3337H42.9564V79.7906H53.1955V90.3337Z" fill="#D6B45E" stroke="black"/>
<path d="M32.7173 90.3337H22.4782V79.7906H32.7173V90.3337Z" fill="#D6B45E" stroke="black"/>
<path d="M42.9563 90.3337H32.7172V79.7906H42.9563V90.3337Z" fill="#D6B45E" stroke="black"/>
<path d="M104.391 80.1674H94.1519V69.6243H104.391V80.1674Z" fill="#D6B45E" stroke="black"/>
<path d="M94.1518 80.1674H83.9127V69.6243H94.1518V80.1674Z" fill="#D6B45E" stroke="black"/>
<path d="M22.4784 80.1674H12.2393V69.6243H22.4784V80.1674Z" fill="#D6B45E" stroke="black"/>
<path d="M12.2391 80.1674H2V69.6243H12.2391V80.1674Z" fill="#D6B45E" stroke="black"/>
<path d="M73.6737 80.1674H63.4346V69.6243H73.6737V80.1674Z" fill="#D6B45E" stroke="black"/>
<path d="M83.9128 80.1674H73.6737V69.6243H83.9128V80.1674Z" fill="#D6B45E" stroke="black"/>
<path d="M63.4346 80.1674H53.1955V69.6243H63.4346V80.1674Z" fill="#D6B45E" stroke="black"/>
<path d="M53.1955 80.1674H42.9564V69.6243H53.1955V80.1674Z" fill="#D6B45E" stroke="black"/>
<path d="M32.7173 80.1674H22.4782V69.6243H32.7173V80.1674Z" fill="#D6B45E" stroke="black"/>
<path d="M42.9563 80.1674H32.7172V69.6243H42.9563V80.1674Z" fill="#D6B45E" stroke="black"/>
<path d="M104.391 70.0007H94.1519V59.4576H104.391V70.0007Z" fill="#D6B45E" stroke="black"/>
<path d="M94.1518 70.0007H83.9127V59.4576H94.1518V70.0007Z" fill="#D6B45E" stroke="black"/>
<path d="M22.4784 70.0007H12.2393V59.4576H22.4784V70.0007Z" fill="#D6B45E" stroke="black"/>
<path d="M12.2391 70.0007H2V59.4576H12.2391V70.0007Z" fill="#D6B45E" stroke="black"/>
<path d="M73.6737 70.0007H63.4346V59.4576H73.6737V70.0007Z" fill="#D6B45E" stroke="black"/>
<path d="M83.9128 70.0007H73.6737V59.4576H83.9128V70.0007Z" fill="#D6B45E" stroke="black"/>
<path d="M63.4346 70.0007H53.1955V59.4576H63.4346V70.0007Z" fill="#D6B45E" stroke="black"/>
<path d="M53.1955 70.0007H42.9564V59.4576H53.1955V70.0007Z" fill="#D6B45E" stroke="black"/>
<path d="M32.7173 70.0007H22.4782V59.4576H32.7173V70.0007Z" fill="#D6B45E" stroke="black"/>
<path d="M42.9563 70.0007H32.7172V59.4576H42.9563V70.0007Z" fill="#D6B45E" stroke="black"/>
</svg>
