<?xml version="1.0" encoding="UTF-8" standalone="no"?>
<svg
   width="145.84326"
   height="796.97174"
   preserveAspectRatio="xMidYMid meet"
   version="1.1"
   id="svg248"
   sodipodi:docname="dezena.svg"
   inkscape:version="1.1.2 (b8e25be833, 2022-02-05)"
   xmlns:inkscape="http://www.inkscape.org/namespaces/inkscape"
   xmlns:sodipodi="http://sodipodi.sourceforge.net/DTD/sodipodi-0.dtd"
   xmlns="http://www.w3.org/2000/svg"
   xmlns:svg="http://www.w3.org/2000/svg">
  <defs
     id="defs252" />
  <sodipodi:namedview
     id="namedview250"
     pagecolor="#ffffff"
     bordercolor="#111111"
     borderopacity="1"
     inkscape:pageshadow="0"
     inkscape:pageopacity="0"
     inkscape:pagecheckerboard="1"
     showgrid="false"
     inkscape:zoom="0.3875"
     inkscape:cx="230.96774"
     inkscape:cy="265.80645"
     inkscape:window-width="1366"
     inkscape:window-height="705"
     inkscape:window-x="-8"
     inkscape:window-y="-8"
     inkscape:window-maximized="1"
     inkscape:current-layer="svg248" />
  <metadata
     id="metadata233">Created by potrace 1.15, written by Peter Selinger 2001-2017</metadata>
  <g
     class="layer"
     id="g246"
     transform="translate(-391.28263,-375.38784)">
    <title
       id="title235">Layer 1</title>
    <g
       fill="#ffc107"
       id="svg_1"
       transform="matrix(0.1,0,0,-0.1,0,1280)">
      <path
         d="m 4384,8979 c -221,-37 -411,-72 -423,-78 -11,-7 -21,-17 -21,-24 1,-7 80,-70 176,-142 97,-71 178,-134 182,-140 3,-5 -1,-5 -9,1 -113,88 -342,254 -350,254 -29,0 -31,-52 -20,-476 6,-236 15,-445 21,-465 16,-56 37,-77 228,-232 212,-172 216,-175 234,-159 9,7 19,8 28,2 8,-6 31,-10 50,-10 60,0 780,148 813,167 16,10 38,34 48,53 18,32 19,64 19,453 0,457 -1,462 -58,486 -24,10 -87,2 -431,-58 -390,-69 -427,-77 -463,-108 -15,-13 -18,-12 -28,9 -7,13 -26,35 -44,50 l -31,28 34,-17 c 22,-10 58,-16 100,-15 75,1 836,133 869,151 12,6 22,17 22,24 0,7 -92,76 -205,155 -175,122 -212,144 -257,151 -68,12 -21,18 -484,-60 z"
         id="svg_81" />
      <path
         d="m 3943,7783 c -9,-24 -9,-41 1,-473 7,-332 10,-381 27,-426 18,-46 39,-68 219,-225 113,-99 209,-175 222,-177 13,-1 43,-5 68,-8 34,-4 134,15 425,81 413,93 418,95 451,172 21,50 20,802 -1,843 -18,34 -43,50 -80,50 -20,0 -688,-130 -791,-155 -11,-2 -32,-15 -47,-29 l -26,-24 -18,33 c -20,37 -405,355 -429,355 -8,0 -18,-8 -21,-17 z"
         id="svg_99" />
      <path
         d="m 3970,6785 c -10,-12 -11,-94 -5,-387 7,-385 13,-459 43,-514 22,-41 391,-384 412,-384 9,0 31,-7 49,-16 32,-16 42,-14 423,81 420,105 435,111 464,182 21,49 20,772 -1,812 -29,58 -39,57 -452,-35 -403,-90 -422,-95 -449,-125 -23,-26 -28,-24 -42,14 -8,23 -70,83 -212,207 -110,96 -204,176 -209,178 -4,1 -14,-4 -21,-13 z"
         id="svg_117" />
      <path
         d="m 3991,5816 c -9,-11 -9,-110 -2,-404 9,-368 10,-392 31,-440 18,-42 60,-88 212,-237 111,-109 196,-185 208,-185 10,0 21,-4 25,-9 18,-29 72,-19 440,81 404,109 423,117 451,185 11,25 14,112 14,398 v 367 l -29,29 c -16,16 -39,29 -50,29 -12,0 -193,-43 -404,-96 -329,-82 -386,-99 -411,-122 -16,-15 -30,-22 -32,-17 -18,47 -64,98 -231,255 -106,99 -197,180 -202,180 -5,0 -14,-6 -20,-14 z"
         id="svg_132" />
      <path
         d="m 4011,4886 c -8,-10 -8,-109 -1,-377 10,-377 13,-405 37,-453 21,-41 383,-416 402,-416 9,0 25,-7 35,-15 11,-8 32,-15 48,-15 42,0 739,207 767,228 14,10 34,31 45,46 20,27 21,39 21,396 0,348 -1,369 -19,389 -12,13 -31,21 -52,21 -17,0 -180,-40 -360,-89 -181,-49 -348,-94 -371,-100 -23,-6 -55,-25 -71,-41 l -29,-29 -22,49 c -16,36 -69,94 -211,234 -105,102 -194,186 -199,186 -5,0 -14,-6 -20,-14 z"
         id="svg_149" />
      <path
         d="m 4027,3988 c -9,-26 13,-722 24,-757 16,-49 33,-71 225,-282 92,-101 177,-186 188,-187 11,-2 29,-10 40,-18 11,-8 30,-14 42,-14 11,0 184,51 383,114 259,81 369,120 388,137 51,48 53,63 53,422 0,323 -1,335 -21,361 -14,18 -30,26 -52,26 -18,0 -196,-48 -396,-107 -333,-98 -368,-110 -398,-140 -26,-27 -33,-30 -33,-16 -1,38 -42,90 -220,278 -173,182 -211,214 -223,183 z"
         id="svg_162" />
      <path
         d="m 4047,3121 c -6,-24 10,-640 18,-696 9,-62 27,-87 220,-309 121,-139 185,-206 196,-203 8,2 24,-2 34,-9 10,-8 33,-14 49,-14 42,0 719,226 749,250 55,43 57,60 57,414 v 327 l -25,24 c -13,14 -32,25 -41,25 -9,0 -181,-52 -383,-115 -334,-105 -369,-118 -397,-148 l -31,-33 -24,52 c -17,37 -79,114 -207,253 -100,111 -189,201 -196,201 -8,0 -16,-9 -19,-19 z"
         id="svg_174" />
      <path
         d="m 4068,2293 c -3,-10 -1,-163 3,-340 6,-255 11,-332 23,-371 13,-37 62,-103 201,-270 102,-122 189,-222 195,-222 5,0 12,5 16,11 5,8 9,7 15,-4 22,-39 56,-31 419,98 217,77 364,134 378,148 51,47 52,54 52,387 0,200 -4,318 -11,331 -26,50 -41,47 -408,-77 -190,-64 -358,-122 -373,-130 -14,-7 -37,-26 -49,-42 l -24,-28 -21,51 c -14,37 -74,113 -204,263 -101,117 -189,212 -196,212 -6,0 -14,-8 -16,-17 z"
         id="svg_179" />
    </g>
  </g>
</svg>
